<svg xmlns="http://www.w3.org/2000/svg" xmlns:xlink="http://www.w3.org/1999/xlink" width="1460" height="920" viewBox="0 0 1460 920"><defs><style>.a{fill:#063793;}.b{fill:#d3d3d3;}.c{fill:#ff5b22;}.d{fill:#e8e8e8;}.e{fill:#31c6d3;}.f{fill:#fff;}.g{fill:#495e84;}.h{fill:#ffad36;}.i{filter:url(#c);}.j{filter:url(#a);}</style><filter id="a" x="1308" y="126" width="152" height="77" filterUnits="userSpaceOnUse"><feOffset dy="6" input="SourceAlpha"/><feGaussianBlur stdDeviation="4" result="b"/><feFlood flood-opacity="0.235"/><feComposite operator="in" in2="b"/><feComposite in="SourceGraphic"/></filter><filter id="c" x="1308" y="232" width="152" height="77" filterUnits="userSpaceOnUse"><feOffset dy="6" input="SourceAlpha"/><feGaussianBlur stdDeviation="4" result="d"/><feFlood flood-opacity="0.235"/><feComposite operator="in" in2="d"/><feComposite in="SourceGraphic"/></filter></defs><g transform="translate(-255 -216)"><rect class="a" width="705" height="920" rx="50" transform="translate(255 216)"/><rect class="a" width="705" height="920" rx="50" transform="translate(971 216)"/><g transform="translate(982 246)"><path class="b" d="M50,0H662a0,0,0,0,1,0,0V854a0,0,0,0,1,0,0H50A50,50,0,0,1,0,804V50A50,50,0,0,1,50,0Z" transform="translate(14 12)"/><g class="j" transform="matrix(1, 0, 0, 1, -727, -30)"><path class="c" d="M0,0H128a0,0,0,0,1,0,0V23A30,30,0,0,1,98,53H0a0,0,0,0,1,0,0V0A0,0,0,0,1,0,0Z" transform="translate(1320 132)"/></g><path class="d" d="M50,0H662a0,0,0,0,1,0,0V854a0,0,0,0,1,0,0H50A50,50,0,0,1,0,804V50A50,50,0,0,1,50,0Z" transform="translate(7 5)"/><g class="i" transform="matrix(1, 0, 0, 1, -727, -30)"><path class="e" d="M0,0H128a0,0,0,0,1,0,0V23A30,30,0,0,1,98,53H0a0,0,0,0,1,0,0V0A0,0,0,0,1,0,0Z" transform="translate(1320 238)"/></g><path class="f" d="M50,0H662a0,0,0,0,1,0,0V854a0,0,0,0,1,0,0H50A50,50,0,0,1,0,804V50A50,50,0,0,1,50,0Z"/></g><g transform="translate(949 1112.049) rotate(180)"><path class="b" d="M50,0H662a0,0,0,0,1,0,0V854a0,0,0,0,1,0,0H50A50,50,0,0,1,0,804V50A50,50,0,0,1,50,0Z" transform="translate(14 0.049)"/><path class="d" d="M50,0H662a0,0,0,0,1,0,0V850a0,0,0,0,1,0,0H50A50,50,0,0,1,0,800V50A50,50,0,0,1,50,0Z" transform="translate(7 7.049)"/><path class="f" d="M50,0H662a0,0,0,0,1,0,0V845a0,0,0,0,1,0,0H50A50,50,0,0,1,0,795V50A50,50,0,0,1,50,0Z" transform="translate(0 12.049)"/></g><rect class="g" width="129" height="28" rx="14" transform="translate(902 272)"/><rect class="g" width="129" height="28" rx="14" transform="translate(902 330)"/><rect class="g" width="129" height="28" rx="14" transform="translate(902 392)"/><rect class="g" width="129" height="28" rx="14" transform="translate(902 452)"/><rect class="g" width="129" height="28" rx="14" transform="translate(902 511)"/><rect class="g" width="129" height="28" rx="14" transform="translate(902 570)"/><rect class="g" width="129" height="28" rx="14" transform="translate(902 630)"/><rect class="g" width="129" height="28" rx="14" transform="translate(902 689)"/><rect class="g" width="129" height="28" rx="14" transform="translate(902 749)"/><rect class="g" width="129" height="28" rx="14" transform="translate(902 808)"/><rect class="g" width="129" height="28" rx="14" transform="translate(902 867)"/><rect class="g" width="129" height="28" rx="14" transform="translate(902 927)"/><rect class="g" width="129" height="28" rx="14" transform="translate(902 989)"/><rect class="g" width="129" height="28" rx="14" transform="translate(902 1047)"/><rect class="h" width="24" height="876" transform="translate(1052 245)"/></g></svg>