<svg xmlns="http://www.w3.org/2000/svg" width="264.995" height="388.66" viewBox="0 0 264.995 388.66"><defs><style>.a{fill:#fff;}.b{fill:#063793;}</style></defs><g transform="translate(-457.164 -581)"><g transform="translate(457.164 843.799)"><path class="a" d="M196.009,554.532a108.167,108.167,0,0,1,11.037-19.483c1.593-2.234,4.419-7.009,7.665-8.625,1.994-1.355,4.7-1.679,7.026-2.318,5.684-1.574,11.828-2.176,17.643-3.147a72.5,72.5,0,0,1,7.459-.647c2.738-.168,4.657-1.653,7.144-2.418,2.1-.646,5.234-.572,6.468,1.445,4.8-2.661,9.288-5.973,14.039-8.687,5.326-3.044,12.442-2.867,18.378-2.811a80.286,80.286,0,0,1,20.119,2.794,61.847,61.847,0,0,1,16.539,7.506c2.62.941,5.107,2.245,7.71,3.248a54.6,54.6,0,0,0,11.05,2.86,179.737,179.737,0,0,1,21.641,4.85c4.62,1.359,10.484,2.412,13.569,6.548,1.181,1.588,2.877,4.942,2.464,7.365a10.749,10.749,0,0,1,2.305-.482c2.646-.377,5.272-1.28,7.879-1.837a20.973,20.973,0,0,1,8.293-.4c.011,0,.017.008.024.013,1.4-2.15,6.513-2.185,8.58-2.374,3.724-.345,7.288-1.529,11.018-1.737,3.379-.187,6.368,1.154,9.432,2.318,4.23-.163,8.306-2.086,12.555-1.257a12.428,12.428,0,0,1,7.839,5.064c1.825,2.9.182,7.3-2.136,9.388a4.041,4.041,0,0,1-2.082.929,14.842,14.842,0,0,1-2.06.718c-2.1.667-3.975,1.807-6,2.641a5.43,5.43,0,0,1-.866,1.4c-1.154,1.316-3.134,1.936-4.693,2.586a92.549,92.549,0,0,0-14.881,7.952c-4.682,3-9,6.528-13.432,9.893-3.385,2.577-7.476,4.254-10.855,6.813a16.646,16.646,0,0,1-10.7,5.81c-2.586.388-5.206.575-7.808.858-1.825.2-3.748,1.091-5.6,1.216-.427.112-.851.232-1.273.339-4.783,1.214-9.871,1.115-14.446,3.139-2.221.984-4.77,2.232-7.3,2.494-3.308,1.252-6.786,2.226-10.132,3.334a25.275,25.275,0,0,1-11.5,1.04,98.434,98.434,0,0,1-13.381-3.265,71.981,71.981,0,0,1-9.275-2.989c-1.5-.371-2.976-.808-4.417-1.2-.187-.052-.384-.109-.572-.156-.727-.176-1.447-.364-2.161-.6-.058-.021-.114-.032-.171-.051-2.018-.564-4.029-1.128-6.035-1.705-2.884-.727-5.785-1.361-8.719-2.007-2.652-.581-5.272-1.252-7.879-1.992a2.267,2.267,0,0,1,.126.669,32.6,32.6,0,0,1-.527,5.229,22.555,22.555,0,0,1-4.562,10.053c-4.751,6.063-12.812,7.409-19.757,9.528A238.967,238.967,0,0,0,224.2,624.2c-6.6,2.9-13.074,7.708-20.353,8.823a5.515,5.515,0,0,1-6.9-1.32c-2.553-2.766-3.4-6.782-3.861-10.383-.59-4.584-.446-9.243-.928-13.844-.4-3.834-.855-7.631-1.048-11.449C187.916,581.789,190.248,567.8,196.009,554.532Z" transform="translate(-189.672 -507.819)"/><path class="b" d="M255.055,596.919a.9.9,0,0,0,.161.433,1.157,1.157,0,0,0,.71.485.186.186,0,0,0,.225-.133,1.265,1.265,0,0,0-.131-.941c-.246-.349-.559-.307-.872-.551-.051-.039-.1.005-.081.054C255.168,596.5,255.074,596.681,255.055,596.919ZM395.083,557c.034-1.031.459-2.1.234-3.111a.212.212,0,0,0-.407,0,8.521,8.521,0,0,0,.073,3.119C394.994,557.065,395.083,557.047,395.083,557Zm-141.7,36.525c.069.18.1.343.176.527.094.206.163.433.275.634.206.367.759.043.564-.332-.206-.4-.444-.847-.915-.922C253.432,593.423,253.368,593.461,253.387,593.523ZM250.274,587a3.367,3.367,0,0,0,.519,1.248c.262.461.493.952.789,1.4a.292.292,0,0,0,.232.133c.57-.052.019-.918-.081-1.152-.253-.6-.521-1.5-1.136-1.811C250.467,586.75,250.259,586.83,250.274,587Zm121.858-9.245a.8.8,0,0,0,.195,1.205.4.4,0,0,0,.274.036c.065.431.122.872.216,1.3.131.609.011,1.241.57,1.631a.259.259,0,0,0,.375-.15c.214-.634-.337-1.273-.544-1.848-.131-.364-.27-.708-.4-1.061a.459.459,0,0,0,.086-.351c-.017-.176-.126-.32-.142-.495A.374.374,0,0,0,372.132,577.754ZM257.179,599.942c.058.174,0,.348.058.526a1.806,1.806,0,0,0,.262.549c.169.247.433.555.759.4s-.088-.673-.214-.817a1.724,1.724,0,0,0-.425-.431.94.94,0,0,1-.352-.262A.048.048,0,0,0,257.179,599.942Zm-8.992-18.966c.35.924.465,1.874.8,2.8a12.8,12.8,0,0,0,1.2,2.324.079.079,0,0,0,.144-.06,20.51,20.51,0,0,0-.853-2.787c-.337-.813-.858-1.5-1.233-2.3C248.23,580.925,248.181,580.944,248.187,580.976Zm-3.849-26.592a2.618,2.618,0,0,0-.062.613c-.024.337.525.347.525,0a5.812,5.812,0,0,0,.007-.652c-.024-.193-.075-.388-.107-.581a.091.091,0,0,0-.174,0A5.159,5.159,0,0,1,244.337,554.384Zm.069,2.3c-.008.857-.008,1.741.019,2.6a17.719,17.719,0,0,0,.082,2.018c.038.27.476.251.525,0a4.524,4.524,0,0,0-.1-2.088,9.886,9.886,0,0,1-.42-2.528A.051.051,0,0,0,244.406,556.685Zm149,2.86a1.8,1.8,0,0,0-.307-1.533,4.169,4.169,0,0,1-.559-3.441c.008-.011-.006-.024-.019-.024a.018.018,0,0,0-.017.019c-.454,1.666-.873,4.172.557,5.495a.126.126,0,0,0,.212-.054A2.446,2.446,0,0,0,393.411,559.545Zm-202.3,36.48c.193,3.818.647,7.615,1.046,11.449.484,4.6.339,9.26.93,13.844.457,3.6,1.308,7.616,3.861,10.383a5.515,5.515,0,0,0,6.9,1.32c7.277-1.115,13.75-5.92,20.353-8.823a238.967,238.967,0,0,1,26.585-9.821c6.946-2.12,15.006-3.465,19.757-9.528A22.555,22.555,0,0,0,275.1,594.8a32.6,32.6,0,0,0,.527-5.229,2.267,2.267,0,0,0-.126-.669c2.607.74,5.227,1.411,7.879,1.992,2.933.647,5.834,1.28,8.719,2.007,2.005.577,4.016,1.141,6.035,1.705.056.019.112.03.171.051.714.238,1.434.426,2.161.6.187.047.384.1.572.156,1.441.4,2.92.832,4.417,1.2a71.981,71.981,0,0,0,9.275,2.989,98.434,98.434,0,0,0,13.381,3.265,25.275,25.275,0,0,0,11.5-1.04c3.345-1.108,6.824-2.082,10.132-3.334,2.528-.262,5.077-1.51,7.3-2.494,4.575-2.024,9.663-1.925,14.446-3.139.422-.107.845-.227,1.273-.339,1.855-.125,3.778-1.014,5.6-1.216,2.6-.283,5.221-.47,7.808-.858a16.646,16.646,0,0,0,10.7-5.81c3.379-2.558,7.47-4.236,10.855-6.812,4.429-3.366,8.75-6.889,13.432-9.893a92.549,92.549,0,0,1,14.881-7.952c1.559-.65,3.538-1.271,4.693-2.586a5.43,5.43,0,0,0,.866-1.4c2.03-.834,3.9-1.973,6-2.641a14.842,14.842,0,0,0,2.06-.718,4.041,4.041,0,0,0,2.082-.929c2.318-2.088,3.962-6.492,2.136-9.388a12.428,12.428,0,0,0-7.839-5.064c-4.249-.828-8.325,1.094-12.555,1.257-3.064-1.164-6.054-2.506-9.432-2.318-3.73.208-7.294,1.392-11.018,1.737-2.067.189-7.178.225-8.58,2.374-.008-.005-.013-.013-.024-.013a20.973,20.973,0,0,0-8.293.4c-2.607.557-5.233,1.46-7.879,1.837a10.749,10.749,0,0,0-2.305.482c.412-2.423-1.284-5.778-2.464-7.365-3.085-4.136-8.949-5.189-13.569-6.548a179.737,179.737,0,0,0-21.641-4.85,54.6,54.6,0,0,1-11.05-2.86c-2.6-1-5.09-2.307-7.71-3.248a61.847,61.847,0,0,0-16.539-7.506,80.286,80.286,0,0,0-20.119-2.794c-5.935-.056-13.051-.232-18.378,2.811-4.751,2.714-9.243,6.025-14.039,8.687-1.233-2.017-4.369-2.092-6.468-1.445-2.489.765-4.406,2.249-7.144,2.418a72.583,72.583,0,0,0-7.461.647c-5.814.971-11.959,1.572-17.641,3.147-2.326.639-5.034.963-7.026,2.318-3.246,1.615-6.072,6.391-7.665,8.625a108.167,108.167,0,0,0-11.037,19.483C190.248,567.8,187.916,581.789,191.114,596.025Zm240.4-57.061c-.572.112-1.147.238-1.705.356a63.531,63.531,0,0,0-10.752,3.394c-4.074,1.7-8.308,2.744-12.439,4.144a.434.434,0,0,0-.128-.36c1.014-.77,3.317-1.067,4.163-1.43,2.85-1.224,5.583-2.718,8.428-3.967.043-.017.013-.084-.03-.073-3.36,1-6.575,2.661-10.01,3.3-1.512.279-3.242.622-3.773,2.133a5.367,5.367,0,0,1-.744-1.715.105.105,0,0,0-.094-.064.08.08,0,0,0-.082.088c.019.429.015.877.071,1.312a4.34,4.34,0,0,1-.2.564.226.226,0,0,0-.077.052c-1.055,1.4-2.193.964-3.533,1.694a44.836,44.836,0,0,0-4.031,2.457.039.039,0,0,0,.032.069,8.926,8.926,0,0,0,2.03-.634,3.173,3.173,0,0,0-.311.3,12.428,12.428,0,0,1-4.577,1.955,19.472,19.472,0,0,1-2.493.15c-4.393-.857-9.189.35-13.381-1.291-2.789-1.091-1.248-4.219,1.121-4.67.772-.15,1.542-.277,2.315-.388a7.816,7.816,0,0,0,4.869-1.586c1.2-.307,2.331-.845,3.535-1.2a45.606,45.606,0,0,1,6.777-1.606c1.477-.206,3.445-.032,5.238-.116.144.008.289.022.425.041.7.082,1.749.006,2.125.708a1.631,1.631,0,0,0,.058.169.106.106,0,0,0,.1.069.086.086,0,0,0,.088-.069c.669-2.89,5.008-3.379,7.322-3.63,2.373-.249,4.728-.5,7.086-.888,3.014-.489,6.128-.959,9.14-.133C429.278,538.446,430.382,538.765,431.512,538.963Zm17.412,9.168c-1.522.334-3.049.59-4.554.991a3.99,3.99,0,0,0-.864.365,7.508,7.508,0,0,0-4.845-6.406c-5.214-1.668-10.673.268-15.319,2.92a13.633,13.633,0,0,0-2.142.828c-.157.075-.3.165-.444.244a1.51,1.51,0,0,0-.155-.746,5.5,5.5,0,0,1-.36-1.807c-.006-.028-.028-.041-.062-.041a.054.054,0,0,0-.056.041,5.4,5.4,0,0,1-.358,1.807c-.193.332-.049.765-.187,1.1a4.749,4.749,0,0,1-.678.941c-.092.075-.191.15-.287.225a.745.745,0,0,0-.142.019c0,.013,0,.013-.008,0a.673.673,0,0,0-.039-.127.9.9,0,0,0-.068-.2,2.11,2.11,0,0,1-.15-.27,1.592,1.592,0,0,1-.176-.59c-.006-.037-.077-.037-.082,0a2.126,2.126,0,0,1-.187.59,1.337,1.337,0,0,0-.139.8,1.184,1.184,0,0,0,.176.422c-.289.217-.583.439-.9.652a17.44,17.44,0,0,1-5.591,2.845,14.138,14.138,0,0,0-2.551.7,13.589,13.589,0,0,0-4.192,1.094c-1.818.935-3.2,2.515-5.04,3.415-1.241.611-2.706,1.029-4.018,1.63l-.019-.032c-.206-.257-.193-.918-.244-1.231a.058.058,0,0,0-.112,0,2.232,2.232,0,0,1-.382,1.231,1.693,1.693,0,0,0-.345.63c-.088.054-.184.105-.264.163-.045.03-.094.06-.137.094a29.211,29.211,0,0,1-2.933,1.786c-.515.182-1.034.35-1.554.519-.36.077-.723.152-1.087.232-3.351-.184-6.7.871-10.085.54-1.784-.169-8.741-1.323-4.76-5.453a7.014,7.014,0,0,1,1.923-1.41c2.689-.772,5.5-1.286,8.342-1.8s5.74-.592,8.58-.988c.538-.075,1.078-.163,1.612-.272,2.821-.559,5.158-2.035,7.69-3.334,5.9-3.006,12.051-4.548,18.233-6.554q1.316-.428,2.644-.89a45.955,45.955,0,0,1,10.345-2.7,21.9,21.9,0,0,0,5.053-.769c.714-.129,1.43-.285,2.107-.4a12.965,12.965,0,0,1,9.753,2.075c3.966,2.627,3.407,7.184-.495,9.682-1.977,1.267-4.37,1.518-6.38,2.558a6.867,6.867,0,0,0,.483-1.786c.737-.586,1.2-1.462,2.112-1.91a34.344,34.344,0,0,1,3.355-1.346A.039.039,0,0,0,448.924,548.131ZM381.6,588.378c2.5-1.407,4.927-2.957,7.307-4.108,2.982-1.439,6.216-2.3,9.037-4.078,2.545-1.6,5.064-3.272,7.483-5.071a42.4,42.4,0,0,1,7.858-5.188,29.02,29.02,0,0,0,5.191-2.489,7.735,7.735,0,0,0,1.4-1.3,4.869,4.869,0,0,0,1-4.123,6.019,6.019,0,0,0-3.045-4.67,37.131,37.131,0,0,1,7.673-6.567A18.858,18.858,0,0,1,435.669,547a.08.08,0,0,0,0-.159c-4.168-.386-7.931,1.576-11.269,3.9-1.981,1.378-3.994,2.541-6.061,3.767a8.224,8.224,0,0,0-1.175.808c2.048-4.314,7.174-6.125,11.427-8.126,2.984-1.4,6.932-2.909,9.952-.7,2.648,1.938,3.28,4.333,2.584,6.867-.013.041-.028.079-.039.116-.094.238-.193.482-.3.731a16.226,16.226,0,0,1-1.983,2.382c-2.092,1.812-4.629,2.6-7.142,3.641a66.879,66.879,0,0,0-13,7.47c-.35.244-.7.5-1.044.748-4.7,3.428-9.208,7.3-14.129,10.4-2.607,1.644-5.4,3.014-7.545,5.152-.99.515-1.786,1.284-2.785,1.917a22.685,22.685,0,0,1-7.581,2.661c-.266.054-.536.1-.8.137.307-.146.607-.3.885-.446a43.212,43.212,0,0,0,5.634-2.98.039.039,0,0,0-.041-.065,33.6,33.6,0,0,1-6.745,2.44C383.577,587.914,382.569,588.1,381.6,588.378Zm-112.3-7.328c-5.053-4.267-10.191-10.034-11.333-16.79a71.709,71.709,0,0,1-.633-11.52c-.019-3.634-.169-7.189.6-10.773.7-3.266,1.642-7.221,4.232-9.565a23.239,23.239,0,0,1,6.492-3.76,2.771,2.771,0,0,0,1.01-.382.711.711,0,0,0,.214-.232,4.9,4.9,0,0,1,1.69-.169,2.708,2.708,0,0,0,1.825-.163.126.126,0,0,0,.024-.187,2.638,2.638,0,0,0-.508-.335c-1.441-1.409-4.494-1.958-6.25-3.3a.227.227,0,0,0-.21-.174,3.049,3.049,0,0,1-.873-3.6c.778-2.418,2.515-3.9,4.4-5.281a18.88,18.88,0,0,1,4.262-2.009c6.548-1.947,12.8-3.595,19.7-3.34a75.113,75.113,0,0,1,20.822,3.323c5.2,1.709,9.852,4.7,14.961,6.58,3.7,2.451,8.321,3.893,12.465,5.135,5.986,1.794,12.116,2.493,18.213,3.771,5.047,1.061,10.812,2.075,15.683,4.153,2.538,1.8,5.083,4.734,2.963,7.817-1.522,2.215-4.131,2.65-6.649,2.644-1.741,0-3.529-.26-5.264-.159a43.925,43.925,0,0,1-7.815.137c-1.73-.229-5.058-2.669-6.919-2.283a13.965,13.965,0,0,0-3.84,1.518c-.216.112-.429.223-.648.345a7.079,7.079,0,0,1-6.687.238c-1.88-.727-4.387-1.4-5.534-3.265a.064.064,0,0,0-.024-.019c-.159-.278-.315-.551-.47-.827a29.7,29.7,0,0,0,4.781,2.311c3.248,1.421,5.847.109,8.9-1.237.052-.024.015-.1-.038-.088a16.314,16.314,0,0,1-9.314,0,12.827,12.827,0,0,1-4.256-2.766c-.156-.139-.285-.249-.4-.335-.529-.707-1.183-1.314-1.7-2.039-.529-.75-1.066-1.544-1.668-2.256-1.162-2.431-1.949-4.98-3.062-7.429-.037-.084-.157-.019-.139.064a47.632,47.632,0,0,0,2.376,7.339,15.669,15.669,0,0,0,.909,2.005,6.365,6.365,0,0,0-1.936-1.094c-.082-.032-.146.084-.082.148a16.5,16.5,0,0,1,1.874,2.165c1.912,4.867,4.264,10.917-2.112,13.623-4.457,1.9-9.464,1.085-13.827-.712-8.179-3.372-15.347-8.808-23.758-11.7-4.2-2.114-8.544-3.93-12.8-5.935-.056-.024-.107.062-.051.088,13.707,6.3,25.7,16.046,39.713,21.715a40.1,40.1,0,0,0,3.859,1.355,9.436,9.436,0,0,1,1.366.59c1.185.645,2.356,1.653,1.554,3.113a5.383,5.383,0,0,1-.688.954c-.427.289-.866.564-1.3.871-.094.036-.18.075-.27.116a.212.212,0,0,0-.124.182.664.664,0,0,0,.073,1.1c3.844,1.93,4.993,6.672,4.49,10.994a10.669,10.669,0,0,0-.193-2.427,10.778,10.778,0,0,0-4.548-6.859c-.066-.041-.142.056-.084.109,4.393,3.932,3.3,8.715,3.158,13.782a12.8,12.8,0,0,0-1.141,3.544.072.072,0,0,0,.139.036c.87-2.431,2.474-3.7,4.142-5.514a15.329,15.329,0,0,1,3.628-3.4c4.232-2.4,7.058-.7,10.606,1.829.532.38,1.185-.238,1.038-.8,0-.028-.017-.056-.024-.09,1.855.068,4.2.849,4.074,2.922a18.164,18.164,0,0,0-.289,2.892,6.835,6.835,0,0,1,.043,1.16,2.91,2.91,0,0,0-.1.827.2.2,0,0,0,.03.05c-.1.877-.281,1.754-.369,2.613,0,.032.051.037.064,0a23.245,23.245,0,0,1,1.115-2.9,15.552,15.552,0,0,0,2.564-2.331c.815-.5,1.692-1.033,2.609-1.556,1.664-.643,3.433-.963,5.163-1.473a13.842,13.842,0,0,1,4.374-.624,14.842,14.842,0,0,1,2.663.686,7.748,7.748,0,0,1,2.759,1.608,4.518,4.518,0,0,1,.894,1.383c.152.54.41,1.065.542,1.644.27,1.173.538,2.358.845,3.522.013.051.1.041.1-.013-.045-1.078-.277-2.125-.427-3.19a3.889,3.889,0,0,1,.049-2.262.622.622,0,0,0,.075-.345c.315.233.622.47.941.727a.224.224,0,0,0,.326-.051.125.125,0,0,0,.069-.144c-.74-3.979,5.986-5.716,8.737-6.26,3.46-.69,6.569-1.263,8.619,2.337.2.335.838.219.787-.214a23.771,23.771,0,0,1-.15-3.342c1.248-6.535,9.74-9.037,15.313-10.624,2.669-.763,5.776-1.608,8.548-.853a8.987,8.987,0,0,1,4.6,2.967,4.654,4.654,0,0,1,.637,1.968,4.2,4.2,0,0,1-.249,1.569,4.62,4.62,0,0,1-.9,1.109c-1.96,1.8-4.217,2.5-6.486,3.765-4.436,2.47-8.04,6.175-12.534,8.593-4.513,2.431-9.219,4.487-13.745,6.888-2.326,1.237-4.588,2.594-6.957,3.746-1.2.587-2.438,1.081-3.662,1.619-1.3.337-2.586.7-3.9,1-4.236.967-8.868,1.2-12.941,2.734-3.235,1.214-6.349,2.5-9.614,3.553-2.832.2-5.609,1.5-8.287,2.361a26.89,26.89,0,0,1-13.938.952c-5.823-1.151-11.464-3.27-17.234-4.706a64.02,64.02,0,0,0-8.743-2.613c-.692-.163-1.387-.326-2.077-.482-3.628-1.13-7.365-1.814-11.061-2.663a.144.144,0,0,0-.107-.144C280.7,588.077,274.516,585.458,269.308,581.05Zm96.607-8.51c.006-.021.017-.045.026-.069.1.069.2.131.3.193C366.135,572.628,366.022,572.583,365.915,572.54Zm-4.539-24.795a.391.391,0,0,0,0-.114,2.041,2.041,0,0,0,.212-.024C361.515,547.652,361.446,547.695,361.376,547.745Zm-19.785,1.361.013-.013.006.008Zm-150.119,28.3a73.619,73.619,0,0,1,4.687-19.172c.371-.946.746-1.893,1.134-2.828a101.2,101.2,0,0,1,12.787-18.863c8.831-5.307,20.469-4.8,30.372-6.912a.06.06,0,0,0-.017-.116c-7.03.154-14.614.026-21.506,1.473-1.477.311-2.974.667-4.429,1.125,4.475-3.821,11.327-4.79,16.95-5.133,5.384-.328,11.207-2.44,15.036,2.688a.2.2,0,0,0,.32,0,.048.048,0,0,0,.051-.045,5.524,5.524,0,0,1,1.02-3.107q1.195-2.893,4.288-.195a11.69,11.69,0,0,1,.169,3.782c-.249,2.21-.877,4.354-1.241,6.535a47.507,47.507,0,0,0-.954,14.727,50.88,50.88,0,0,0,.227,8.188,23.052,23.052,0,0,0,.47,5.268c.195,1.675.476,3.325.826,4.972.114.907.246,1.81.416,2.708a51.346,51.346,0,0,0,3.3,10.409,53.862,53.862,0,0,0,9.927,16.106c2.32,2.508,4.633,2.772,5.435-.806.38-1.7.337-4.331,1.447-5.765.352-.448,1.286,3.538,1.291,3.879,0,.311-.013.619-.037.918-.1.409-.219.825-.358,1.224-1.484,4.374-4.292,7.195-8.235,9.47-6.582,3.793-14.247,5.058-21.373,7.446-7.427,2.481-15.079,4.927-22.111,8.4-3.818,1.895-7.408,4.206-11.438,5.66a46.274,46.274,0,0,1-4.959,1.439c.289-.238.588-.5.933-.8,2.483-2.136,5.128-3.4,7.873-5.1,2.575-1.585,5.013-3.454,7.909-4.425,2.658-.89,5.334-1.748,7.928-2.8a31.335,31.335,0,0,0,6.708-3.433,33.1,33.1,0,0,1,7.045-3.534c2.776-1.179,5.654-1.711,8.473-2.708,2.633-.922,5.178-2.067,7.828-2.939.647-.131,1.286-.266,1.925-.4a1.528,1.528,0,0,0,.521-.114c1.81-.388,3.615-.821,5.383-1.379.032-.011.024-.062-.006-.062-1.816.193-3.63.47-5.435.791-.364-.138-.783-.157-1.151-.279-.467-.157-.892-.6-1.406-.581-.056.006-.12.064-.094.126a2.4,2.4,0,0,0,.765,1.083c-1.184.231-2.371.47-3.542.724-3.722.787-7.275,2.035-11.061,2.474a33.6,33.6,0,0,0-8.943,2.489c-3.079,1.257-5.941,3.253-9.138,4.181-2.927.853-6.106,1.021-8.895,2.288a31.583,31.583,0,0,1-5.87,2.073,24.471,24.471,0,0,0,4.1-1.8c4.275-2.39,8.479-4.721,12.948-6.74,4.633-2.093,8.816-4.938,13.415-7.054.073-.036.019-.142-.054-.127-4.494.963-8.432,4.076-12.761,5.622a69.993,69.993,0,0,0-10.581,4.567c-3.6,2-7.521,4.354-11.758,4.47a14.136,14.136,0,0,1-5.875-.991,18.6,18.6,0,0,1-6.743-7.935c-2.513-5.472-3.152-11.541-3.724-17.542C191.5,586.5,191.026,581.971,191.472,577.409Zm53.4-12.377c-.425,1.492.264,3.164.572,4.607.024.131.246.105.231-.028a24.061,24.061,0,0,0-.532-4.578A.14.14,0,0,0,244.869,565.032Zm.139-19.663c.139-1.289.27-2.581.289-3.885.006-.069-.086-.075-.112-.019a9.468,9.468,0,0,0-.446,3.9,19.1,19.1,0,0,0-.139,2.9c.037.184.29.15.341,0C245.253,547.316,244.907,546.353,245.008,545.369Zm-.463,5.381a3.027,3.027,0,0,0-.107.75c-.013.326.514.326.508,0a2.494,2.494,0,0,1,.049-.633A.232.232,0,0,0,244.545,550.75Zm2.382,24.341a6.9,6.9,0,0,0,.744,3.572.088.088,0,0,0,.163-.043c-.006-1.216-.637-2.337-.834-3.535C246.995,575.04,246.927,575.052,246.927,575.091Zm-1.286-4.687c-.915.819.12,2.3.827,2.916a.15.15,0,0,0,.232-.034,2.584,2.584,0,0,0-.939-2.9A.094.094,0,0,0,245.641,570.4Zm1.134-39.111a.352.352,0,0,0-.094-.351c-.024-.026-.051-.045-.075-.069a.191.191,0,0,0-.082-.024.38.38,0,0,0-.45.251c-.44,1.053.081,1.981-.221,3.057a9.42,9.42,0,0,0-.425,3.251.128.128,0,0,0,.251.034,9.951,9.951,0,0,0,.452-3.246A12.513,12.513,0,0,1,246.775,531.293Zm143.519,42.99a4.577,4.577,0,0,0,.118.768,1.66,1.66,0,0,0,.375.553l.008,0a.275.275,0,0,1-.1.159.294.294,0,0,0-.075.287c.026.129.049.257.086.382a.325.325,0,0,0,.3.232c.485.051.309-.793.043-.945a.4.4,0,0,1-.135-.131c.011-.011.026-.013.03-.03a3.589,3.589,0,0,0,.1-.6c0-.227-.051-.453-.047-.682C391.01,573.826,390.264,573.831,390.294,574.283Zm-36.36,3.446c2.663-.725,4.935-2.609,7.843-2.3,2.71.281,5.452.958,7.283,3.1a.1.1,0,0,0,.163-.1c-2.448-6.531-11.1-3.448-15.454-1.1A.216.216,0,0,0,353.934,577.729Zm-2.495.819a2.423,2.423,0,0,0-1.392,1.074c-.369.5-1.038.71-1.284,1.325a.323.323,0,0,0,.225.394c.6.163,1.192-.469,1.3-1.033a2.085,2.085,0,0,1,1.222-1.516A.127.127,0,0,0,351.44,578.549Zm-3.868,4.966a.078.078,0,0,0-.107-.107,2.3,2.3,0,0,0-.776.866l-.009,0-.024.019a.407.407,0,0,0-.251.515.506.506,0,0,0,.988-.124,1.681,1.681,0,0,0-.068-.521A1.883,1.883,0,0,1,347.571,583.515Zm-13.943-11.286c1.555-.431,2.849.075,4.354.341a2.277,2.277,0,0,0,1.623-.195c.864-.506,2.018.5,2.667.986.019.013.037-.017.024-.034-3.844-4.3-10.877-2.256-13.451,2.38-.043.075.064.165.122.1A10.06,10.06,0,0,1,333.628,572.229Zm-9.676,10.5c.163-.069.159-.159.236-.317a5.481,5.481,0,0,1,.274-.519,2.371,2.371,0,0,0,.367-.926c.032-.279-.347-.382-.519-.215a1.963,1.963,0,0,0-.489,1c-.056.272-.227.746,0,.965A.108.108,0,0,0,323.952,582.732Zm-.65,1.16.041.036a.35.35,0,0,0,.484,0l.041-.036a.4.4,0,1,0-.566,0Zm-.886-26.223a.021.021,0,0,0,.032.022c.587-.379.675-.815.9-1.477a.41.41,0,0,0-.184-.454c-3.868-2.588-8.372-4.159-12.538-6.192-4.562-2.23-8.6-5.227-13.128-7.5a.048.048,0,0,0-.051.082c4.661,2.834,9.065,5.832,13.915,8.347,2.36,1.22,4.938,2.292,7.185,3.711C319.746,554.97,322.992,555.948,322.415,557.669Zm-45.978-28.685-.009.047a.33.33,0,0,0,.086.32,1.447,1.447,0,0,0,1,.416.193.193,0,0,0,.186-.242,2.854,2.854,0,0,0-.107-.274.071.071,0,0,0-.079-.041.072.072,0,0,0-.077.041l0,.011c-.1-.084-.189-.169-.294-.247-.18-.135-.281-.27-.527-.208A.246.246,0,0,0,276.437,528.984Zm-1.271-.562c-.1.075-.157.129-.15.257a.307.307,0,0,0,.221.289,2.622,2.622,0,0,0,.356.038c.109.026.257-.079.2-.2a.656.656,0,0,0-.332-.379A.3.3,0,0,0,275.166,528.421Zm30.715,20.355c3.756,2.375,7.641,4.554,11.247,7.167,2.429,1.764,2.343,4.384,4.745,6.082a.077.077,0,0,0,.107-.1c-1.349-1.906-1.085-4.161-3.21-5.744a78.216,78.216,0,0,0-12.791-7.568A.1.1,0,0,0,305.882,548.776Zm-16.519-10.99c-2.112-2.219-4.768-3.482-7.369-5.019-2.421-1.426-4.674-2.864-7.448-3.463a.619.619,0,0,0-.688.279c-.064.1-1.715-.589-2.047-.637a.567.567,0,0,0-.669.38c-.277.7-3.818,1.989-4.584,2.54a30.583,30.583,0,0,0-3.761,3.461c-.128.127.06.307.193.195,1.767-1.475,3.583-3.928,5.917-4.462a9.658,9.658,0,0,0,2.431-.6c.937-.521.075-.343.978.041a3.064,3.064,0,0,0,1.6.446c2.588-.493,4.58.733,6.962,2.005,2.86,1.531,5.947,2.736,8.4,4.916A.058.058,0,0,0,289.363,537.786Zm-21.624,35.934c-2.51-2.466-4.807-5.411-5.576-8.925-.6-2.751-.186-5.178-1.171-7.868a.968.968,0,0,0-.143-.242c-1.838-4.412-.9-11.608.345-16.016a.079.079,0,0,0-.152-.045c-1.8,5.367-1.269,10.911-1.694,16.438,0,.032-.015.056-.015.092l0,.1a.7.7,0,0,0,.167.543c1.925,5.83,2.551,12.433,7.987,16.243C267.685,574.18,267.9,573.882,267.739,573.721Zm3.169,3.746c5.281,4.042,10.7,8.213,16.674,11.192,3.083,1.535,6.586,1.942,9.82,3.034,3.345,1.132,6.685,2.262,10.051,3.328.176.056.3-.227.127-.306A84.057,84.057,0,0,0,297.594,591c-3.563-1.087-7.221-1.79-10.386-3.862-2.882-1.893-5.514-4.082-8.617-5.617a31.379,31.379,0,0,1-4.374-2.15,23.931,23.931,0,0,0-3.25-2.005A.058.058,0,1,0,270.908,577.467Zm42.59,18.691c.6.277,1.2.577,1.818.826a1.779,1.779,0,0,0,1.752-.133.129.129,0,0,0-.032-.232c-1.036-.39-2.275-1.387-3.469-1C313.344,595.684,313.249,596.043,313.5,596.158Zm5.6,1.192a.019.019,0,0,0-.011.036,7.3,7.3,0,0,0,2.721.763c.052,0,.071-.084.015-.1C320.884,597.91,320.016,597.563,319.1,597.35Zm14.382.725a.337.337,0,0,0,.148.557c1.362.358,2.764-.551,4.151-.753a.742.742,0,0,0,.519-.913c-.184-.575,5.624-1.057,6.3-1.13a85.285,85.285,0,0,0,9.3-1.855c.068-.015.045-.111-.015-.116-4.076-.36-8.484.78-12.574,1.192-1.153.116-3.437.171-4.205,1.3a3.268,3.268,0,0,0-2.172.118C334.175,597.02,334.13,597.494,333.48,598.075Zm-6.908.484a4.811,4.811,0,0,0,.677.382.579.579,0,0,0,.708.092,2.988,2.988,0,0,0,.461-.35,1.5,1.5,0,0,1,1.34-.212,3.724,3.724,0,0,0,1.374.037c.1-.015.086-.163,0-.189-1.361-.38-2.412-.978-3.765-.3a.5.5,0,0,0-.2.193,1.09,1.09,0,0,1-.454,0A.205.205,0,0,0,326.572,598.559Zm-2.311-.257c.227.5,1.048-.052.619-.48C324.538,597.479,324.087,597.916,324.261,598.3Zm49.233-9.234c2.427.616,4.906-.605,6.784-2.168,1.585-1.319,2.914-3.089,4.7-4.134a18.9,18.9,0,0,0,3.656-2.555c.037-.034-.017-.083-.056-.052-2.163,1.719-4.7,2.541-6.786,4.425-2.53,2.288-5.251,2.766-8.3,3.956A.276.276,0,0,0,373.494,589.068Zm-14.324,2.479c1.482.872,2.684.377,4.147-.354,2.153-1.083,5.113-1.239,7.468-1.621.167-.028.122-.289-.039-.289-3.906.015-7.712.958-11.513,1.764A.276.276,0,0,0,359.17,591.547Zm-3.595.828a.5.5,0,0,0,.354.352c.523.131,1.467-.354,1.469-.948a.119.119,0,0,0-.064-.109.734.734,0,0,0-.57-.036,3.45,3.45,0,0,1-.5.045C355.872,591.709,355.484,591.924,355.576,592.376Zm45.028-29.09a.268.268,0,0,0,.3.392c2.712-.9,4.545-2.879,7.491-3.368a9.224,9.224,0,0,1,5.242.326c1.445.568,4.271,2.221,2.545,4.187a.011.011,0,0,0,.013.017c3.6-2.151-.41-4.957-2.9-5.51-2.123-.472-5.1.418-7.079,1.068C404.215,561.054,401.871,561.47,400.6,563.286Zm-9.1,9.223a3.706,3.706,0,0,1,.474-1.773c.133-.178.572-.416.692-.662a13.96,13.96,0,0,0,.892-2.108c.424-1.43,2.583-1.912,3.546-3.094a.058.058,0,0,0-.083-.083,26.592,26.592,0,0,1-2.98,1.621,5.777,5.777,0,0,0-1.563,1.1,9.252,9.252,0,0,0-1.449,5C391.014,572.81,391.492,572.81,391.509,572.508Zm-1.567-11.222c-5.3.289-10.778,1.469-15.7-.954-.328-.161-.8.193-.551.549,1.443,2,3.93,1.885,6.239,1.78a55.736,55.736,0,0,0,10.04-1.184A.1.1,0,0,0,389.942,561.286Zm4.948-10.118c.054-.011.041-.1-.013-.1a40.314,40.314,0,0,1-8.957-.568c-1.8-.272-5.45.064-6.85-.969-.725-.532-1.469.87-.506,1.2,2.406.819,5.8.467,8.377.662A31.255,31.255,0,0,0,394.889,551.168Zm-17.326-1.69a.333.333,0,1,0-.47,0l.062.052a.249.249,0,0,0,.347,0C377.52,549.511,377.542,549.494,377.563,549.477ZM356.6,539.863a.186.186,0,0,0,.092.345,2.97,2.97,0,0,1,2.3,1.486.588.588,0,0,0,.834,0c1.846-2.048,7.422-.952,9.858-.93a15.69,15.69,0,0,0,7.4-1.231c.041-.023.011-.081-.032-.071-4.011.791-7.624.379-11.64.478-1.78.045-4.254-.373-5.879.54A2.015,2.015,0,0,0,356.6,539.863Zm-6.353-.922a.3.3,0,0,0,.427.424,1.124,1.124,0,0,1,.187.017.28.28,0,0,0,.141-.517A.623.623,0,0,0,350.251,538.941Zm1.02.006a.194.194,0,0,0,.069.261,5.733,5.733,0,0,0,.622.262.338.338,0,0,0,.39-.051.306.306,0,0,0,.1-.227.309.309,0,0,0-.161-.279C352,538.772,351.458,538.536,351.271,538.946Zm1.885.617a.06.06,0,0,0,.058.1c.247-.1.439.052.669.1.21.045.3-.272.09-.323A.919.919,0,0,0,353.156,539.563Zm-62.523-5a6.039,6.039,0,0,0,1.486.774c.495.2,1.016.144,1.484.33a8.7,8.7,0,0,0,3.265.9.1.1,0,0,0,.024-.191,14.192,14.192,0,0,1-3.711-1.634,3.349,3.349,0,0,0-2.489-.622C290.457,534.156,290.489,534.456,290.634,534.567Zm-9.644-4.573a.184.184,0,0,0-.028.223c.277.5,1.108.416,1.6.585a17.305,17.305,0,0,0,1.908.573.079.079,0,0,0,.041-.152c-.746-.3-1.441-.714-2.17-1.055C281.9,529.962,281.413,529.6,280.989,529.994Zm-5.311-13.857c3.2-1.387,6.19-3.016,9.609-3.827a.048.048,0,0,0-.024-.094c-2.075.319-21.5,5.724-15.216,10.653.163.129.461.069.45-.186-.09-2.142.171-3.775,2.234-5.036A23.6,23.6,0,0,1,275.678,516.137Zm-4.208,7.742a.055.055,0,0,0-.041.041c-.071.193.2.583.339.663a.692.692,0,0,0,.965-.165.181.181,0,0,0-.028-.216,1.076,1.076,0,0,0-.759-.277.367.367,0,0,0-.178.047l.013-.022a.875.875,0,0,1-.178-.062A.2.2,0,0,0,271.471,523.878Zm6.61,3.9a15.378,15.378,0,0,0,2.59.678c.9.223,1.675.727,2.545,1.034a.08.08,0,0,0,.077-.133c-1.28-1.081-2.523-1.166-4.052-1.683-1.593-.54-2.811-1.779-4.327-2.436-.084-.034-.214.026-.174.133C275.253,526.78,276.825,527.226,278.081,527.782Zm7.332,2.41a16.438,16.438,0,0,1,4.17,1.453c.75.448.71,1.064,1.617,1.254,1.456.3,2.8,1.274,4.26,1.389.214.013.212-.319,0-.334a7.83,7.83,0,0,1-2.485-1.047c-.633-.264-1.516-1.355-2.217-1.365a12.3,12.3,0,0,1-2.781-.87c-.836-.23-1.679-.431-2.526-.613A.069.069,0,0,0,285.412,530.192ZM194,581.57c-.157,3.094-.65,6.73-.266,9.792a57.316,57.316,0,0,0,4.423,14.931c1.391,3.377,4.106,8.591,8.28,8.9,4.822.36,8.925-3.621,12.922-5.77.056-.032.007-.109-.049-.086-4.923,2.155-8.791,4.978-14.311,3.456-4.147-1.143-7.926-8.7-7.761-12.727.167-3.973-1.426-8.021-2.23-11.858-1.068-5.09.079-10.683.388-15.806a.088.088,0,0,0-.172-.023A58.788,58.788,0,0,0,194,581.57ZM210.592,541.5c4.734-3.33,8.615-5.836,14.592-6.2a.079.079,0,0,0,0-.157,20.518,20.518,0,0,0-14.725,4.622,67.08,67.08,0,0,0-6.065,6.256c-1.743,2-2.71,4.614-4.3,6.736-.021.028.026.062.045.037C203.434,548.572,206.135,544.633,210.592,541.5Zm117.6,5.534c-.1.082-.006.221.1.232,1.895.212,3.105-.551,3.383-2.541.242-1.745-.081-3.521.1-5.274.006-.045-.069-.053-.079-.009-.317,1.445-.15,3.1-.632,4.489C330.624,545.193,329.212,546.2,328.187,547.03Zm-2.12.384a.254.254,0,0,0,0,.362c.146.122.319.193.472.3a.557.557,0,0,0,.763-.2c.017-.03.032-.06.049-.092a.451.451,0,0,0-.049-.47.562.562,0,0,0-.763-.2C326.386,547.219,326.214,547.294,326.068,547.414Zm-22.726-34.885c1.758.72,3.741.174,5.626.669a49.9,49.9,0,0,1,6.438,2.174c2.078.868,3.919,2.341,6.037,3.017,2.065.66,4.209,1.164,6.3,1.749.075.019.124-.09.054-.127-3.949-2.137-8.121-3.45-12.272-5.077-3.641-1.428-8.119-3.212-12.1-3A.305.305,0,0,0,303.342,512.529Zm-6.617-.8a1.073,1.073,0,0,0,.491.2c.2.06.375.18.573.238a3.666,3.666,0,0,0,1.246.083.541.541,0,0,0,.536-.54l0-.052c-.021-.259-.227-.57-.532-.53a.209.209,0,0,1-.174-.069.235.235,0,0,0-.313.034,1.437,1.437,0,0,0-.894.041c-.337.159-.712.054-.956.39a.106.106,0,0,0-.008.041c-.157.03-.478.1-.581-.028a.482.482,0,0,0-.409-.185c-.465-.034-.463.759,0,.72a.636.636,0,0,0,.283-.056c.088-.051.152-.212.255-.229.156-.03.305-.071.457-.116A.159.159,0,0,0,296.725,511.727Zm-2.961,76.082c-1.1-.973-2.3-1.722-3.471-2.62-1.273-.982-2.2-2.262-3.634-2.982-2.041-1.029-4.408-1.321-6.537-2.114-3.016-1.126-4.845-1.968-6.432-4.674-.915-1.563-3.323-2.183-4.772-3.132-.139-.092-.262.1-.167.214a28.974,28.974,0,0,0,11.086,8.267c2.513,1.072,5.264,1.848,7.257,3.78,1.958,1.895,4.134,2.225,6.576,3.385C293.745,587.968,293.835,587.87,293.763,587.809Zm-26.712-18.17c-.527-1.231-2.028-2.935-1.816-4.333.178-1.194-.5-2.824-.605-3.984a22.324,22.324,0,0,0-1.413-6.736.227.227,0,0,0-.444.06,7,7,0,0,0,.675,3.306c.677,1.552.409,2.746.221,4.378-.092.778-.5,2.661.223,3.33a19.155,19.155,0,0,1,2.991,4.076C266.95,569.849,267.1,569.753,267.052,569.639Zm-1.709-35.351c-3.3,3.126-3.25,8.452-2.629,12.65.015.088.152.062.154-.021.139-3.709-.283-9.26,3.342-11.507,4.67-2.893,9.273-2.073,14.075-.2.214.081.317-.2.2-.345-1.925-2.346-5.591-1.884-8.327-2.5A8.018,8.018,0,0,0,265.342,534.287Zm40.048,57.777a9.207,9.207,0,0,0,3.621.86.048.048,0,0,0,.015-.094c-1.692-.435-5.141-1.5-5.954-3.306a.731.731,0,0,0-.838-.341,17.548,17.548,0,0,1-3.345-.47,11.244,11.244,0,0,0-2.568-1.115c-.433-.049-.553.59-.214.785,1.269.729,2.476.8,3.729,1.771a3.826,3.826,0,0,0,2.206.69,1.229,1.229,0,0,0,.795-.3C302.652,590.717,305.218,591.984,305.391,592.065Zm-38.973-15.107c.956.558,2.6,1,3.448,1.606,2.311,1.644,4.258,3.707,6.492,5.446.088.068.212-.049.124-.125-3.105-2.785-5.919-5.776-9.365-8.123-2.234-1.522-4.577-3.1-5.752-5.626-.6-1.286-.708-2.989-1.252-4.35-.362-.9-.772-1.659-1.051-2.573a.2.2,0,0,0-.386.052c.043,2.689.834,3.941,1.955,6.233a21.906,21.906,0,0,0,3.385,5.576A11.615,11.615,0,0,0,266.418,576.958Z" transform="translate(-189.672 -507.819)"/></g><g transform="translate(527.852 581)"><path class="b" d="M483.538,449.329c69.346-2.248,127.677-96.561,72.15-150.514-6.717-6.525-13.566-12.927-20.344-19.4,14.091,8.357,30.237,12.2,41.38,3.993a1.422,1.422,0,0,0,.188-.214,1.324,1.324,0,0,0,.131-.14,1.861,1.861,0,0,0,.193-.267,1.563,1.563,0,0,0-.183-1.955c-.512-2.318-1.037-4.64-1.553-6.962.241-1.509-1.5-2.882-2.738-1.6-13.26,13.776-38.441-.053-52.212-10.194a24.221,24.221,0,0,0,17.484.35,40.926,40.926,0,0,0,23.357-22.067c3.153-7.614,1.758-16.343-7.692-17.541-7.058-.892-15.25,1.225-21.49,4.413-6.127,3.136-10.618,8.165-15.206,13.076a44.927,44.927,0,0,0-6.608,6.521l-.044.039c1.128-6.739,8.764-16.671,11.143-21.411,3.127-6.241,5.572-13.47,4.369-20.567-1.815-10.688-12.914-2.567-18.416.332-.424.223-12.368,5.777-12.643,3.778a11.492,11.492,0,0,0-2.222-5.3c-3.044-3.713-7.168-4.566-11.786-4.7-11.694-.35-24.836,4.872-36.176,2.6a1.2,1.2,0,0,0-.131-.057c-.175-.035-.341-.052-.516-.083a22.155,22.155,0,0,1-12.018-7.146,1.657,1.657,0,0,0-2.571.332c-16.111,22.26,12.538,45.6,24.136,62.594-.188.258-.381.512-.569.77-1.544,1.771-3.053,3.608-4.574,5.41a.735.735,0,0,0-.053.061q-5.648,6.691-11.143,13.579c-26.983,29.983-59.205,58.7-52.873,102.6C390.8,424.668,442.027,450.676,483.538,449.329ZM572,277.229a8.217,8.217,0,0,0,1.447,4.281c-11.58,6.949-28.33,1.067-41.939-8.624C544.833,280.154,560.9,285.1,572,277.229Zm-6.853,36.906c11.029,18.232,11.738,39.337,5.983,59.087.424-2.121.831-4.251,1.115-6.455,2.528-19.312-2.816-37.278-13.452-53.314-8.594-12.962-19.815-23.9-29.9-35.651C540.723,289.12,556.685,300.153,565.143,314.134ZM549.5,225.957c9.42-.647,12.157,5.742,8.646,13.71a32.3,32.3,0,0,1-2.3,4.233c1.4-6.652-.634-13.181-9.079-14.379-4.9-.7-10.5.411-15.962,2.62A38.879,38.879,0,0,1,549.5,225.957Zm-36.543,22.868q2.88-2.6,5.563-5.453a52.247,52.247,0,0,1,15.958-8.458c4.308-1.4,8.751-2.611,13.317-1.959,11.72,1.671,2.9,17.559-1.806,21.42a39.63,39.63,0,0,1-7.185,4.26c-10.5,4.736-20.572.761-27.381-7.666C511.9,250.237,512.4,249.515,512.952,248.824Zm-2.191,12.319c-1.461-2.48-3.363-4.653-4.946-7.058.1-.057.2-.131.3-.192C507.844,256.193,509.852,258.376,510.761,261.144Zm6.708-57.5c6.525-3.223,5.27,5.169,4.933,8.917-.792,8.865-6.971,17.51-11.1,25.255,2.589-7.859,7.894-15.477,8.8-23.633.608-5.462-3.8-7.124-8.581-7.408C513.5,205.717,515.458,204.633,517.47,203.644Zm-30.617.122a13.165,13.165,0,0,1,1.622,5.659,16.852,16.852,0,0,0-1.863-5.795C486.7,203.671,486.77,203.723,486.853,203.767Zm-18.215-.249a.453.453,0,0,0-.013.188c-.039-.052-.07-.118-.109-.166Zm-38.979,4.719a22.266,22.266,0,0,0-.6,6.862,31.273,31.273,0,0,1-1.233-6.525c0-.017,1.644-12.127,3.324-10.229a18.358,18.358,0,0,0,4.128,3.219C432.651,202.455,430.63,204.458,429.66,208.236Zm10.714,26.843c-4.456-7.566-13.233-26.917-3.669-30.228a16.737,16.737,0,0,0-2.716,6.722c-.105.691.953.988,1.049.289a15.216,15.216,0,0,1,3.367-7.391,14.17,14.17,0,0,1,3.354.026c.114.031.219.07.328.1-2.016,1.867-3.114,4.749-3.726,7.343-.166.687.888.975,1.049.289.643-2.676,1.815-5.637,4.115-7.3.4.083.8.14,1.211.206-1.583,2.055-1.924,5.226-2.738,7.531-.232.665.822.949,1.058.289.818-2.318,1.093-5.781,2.974-7.605.6.07,1.22.088,1.837.127a44.289,44.289,0,0,0-2.589,6.464c-.24.665.813.949,1.058.289a35.039,35.039,0,0,1,2.72-6.674c.5.013,1,.013,1.5.013-2.287,10.321,4.57,22.063,9.6,30.464,1.089,1.811,3.927.162,2.838-1.657-4.736-7.894-11.594-19.273-8.948-28.92.713-.048,1.43-.092,2.139-.158v4.964a.547.547,0,0,0,1.093,0v-5.077q1.358-.138,2.685-.3a12.139,12.139,0,0,1,.77,3.87c.184,1.832.192,3.678.192,5.519a.547.547,0,0,0,1.093,0,48.15,48.15,0,0,0-.324-6.687,14.054,14.054,0,0,0-.63-2.851c.66-.087,1.325-.171,1.964-.258.227-.031.472-.074.7-.109,1.561,2.388,1.29,5.69,1.565,8.445.07.7,1.163.7,1.093,0-.284-2.838-.114-6.088-1.526-8.62.752-.127,1.531-.267,2.327-.411,1.915,1.386,2.1,7.509,2.112,9.031a.547.547,0,0,0,1.093,0c-.013-1.736-.144-6.188-1.522-8.681a.542.542,0,0,0,.394.1c3.018-.42,3.595,7.491,4.067,9.459.162.682,1.212.394,1.05-.293-.6-2.537-.988-9.42-4.408-10.12.634-.114,1.268-.219,1.911-.324a.492.492,0,0,0,.516.564c2.685-.083,3.731,8.23,4.211,10.172.166.682,1.22.389,1.05-.293a61.732,61.732,0,0,0-2.1-7.671,5.752,5.752,0,0,0-2.073-3.017c.757-.109,1.509-.2,2.261-.276,2.519,2.034,3.77,6.958,4.124,9.652.088.687,1.181.7,1.093,0-.367-2.8-1.5-7.238-3.792-9.765.936-.066,1.854-.1,2.755-.083,2.628,2.06,4.006,7.242,4.316,9.849.079.691,1.172.7,1.093,0-.319-2.685-1.5-7.141-3.787-9.757a15.976,15.976,0,0,1,3.324.617,15.609,15.609,0,0,1,2.65,9.5c-.031.5.5.625.831.42-.035.3-.031.595-.083.892-.114.691.945.988,1.058.289a17.6,17.6,0,0,0-.608-8.921,10.69,10.69,0,0,1,3.109,6.429c-.4,8.694-3.674,16.347-7.968,23.808a1.641,1.641,0,0,0,2.834,1.653c4.378-7.6,7.649-15.446,8.309-24.2.236-.035.464-.079.7-.118a46.7,46.7,0,0,1,2.025,9.953c.083.691,1.177.7,1.093,0a48.991,48.991,0,0,0-2.025-10.141c.219-.044.446-.066.66-.114,1.85,2.773,2.558,6.057,3.21,9.306.136.7,1.189.4,1.049-.289a31.7,31.7,0,0,0-2.418-8.082c2.7,1.408,2.786,5.523,2.8,8.226a.547.547,0,0,0,1.093,0c-.017-3.459-.315-8.388-4.251-9.569.844-.223,1.688-.433,2.51-.708a8.3,8.3,0,0,1,4.295,7.364.547.547,0,0,0,1.093,0,9.567,9.567,0,0,0-4.006-7.885c.206-.074.407-.157.612-.236.017,0,.031,0,.052,0,.525-.083,1.1-.171,1.7-.254,2.09,1.391,3.59,4.063,4.636,6.092.319.63,1.264.074.936-.551a19.341,19.341,0,0,0-4.072-5.725c.5-.052,1.01-.1,1.522-.127a9.971,9.971,0,0,1,5.2,7.006c.162.687,1.211.394,1.058-.293a11.832,11.832,0,0,0-4.15-6.743c3.91.157,7.181,1.649,6,7.054-1.054,4.846-3.162,9.3-5.3,13.745-2.913,6.044-5.147,11.9-4.115,18.626a53.9,53.9,0,0,1-50.756,6.009C451.338,248.282,445.631,241.853,440.374,235.079Zm56.4,23.454a50.591,50.591,0,0,1,3.276,4.448,23.836,23.836,0,0,0-3.866-4.211C496.382,258.69,496.579,258.607,496.776,258.533Zm-4.194,1.806c-.074-.092-.171-.175-.241-.271l.061-.022ZM486.31,261.5c13.33,15.009,24.259,34.676,28.094,54.806C503.83,298.229,494,279.721,482.733,262.049,483.932,261.9,485.121,261.721,486.31,261.5ZM476,262.46c-5.432,12.136-9.669,25.352-16.29,36.958,1.71-13.316,4.242-26.554,13.347-37.011C474.044,262.456,475.023,262.46,476,262.46ZM459.4,260.1c.017-.039,0-.074,0-.118.219.066.437.127.66.192-.048.039-.109.044-.14.105a28.177,28.177,0,0,0-1.5,3.162l-.14-.175C458.632,262.2,458.956,261.131,459.4,260.1Zm-1.872,2.112-.022-.048c.2-.857.424-1.706.669-2.554.079.026.158.057.236.083C458.068,260.514,457.792,261.362,457.526,262.211Zm-.385-2.983c-.109.376-.2.752-.3,1.133.018-.407.039-.818.044-1.225C456.97,259.163,457.054,259.2,457.141,259.228Zm-16.715,19,.031-.035.1-.114c-.188,1.972-.328,3.949-.367,5.934Q440.221,281.112,440.426,278.226Zm-9.009,16.951a.547.547,0,0,0,1.093,0,60.37,60.37,0,0,0-.486-6.284c.271-.354.542-.717.818-1.076a37.053,37.053,0,0,1,.394,5.537.547.547,0,0,0,1.093,0,34.228,34.228,0,0,0-.573-6.73c.372-.481.757-.94,1.128-1.417q.177,2.795.175,5.6a.547.547,0,0,0,1.093,0c0-2.292-.057-4.574-.275-6.853.249-.315.5-.621.743-.936.109,2.23.245,4.461.263,6.7a.547.547,0,0,0,1.093,0c-.022-2.676-.223-5.335-.311-8.007.525-.669,1.054-1.325,1.579-1.99-.122,2.48-.175,4.959-.175,7.443a.547.547,0,0,0,1.093,0c0-.831.018-1.662.022-2.493a.538.538,0,0,0,1.072-.057c.026-2.637.262-5.257.529-7.876.21-.227.415-.451.621-.678.026,1.754-.044,3.512-.057,5.274a.547.547,0,0,0,1.093,0c.018-2.147.1-4.286,0-6.416.245-.267.481-.542.726-.814v8.322a.547.547,0,0,0,1.093,0v-9.569c.367-.415.73-.826,1.093-1.242v6.8a.547.547,0,0,0,1.094,0v-8.073c.275-.328.538-.673.813-1a33.863,33.863,0,0,1-.428,6.018c-.122.687.936.984,1.058.289a40.43,40.43,0,0,0,.442-7.622c.516-.634,1.041-1.264,1.548-1.907-.14,1.789-.153,3.586-.153,5.375a.547.547,0,0,0,1.093,0,48.59,48.59,0,0,1,.311-6.914c1.089-1.408,2.138-2.856,3.188-4.294.153-.175.3-.363.451-.534,0,.057,0,.118,0,.175a.434.434,0,0,0-.28.595c.066.175.171.324.245.494a21.686,21.686,0,0,1-.612,4.137.52.52,0,0,0,.4.656.537.537,0,0,0,1.023,0c.066-.2.1-.407.157-.608.214.311.678.442.875.009.114-.236.171-.49.271-.735.039.044.07.1.105.14-.214.547-.429,1.089-.647,1.631-.258.656.8.94,1.058.289l.512-1.286a.527.527,0,0,0,.3-.761,30.865,30.865,0,0,1,1.679-3.652.474.474,0,0,0,.048-.407c.153.039.3.087.459.131a25.745,25.745,0,0,1-2.178,4.828.547.547,0,0,0,.945.551,27.263,27.263,0,0,0,2.292-5.1c.328.079.66.144.988.219a21.067,21.067,0,0,0-2.825,5.187c-.175.494.359.77.743.616a.539.539,0,0,0,.988.171c.979-1.7,1.789-3.494,2.913-5.1a.415.415,0,0,0,.035-.464c.437.079.87.149,1.3.223a14.113,14.113,0,0,1-1.916,3.7c-.411.577.538,1.124.944.551a14.758,14.758,0,0,0,2.077-4.085c.507.074,1.015.166,1.531.227-9.932,12.731-11.742,28.724-13.658,44.472-.218,1.78,2.226,2.007,3.057.831,9.341-13.3,14.051-29.808,20.786-44.515,12.988,20.27,23.948,41.734,36.407,62.332.792,1.308,3.21.87,3.052-.826-2.121-23.113-13.854-46.125-28.938-63.648.424-.105.848-.206,1.268-.319v.516a.54.54,0,0,0,.861.42c1.19,1.356,2.541,2.563,3.674,3.98.438.551,1.2-.232.77-.774-.28-.35-.612-.652-.919-.975a.519.519,0,0,0,.192-.848,17.03,17.03,0,0,1-1.776-2.2,11.362,11.362,0,0,1,4.2,4.679c.324.625,1.268.074.936-.551a12.075,12.075,0,0,0-4.815-5.217c.21-.07.416-.127.621-.2a20.271,20.271,0,0,1,4.435,4.627c.424.538,1.146-.184.783-.726.442.682.936,1.338,1.321,2.068.324.625,1.268.074.936-.551a38.706,38.706,0,0,0-4.575-6.538l.188-.074c2.545,1.749,4.247,4.461,5.637,7.163.319.63,1.264.074.936-.551a20.767,20.767,0,0,0-5.423-7.093c.1-.044.188-.088.28-.131,2,2.383,4.793,4.063,5.606,7.281a.544.544,0,0,0,1.05-.289c-.835-3.341-3.586-5.025-5.654-7.47.179-.083.358-.171.538-.254,3.179,1.605,4.776,4.78,5.886,8.012.232.665,1.29.38,1.058-.289-1.128-3.271-2.8-6.446-5.8-8.265.219-.109.429-.232.638-.346,2.7,2.379,4.522,5.6,6.354,8.663a.543.543,0,0,0,.936-.551c-1.837-3.074-3.665-6.228-6.289-8.672.372-.2.739-.4,1.106-.612,1.854,2.829,4.229,5.292,5.7,8.379.306.639,1.247.083.945-.551-.144-.3-.332-.569-.494-.857a.51.51,0,0,0,.888-.267c.21.254.415.507.63.761a24.248,24.248,0,0,1-2.327,4.736c-.385.595.56,1.146.936.551a27.47,27.47,0,0,0,1.434-2.558,16.734,16.734,0,0,1-2.37,6.018c-.385.595.56,1.146.936.551a17.116,17.116,0,0,0,2.689-7.824c.105.114.206.232.315.35.206.315.38.652.586.962a16.331,16.331,0,0,1-2.707,9.967c-.415.573.534,1.12.936.551a16.521,16.521,0,0,0,2.816-9.022c.227.337.468.669.7,1.006a19.264,19.264,0,0,1-2.633,8.926c-.337.621.612,1.172.945.551a22.4,22.4,0,0,0,2.707-8.021c.367.516.721,1.05,1.093,1.561-.735,3.577-2.519,7.006-3.7,10.413-.236.665.818.953,1.049.289,1.1-3.136,2.668-6.271,3.512-9.525.236.311.481.612.717.923a20.941,20.941,0,0,1-4.408,10.26c-.433.547.337,1.325.77.774a22.542,22.542,0,0,0,4.526-9.892c.223.289.45.577.673.866-.761,3.8-1.9,7.6-4.517,10.439-.472.52.3,1.29.779.774,2.567-2.8,3.8-6.4,4.609-10.1.429.547.844,1.106,1.281,1.649a22.3,22.3,0,0,1-4.841,9.862c-.455.529.31,1.308.77.774a23.714,23.714,0,0,0,4.924-9.617c.171.206.341.407.512.612-1.386,4.028-2.768,8.034-5.2,11.62-.4.586.547,1.133.936.551a46.454,46.454,0,0,0,5.073-11.2c19.01,22.771,42.049,42.744,43.435,74.852.779,17.957-5.152,35.891-15.175,50.642-12.442,18.306-31.776,27.027-52.951,30.744-36.936,6.49-80.717-6.892-101.214-39.062,2.729.652,5.4,2,7.972,2.878.669.227.953-.831.289-1.058-2.926-1-5.93-2.493-9.035-3.044-.411-.678-.879-1.308-1.273-2.007a26.74,26.74,0,0,1,4.784,2.042.546.546,0,0,0,.547-.945,35.361,35.361,0,0,0-6.074-2.519c-.328-.608-.595-1.255-.905-1.872,3.822,1.7,7.767,3.14,11.532,4.968.634.31,1.189-.63.555-.94-4.185-2.025-8.6-3.564-12.809-5.537-.49-1.028-1.041-2-1.478-3.061,5.187,1.478,9.962,4.29,14.825,6.625.634.3,1.19-.638.555-.945-5.2-2.5-10.273-5.453-15.835-6.91a72.874,72.874,0,0,1-2.541-7.443c-6.127-22.255,7.819-44.126,20.379-61.217,6.306-8.572,12.8-17.3,19.43-25.929C431.251,291.813,431.4,293.488,431.418,295.176Zm-36.456,39.464c5.69-11.956,13.911-22.444,22.868-32.406q-5.51,7.4-10.911,14.76c-7.5,10.2-14.1,21.267-17.532,33.154A83.081,83.081,0,0,1,394.962,334.641Zm-7.758,38c.083.875.162,1.754.293,2.637a48.558,48.558,0,0,0,2.187,8.69c-.118-.017-.236-.039-.359-.052a.416.416,0,0,0-.468.345A66.355,66.355,0,0,1,387.2,372.644Zm16.172,39.6a64.236,64.236,0,0,1-14.406-27.416.544.544,0,0,0,.354.188c.262.022.516.079.778.109.171.464.315.927.5,1.386a.555.555,0,0,0-.105.98c.227.14.472.245.7.376.415.967.848,1.929,1.321,2.873a.53.53,0,0,0,.162.757c.1.061.214.1.315.157,7.006,13.54,19.168,25.207,30.993,33.224,19.741,13.378,44.362,17.414,67.75,15.717,15.844-1.15,30.175-5.65,42.263-13.028C494.589,457.537,435.926,449.049,403.376,412.239Z" transform="translate(-383.503 -193.837)"/><path class="b" d="M401.339,238.33c-.079,7.356,6.083,11.51,12.122,14.607l2.357,1.2.337-30.066-2.108.582C406.394,226.78,401.4,232.146,401.339,238.33Zm11.261,10.4c-5.676-3.289-8.025-6.394-7.981-10.369.048-4.133,3.2-7.841,8.2-9.84Z" transform="translate(-323.34 -91.846)"/><path class="b" d="M422.532,253.014c.765-7.137-4.334-14.209-13.312-18.46l-2.322-1.1-.275,33.254,2.029-.481C416.659,264.362,421.845,259.42,422.532,253.014Zm-12.394-14.274c6.228,3.639,9.683,8.821,9.136,13.924-.477,4.426-3.914,7.994-9.337,9.8Z" transform="translate(-305.515 -60.208)"/><path class="b" d="M406.918,323.394c.59.179,1.758.367,3.936.713,2.7.416,8.759,1.356,10.448,2.213-.031.73-.1,1.6-.166,2.519-.442,5.746-.573,9.945,1.784,11.668,1.084.792,8.37.8,8.681.8,3.341,0,4.2-.271,4.767-.848,1.469-1.5,1.448-5.09.835-12.586-.087-1.128-.171-2.1-.192-2.777a52.808,52.808,0,0,1,6.971-3.416c4.163-1.837,6.779-3.031,7.964-4.111,6.433-5.882,9.158-12.748,7.881-19.85-1.929-10.745-12.4-19.618-22.26-23.913l.315-28.273a42.6,42.6,0,0,1,12.927,4l2.055,1.015.3-2.27c1.386-10.461,1.006-11.047-.516-11.445a38.041,38.041,0,0,0-3.967-.748c-4.251-.673-10.679-1.679-10.644-4.675,0-.319.07-1.019.153-1.907.63-6.73.512-8.733-.564-9.726-.346-.319-1.155-1.067-8.073-1.067-5.589,0-6.162.551-6.573.953-1.924,1.863-1.338,5.117-.722,8.567.6,3.324.962,5.891-.254,6.2-12.2,3.044-20.406,11.13-21.42,21.088-1.015,10,5.353,19.579,16.627,24.993,7.037,3.372,5.816,16.146,4.846,26.41-.245,2.528-.477,4.955-.577,7.124a46.569,46.569,0,0,1-18.044-5.405l-1.6-.9L400.4,311.17c-1.491,3.516-2.392,5.642-1.456,7.679C399.868,320.866,402.252,321.924,406.918,323.394Zm-3.5-10.942.039-.1a50.885,50.885,0,0,0,19.5,5.1l1.727.109.018-1.723c.026-2.453.31-5.44.612-8.607,1.072-11.279,2.405-25.312-6.691-29.677-9.988-4.8-15.656-13.111-14.782-21.7.888-8.676,7.968-15.5,18.949-18.245,4.29-1.067,3.407-6,2.694-9.958-.328-1.828-.813-4.509-.367-5.432a30.53,30.53,0,0,1,4.43-.232,42.038,42.038,0,0,1,5.7.306,50.445,50.445,0,0,1-.328,6.905c-.1,1.015-.162,1.815-.166,2.182-.066,5.821,7.723,7.05,13.417,7.946.94.144,1.815.28,2.563.429-.022.848-.136,2.55-.542,5.873a46.8,46.8,0,0,0-13.762-3.582l-1.793-.192-.376,34.137,1.036.42c9.013,3.647,19.531,12.057,21.3,21.892,1.085,6.022-1.224,11.69-6.866,16.846-.879.8-4.312,2.313-7.071,3.525-6.63,2.921-8.926,4.032-8.939,5.948-.009.691.092,1.977.214,3.516.206,2.523.669,8.226.188,9.792a22.865,22.865,0,0,1-2.523.1c-2.69,0-5.856-.206-6.914-.346-.848-1.224-.455-6.341-.28-8.6.092-1.255.184-2.405.192-3.311.022-2.453-3.127-3.337-13.238-4.916-1.509-.227-3.074-.477-3.464-.595-2.716-.857-5.55-1.854-5.978-2.786C401.587,316.76,402.392,314.853,403.42,312.452Z" transform="translate(-332.711 -109.947)"/></g></g></svg>