<svg xmlns="http://www.w3.org/2000/svg" width="32.364" height="32.364" viewBox="0 0 32.364 32.364"><defs><style>.a{fill:#495e84;}</style></defs><path class="a" d="M11.009,18.507A27.237,27.237,0,0,0,22.858,30.355L26.813,26.4a1.788,1.788,0,0,1,1.834-.432,20.51,20.51,0,0,0,6.419,1.025,1.8,1.8,0,0,1,1.8,1.8v6.275a1.8,1.8,0,0,1-1.8,1.8A30.564,30.564,0,0,1,4.5,6.3,1.8,1.8,0,0,1,6.3,4.5h6.293a1.8,1.8,0,0,1,1.8,1.8,20.426,20.426,0,0,0,1.025,6.419,1.8,1.8,0,0,1-.45,1.834l-3.956,3.956Z" transform="translate(-4.5 -4.5)"/></svg>