<svg xmlns="http://www.w3.org/2000/svg" width="201.862" height="144.188" viewBox="0 0 201.862 144.188"><defs><style>.a{fill:#fff;}.b{fill:#ff5b22;}</style></defs><g transform="translate(-3985.069 -2442)"><rect class="a" width="129" height="116" transform="translate(4026 2455)"/><path class="b" d="M146.758,78.7a6.484,6.484,0,0,0-3.379-6.083L85.7,36.574a6.791,6.791,0,0,0-7.322-.225,6.711,6.711,0,0,0-3.717,6.308v72.094a6.711,6.711,0,0,0,3.717,6.308,7.791,7.791,0,0,0,3.492.9,6.417,6.417,0,0,0,3.83-1.126l57.674-36.047a6.484,6.484,0,0,0,3.379-6.083Zm57.675,0q0,10.814-.112,16.9t-.958,15.376a124.607,124.607,0,0,1-2.535,16.615,26.352,26.352,0,0,1-7.773,13.856,23.753,23.753,0,0,1-13.968,6.534Q154.08,150.8,103.5,150.8t-75.586-2.816a24.011,24.011,0,0,1-14.024-6.534,26.187,26.187,0,0,1-7.829-13.856,139.439,139.439,0,0,1-2.422-16.615Q2.8,101.684,2.683,95.6T2.571,78.7q0-10.814.112-16.9t.957-15.376A124.6,124.6,0,0,1,6.175,29.816,26.352,26.352,0,0,1,13.948,15.96,23.754,23.754,0,0,1,27.916,9.427Q52.923,6.61,103.5,6.61t75.586,2.816a24.01,24.01,0,0,1,14.025,6.534,26.188,26.188,0,0,1,7.829,13.856,139.439,139.439,0,0,1,2.422,16.615q.845,9.293.957,15.376T204.433,78.7Z" transform="translate(3982.498 2435.39)"/></g></svg>