<svg xmlns="http://www.w3.org/2000/svg" width="232.342" height="199.407" viewBox="0 0 232.342 199.407"><defs><style>.a{fill:#063793;}</style></defs><g transform="translate(-351.943 -37.979)"><path class="a" d="M399.312,64.547c6.73-2.327,9.574-8.48,8.065-15.195-2.025-9.015-14.547-14.768-22.107-8.957a1.132,1.132,0,0,0-.287.326c-5.912,4.682-9.81,13.6-4.135,20.04C385.44,65.959,393.02,66.719,399.312,64.547Zm-6.052-1.1c.512-.407,1-.842,1.486-1.272a1.182,1.182,0,0,0,1.063.981A15.494,15.494,0,0,1,393.26,63.445Zm2.824-.349a.818.818,0,0,0,.314-.1c.147-.1.279-.213.427-.31a1.325,1.325,0,0,0,.237.2C396.74,62.984,396.41,63.027,396.084,63.1ZM393.1,54.271c-.372.361-.745.718-1.125,1.067a63.292,63.292,0,0,1,8.472-8.526A60.912,60.912,0,0,0,393.1,54.271Zm8.585-8.515a1.163,1.163,0,0,0,.454-.846,14.273,14.273,0,0,1,3.173,5.578c-.047.019-.093-.008-.144.019-.24.144-.442.33-.679.477.683-.873-.349-2.269-1.346-1.637a1.2,1.2,0,0,0-1.028-1.043c.241-.217.469-.446.714-.656,1.055-.908-.392-2.359-1.466-1.621C401.472,45.943,401.573,45.842,401.682,45.756Zm-13.8-4.387.047-.047c4.368-2.277,9.38-.811,12.98,2.374a1.09,1.09,0,0,0-.345.144c-.714.477-1.342,1.036-2.013,1.552a1.192,1.192,0,0,0-.733-.9c.314-.834-.741-1.951-1.618-1.342-.082.054-.144.128-.225.186l0-.008c-.33.268-.652.555-.981.83a1.054,1.054,0,0,0-1.556-.547c-.683.493-1.315,1.036-1.967,1.559a1.027,1.027,0,0,0-.062-1.257c.047-.058.1-.112.155-.171a1.112,1.112,0,0,0-1.342-1.738,20.552,20.552,0,0,0-2.188,1.311.946.946,0,0,0-.764-.047A11.387,11.387,0,0,0,383.31,45.7,16,16,0,0,1,387.88,41.369Zm-5.52,17.262c.019-.012.035-.035.058-.05a1.042,1.042,0,0,0,1.544,1.137,1.069,1.069,0,0,0,1.559.923,1.242,1.242,0,0,0,1.672.753c.5-.241.962-.531,1.432-.807a1.058,1.058,0,0,0,1.346,1.307,1.085,1.085,0,0,0,1.183.714.925.925,0,0,0,.078.842,15.757,15.757,0,0,1-6.327-2.04,9.308,9.308,0,0,1-2.983-2.7A.885.885,0,0,0,382.36,58.631Zm-1.881-6.044c.093-.047.194-.031.275-.109.109-.1.21-.2.318-.3-.213.279-.415.559-.621.842C380.463,52.875,380.459,52.731,380.478,52.588Z" transform="translate(75.256 0.211)"/><path class="a" d="M376.648,82.431a.987.987,0,0,0,.822.4c15.245,0,30.517.182,45.762-.229a.961.961,0,0,0,.586-.268c.047-.027.093-.027.132-.062a1.05,1.05,0,0,0,.237-.473c.039-.109.143-.171.151-.306.958-15.621-6.164-34.168-23.9-34.85-17.871-.687-24.765,20.544-24.532,34.85A.962.962,0,0,0,376.648,82.431Zm18.123-1.788v0l.1,0Zm.062-.787-.376.012a2.918,2.918,0,0,1-.054-.287c.334,0,.667.047,1,.054C395.241,79.7,395.047,79.774,394.834,79.855Zm5.485.791c-.372,0-.745,0-1.117,0,.5-.016,1-.031,1.493-.062C400.571,80.6,400.443,80.627,400.319,80.647Zm-1.773-.411c.275-.039.559-.07.834-.112.3,0,.605,0,.9.008.051.008.1.012.151.019C399.8,80.185,399.174,80.216,398.546,80.236Zm4.934.411.035-.012.078.012Zm.252-.71c-.586-.012-1.172-.027-1.753-.043.776-.054,1.552-.1,2.339-.151.132-.008.295,0,.442,0l-.764.175Zm5.8-22.608.365-.206c0,.062-.012.12-.012.178-.136.066-.264.14-.4.206Zm-.019-2.824a3.549,3.549,0,0,1,.109-.473c.151-.1.3-.206.458-.306l-.147.617C409.792,54.4,409.652,54.447,409.512,54.505Zm.295,5.431c0,.12,0,.237-.008.349-.706.326-1.408.656-2.079,1.036C408.4,60.836,409.1,60.382,409.807,59.936Zm-.272,19.225c-.283,0-.555,0-.819,0l.1-.031.279-.031Zm-1.113-3.848c-.206.178-.392.376-.6.559a.153.153,0,0,0,.074-.264C408.069,75.507,408.252,75.414,408.422,75.313Zm.838-17.689-.1.05.008-.14.12-.066Zm-.159-2.96c-.334.136-.683.244-1.008.392.368-.244.737-.485,1.094-.737C409.163,54.435,409.124,54.548,409.1,54.664Zm-.372,3.115a1.185,1.185,0,0,1-.008.12c-.834.434-1.7.807-2.506,1.292C407.034,58.683,407.895,58.26,408.729,57.779ZM407.193,76c.2-.027.4-.074.6-.1-.407.369-.826.725-1.214,1.137a.988.988,0,0,0-.178.419c-.95.047-1.9.093-2.855.147a1.058,1.058,0,0,0,.279-.144,1.039,1.039,0,0,0,.877-.066C405.552,76.946,406.37,76.469,407.193,76Zm-2.956,2.134,2.192.128.012.035c-.458-.008-.915-.019-1.373-.031a1.825,1.825,0,0,0-.295.012c-.477-.023-.954-.05-1.435-.062C403.635,78.184,403.938,78.16,404.237,78.133Zm-.112.64c.656-.023,1.311-.062,1.971-.081-.174.023-.349.043-.524.07Zm.629.512a.119.119,0,0,0-.012.1c-.345.012-.694.023-1.044.039l.14-.023C404.144,79.347,404.45,79.336,404.753,79.285Zm7.339,1.257c-2.277.023-4.546.078-6.823.089-.365-.07-.729-.128-1.09-.2.167-.054.334-.1.5-.155.458-.043.919-.081,1.377-.12,1.032,0,2.064,0,3.1-.043a37.135,37.135,0,0,0,3.813.272C412.682,80.449,412.387,80.484,412.092,80.542ZM410.63,59.451c.244-.144.5-.268.749-.4-.019.213-.043.427-.062.64-.287.1-.6.171-.873.287C410.505,59.8,410.564,59.63,410.63,59.451Zm-.008-2.529.008-.206c.147-.078.283-.163.427-.241-.027.085-.05.175-.078.26C410.858,56.79,410.746,56.868,410.622,56.922ZM411.886,76.6a1.247,1.247,0,0,0,1.358.6l.085.05c-.6.008-1.187.047-1.78.066-.151-.016-.485-.023-.931-.023C411.037,77.063,411.464,76.841,411.886,76.6Zm-.341-20.16c.019-.089.031-.178.043-.268l.039-.023c-.008.085-.016.171-.019.256Zm.423,5.993c.272-.175.543-.345.811-.52l-.047.365c-.283.132-.559.279-.838.419C411.914,62.609,411.941,62.531,411.968,62.438Zm-.058-2.944c.008-.248.023-.5.035-.753.054-.027.109-.058.163-.085-.031.264-.066.531-.1.8Zm2.006,2.611a1.182,1.182,0,0,0-.563-.043c.031-.19.07-.38.1-.574.167-.1.326-.206.489-.31C413.938,61.488,413.927,61.8,413.915,62.1Zm.062,14.764a.329.329,0,0,1,.031.2c-.078-.027-.147-.062-.225-.093Zm-.182-12.6-.016.206c-.4.2-.811.372-1.21.57C412.98,64.8,413.384,64.529,413.795,64.273Zm-.873-2.083c.023-.132.039-.264.058-.4l.054-.035c-.023.136-.051.275-.074.411ZM413.209,57a1.373,1.373,0,0,0-.051-.132c.023-.272.078-.594.07-.8C413.236,56.379,413.213,56.693,413.209,57Zm-.019.842c-.023.419-.054.838-.1,1.257-.109.027-.209.078-.318.1.085-.372.159-.737.225-1.086A.948.948,0,0,0,413.19,57.845Zm-1.963,5.062c0,.039,0,.081,0,.12-.291.151-.6.287-.892.442C410.633,63.28,410.936,63.094,411.227,62.907Zm1.99,16.168c-.221.027-.446.05-.671.078-.147,0-.287,0-.434,0-.38-.081-.768-.147-1.152-.217.392-.027.745-.05,1.047-.07.392.016.787.019,1.183.039l.163.008C413.306,78.967,413.263,79.021,413.217,79.076Zm1.04-1.234c-.109.132-.225.264-.334.4-.031-.016-.023-.058-.062-.058-.233,0-.469-.019-.706-.027q.4-.134.768-.256c-.5.089-1.012.155-1.517.229-.179,0-.357-.008-.535-.016.271-.1.559-.167.834-.279a.2.2,0,0,0,.112-.182c.361-.008.722-.027,1.086-.031.093.058.194.124.295.19l.074-.023.016.023Zm-.206-18.7c-.043-.019-.1,0-.151-.019.144-.8.279-1.59.446-2.378A18.085,18.085,0,0,0,414.051,59.141Zm.392,5.024a1.366,1.366,0,0,0,.012-.392.987.987,0,0,0-.035-1.284c.264-2,.714-5.761.733-4.36a44.346,44.346,0,0,1-.477,5.927C414.6,64.091,414.52,64.129,414.443,64.164Zm1.113,2.254-.244.1.248-.171Zm.241-2.894-.016.012,0-.012-.058.039c-.151.062-.287.144-.434.206.1-.725.2-1.447.314-2.172.76-4.923.326.644.221,1.621C415.812,63.292,415.8,63.4,415.8,63.524Zm.632,2.514c-.171.078-.345.147-.512.221l.008-.159c.182-.12.357-.244.539-.369C416.448,65.836,416.441,65.937,416.429,66.038Zm.237,14.442,0,0,.128,0Zm-.171-11.63.012-.078c.1-.062.186-.128.279-.194l-.012.167Q416.64,68.8,416.495,68.85Zm.3-.112h-.008c.012-.058.016-.116.023-.175l.008,0C416.813,68.618,416.8,68.68,416.8,68.738Zm.019-6.583c-.012.419-.062.842-.093,1.265a.881.881,0,0,0-.531,0C416.495,61.236,416.925,58.536,416.817,62.155Zm.229,3.619c-.07.023-.128.058-.2.081.015-.14.035-.279.047-.423.112-.081.143-.217.209-.326C417.088,65.328,417.065,65.549,417.046,65.774Zm.613,2.638c-.1.035-.2.074-.3.112.023-.128.043-.256.062-.384l.291-.2C417.693,68.1,417.678,68.257,417.659,68.412Zm.275-2.638a1.1,1.1,0,0,0-.12-.031,16.784,16.784,0,0,0,.248-2.766A25.929,25.929,0,0,1,417.934,65.774Zm1.144,14.679c-.178-.171-.322-.306-.427-.4a12.541,12.541,0,0,0,1.272.392C419.645,80.445,419.358,80.445,419.078,80.453Zm.826-3.01c-.26-.26-.586-.551-.947-.846a3.025,3.025,0,0,0,.993-.555,10.109,10.109,0,0,0,.023,1.393A.428.428,0,0,1,419.9,77.443Zm-.178-6.56c0-.085,0-.167.008-.252.054-.919.116-1.839.237-2.754,0,1.129-.019,2.258-.051,3.383v.035A1.054,1.054,0,0,0,419.726,70.883Zm1.218,5.978c-.054.047-.1.109-.155.147-.058-.2-.132-.469-.221-.787.008-.019.035-.012.035-.031.008-.066.008-.136.016-.2l.237.019a1.468,1.468,0,0,0,.089.213Zm-.066-4.643c.019-.314.047-.625.066-.939a8.535,8.535,0,0,0,.019.97A.764.764,0,0,0,420.878,72.217Zm1.11,5.194c0-.178-.031-.365-.047-.547a.749.749,0,0,0,.163-.016c.07,1.234.081,2.421.047,3.561-.206.008-.407,0-.613.008l-.008-.023c.008-.012.031-.016.035-.031.039-.14.051-.256.082-.392l.031.147c.043.225.372.159.38-.05A8.173,8.173,0,0,0,421.988,77.412Zm-.438-3.561c-.027-.078-.1-.124-.136-.194a1.189,1.189,0,0,0-.124-1.086c-.031-.838-.085-1.68-.174-2.525.279,1.28.57,2.568.725,3.829Zm-.714-5.272c.082.322.113.644.182.966a.163.163,0,0,0-.19-.027C420.832,69.2,420.843,68.893,420.836,68.579Zm-.481-1.881c.1.357.194.714.287,1.078a.148.148,0,0,0-.174.12c-.062.306-.085.6-.14.9C420.339,68.1,420.351,67.4,420.355,66.7Zm.147,3.666c0,.528-.019,1.055-.043,1.587-.027-.058-.085-.089-.12-.14C420.413,71.349,420.471,70.829,420.5,70.363Zm-.209,9.865c.128.066.264.136.407.2-.155,0-.31,0-.462.008A.143.143,0,0,0,420.293,80.228Zm-.423-15.008c.1.291.194.574.283.865-.074,0-.155.023-.17.112-.089.392-.1.78-.163,1.168C419.835,66.651,419.858,65.933,419.87,65.219Zm-.248-.756c.051.155.1.31.151.462a.125.125,0,0,0-.155-.019C419.617,64.758,419.621,64.614,419.621,64.463Zm-.225,4.306-.012.349a1.271,1.271,0,0,0-.008-.171C419.385,68.889,419.393,68.827,419.4,68.769Zm-.031,1.028c-.008.167,0,.427,0,.714a.613.613,0,0,0-.143-.07c.027-.225.047-.446.07-.667.019-.043.062-.074.078-.12C419.369,69.712,419.369,69.739,419.365,69.8Zm-.124-3.142c-.089.574-.194,1.144-.26,1.718a.892.892,0,0,0-.345-.1c.089-.59.175-1.183.287-1.777C419.408,64.032,419.358,65.258,419.241,66.655Zm-.539-2.824c.039-.462.1-.919.128-1.377.147.357.318.7.458,1.055-.008.016-.031,0-.035.023-.272,1.047-.5,2.091-.71,3.138a1.115,1.115,0,0,0-.082-.31c.113-.842.159-1.68.24-2.521.012-.132.031-.264.047-.4C418.733,63.567,418.714,63.7,418.7,63.831Zm-.295-2.347.1.237c-.043.462-.109.923-.155,1.385C418.388,62.562,418.407,62.023,418.407,61.484Zm-.082,5.97a.716.716,0,0,0,.074-.144c-.054.314-.085.628-.136.943-.019,0-.031-.008-.047,0C418.256,67.981,418.283,67.725,418.326,67.454ZM418.2,61c-.07.012-.143.023-.159.109-.275,1.3-.512,2.584-.733,3.875a33.776,33.776,0,0,0,.38-4.989C417.864,60.328,418.039,60.661,418.2,61Zm-1-1.866c.139.248.283.485.415.737-.089-.116-.275-.151-.306.023-.05.283-.074.562-.124.846C417.2,60.2,417.216,59.672,417.2,59.133Zm.008,4.752a1.253,1.253,0,0,0-.139-.175C417.538,59.734,417.375,61.957,417.212,63.885Zm-.737-6.032c.159.248.291.52.442.772-.031.023-.078.016-.089.058-.194.694-.283,1.385-.434,2.075C416.452,59.793,416.491,58.823,416.475,57.853Zm-.136-.244c-.1-.035-.205-.019-.236.1a38.418,38.418,0,0,0-1.09,6.183l-.054.027c.2-2.483.57-4.93.547-7.444C415.781,56.86,416.084,57.209,416.34,57.609Zm-1.575-2.126c.174.221.337.458.508.683-.054.019-.12.023-.14.093-.209.648-.365,1.3-.512,1.943C414.672,57.3,414.741,56.391,414.765,55.483Zm-5.695-4.015a.917.917,0,0,0,.334-.656,18.345,18.345,0,0,1,5.024,4.221l-.023.012c-.361,1.334-.648,2.677-.9,4.027-.054,0-.093-.027-.143-.016a35.567,35.567,0,0,0,.206-4.686c0-.175-.279-.287-.361-.1a13.236,13.236,0,0,0-.675,2.006.814.814,0,0,0-.493-.019l.012-.341c.082-.043.163-.1.244-.14a1.112,1.112,0,0,0-.857-2.021c-.271.089-.516.209-.784.3,0-.272,0-.524,0-.772a1.1,1.1,0,0,0-1.323-1.722c-.465.252-.939.539-1.408.807C408.31,52.069,408.709,51.77,409.07,51.468Zm-3.131-2.1a14.677,14.677,0,0,1,1.486.531c-1.408.733-2.774,1.528-4.1,2.37.753-.652,1.509-1.311,2.289-1.951A.884.884,0,0,0,405.94,49.369Zm-4.465.26a1.058,1.058,0,0,0,.3-.756,18.15,18.15,0,0,1,2.021.093c-.539.454-1.078.9-1.618,1.35a1.232,1.232,0,0,0-.729-.663Zm.9,28.842c-.9.043-1.792.062-2.692.109.884-.1,1.769-.178,2.653-.272C402.3,78.381,402.324,78.412,402.379,78.471Zm-1.055-4.131c-.322.361-.652.7-.95,1.086a1,1,0,0,0-.116.221c-.1-.019-.143-.089-.256-.085-.256.008-.508.07-.76.093C399.939,75.22,400.633,74.785,401.323,74.339Zm1.443,4.764c0,.027.043.027.054.054-1.032.163-2.064.314-3.1.473l-.461.027c-.229-.031-.462-.066-.694-.089l.12-.062a.192.192,0,0,0-.1-.357c-.7.05-1.4.132-2.095.217-.78-.043-1.579,0-2.366.012,1.633-.151,3.425-.291,4.4-.361Q400.66,79.1,402.766,79.1Zm-7.479-3.324c.268-.151.528-.306.791-.458a.98.98,0,0,0,0,.846c-.679.155-1.361.295-2.044.45C394.457,76.357,394.876,76.073,395.287,75.779Zm-1.5,4.864h-.95l.043-.016c.287,0,.578,0,.865-.008ZM392.2,59.269a1.1,1.1,0,0,0,.345.225l-.039.047a1.122,1.122,0,0,0-.45-.054C392.1,59.416,392.149,59.343,392.2,59.269Zm.725,8.748c-.186.244-.368.493-.551.737a1.19,1.19,0,0,0-.446.05C392.254,68.54,392.588,68.28,392.921,68.016Zm-.337,12.6-.113.027h-.357l-.019-.031c-.062-.016-.132-.023-.2-.039C392.126,80.581,392.355,80.6,392.584,80.612Zm-5.167-12.743.016.027c-.07.062-.136.128-.205.186C387.289,68.012,387.351,67.939,387.417,67.869Zm-.69,11.983.082.012a12.712,12.712,0,0,0,1.334.113c-.12.066-.229.124-.318.171a.136.136,0,0,0-.078.175l-.12.047c-.128.043-.128.171-.078.268-.749,0-1.493,0-2.242,0C385.791,80.391,386.253,80.112,386.726,79.852Zm-4.1.764c.1-.07.2-.144.306-.213a1.448,1.448,0,0,0,.07.229c-.147,0-.295,0-.442,0C382.587,80.616,382.607,80.627,382.63,80.616Zm-1.354-.233a1.179,1.179,0,0,0,.388.244h-.621Z" transform="translate(68.981 24.908)"/><path class="a" d="M375.679,64.473c6.742-2.327,9.585-8.48,8.069-15.191-2.033-9.015-14.531-14.768-22.1-8.965a1.24,1.24,0,0,0-.26.3c-5.931,4.682-9.841,13.62-4.158,20.067C361.811,65.882,369.4,66.646,375.679,64.473Zm-8.282-1.14c.314-.194.625-.392.935-.594a.786.786,0,0,0,.066.632C368.064,63.356,367.731,63.372,367.4,63.333Zm3.7,0c.217-.1.427-.206.644-.314a.822.822,0,0,0,.039.163C371.552,63.22,371.335,63.306,371.1,63.333Zm9.721-13.546c.074-.058.151-.109.225-.167a1.031,1.031,0,0,0,.264-.295c.12.318.229.64.33.966a1.2,1.2,0,0,0-1.125-.279c.078-.062.159-.113.237-.175l.078-.039ZM380.66,47.9a1.265,1.265,0,0,0-.493-.109,1.08,1.08,0,0,0-.043-.8C380.315,47.289,380.5,47.591,380.66,47.9Zm-.966-1.594c.124.175.225.361.342.539a1.051,1.051,0,0,0-.531-.427Zm1.9,8.243c1.036-.78.213-2.428-.842-2.037.3-.248.617-.485.911-.745a.854.854,0,0,0,.221-.442c.058.268.128.531.163.8a8.3,8.3,0,0,1-.407,3.891,1.024,1.024,0,0,0-1.47-.473c-.357.213-.706.434-1.059.648C379.954,55.656,380.8,55.117,381.6,54.551Zm-3.348-9.985c-.171.085-.338.178-.5.264a1.248,1.248,0,0,0-.171-.95C377.8,44.1,378.026,44.333,378.247,44.566Zm-7.273-4.182a13.751,13.751,0,0,1,6.141,3.1.931.931,0,0,0-.931.109c-3.266,2.2-6.629,4.232-9.973,6.3,2.692-2.075,5.656-3.852,8.488-5.613a1.108,1.108,0,0,0-1.117-1.912c-.8.446-1.606.877-2.413,1.315.151-.113.31-.209.462-.322a1.123,1.123,0,0,0-.76-2.048A.923.923,0,0,0,370.974,40.384Zm-4.178.807a.941.941,0,0,0,.322-.892,9.621,9.621,0,0,1,1.761-.155c-1.6,1.09-3.2,2.176-4.826,3.212A34.007,34.007,0,0,0,366.8,41.191Zm-9.077,8.022c.043-.008.085,0,.128-.016-.078.078-.147.159-.221.233C357.653,49.356,357.692,49.287,357.719,49.213Zm-.434,6.393c.438-.438.935-.784,1.389-1.191-.221.31-.462.6-.667.923a1.094,1.094,0,0,0,1.125,1.6c-.361.83.566,1.528,1.377,1.334-.12.147-.248.283-.361.431-.733.966.632,1.963,1.517,1.517a18.616,18.616,0,0,0,2.809-1.8c-.058.1-.128.182-.182.283a1.2,1.2,0,0,0,.314,1.416c-.062.64.609,1.1,1.28,1.055-.388.442-.784.877-1.137,1.365-.05.074-.027.151-.054.225a15.378,15.378,0,0,1-3.414-1.428,8.5,8.5,0,0,1-4.267-5.621C357.106,55.672,357.207,55.683,357.284,55.606Z" transform="translate(7.244 0.001)"/><path class="a" d="M353.024,82.361a1,1,0,0,0,.83.4c15.245,0,30.51.182,45.755-.229a.971.971,0,0,0,.547-.252,1.245,1.245,0,0,0,.178-.081,1.035,1.035,0,0,0,.225-.458c.043-.116.147-.178.155-.318.958-15.625-6.168-34.168-23.9-34.854-17.864-.69-24.772,20.548-24.536,34.854A.962.962,0,0,0,353.024,82.361ZM382.836,57.57c.318-.225.64-.454.954-.683a1.652,1.652,0,0,1,.163.043C383.584,57.147,383.208,57.349,382.836,57.57Zm-.78-5.217.019-.035c.458.167.919.322,1.393.458-.012.078-.015.14-.031.221-.128-.027-.244-.05-.365-.074C382.816,52.779,382.467,52.581,382.056,52.352Zm.136.725c-.023,0-.047.019-.07.019-.07-.027-.136-.066-.2-.093C382.006,53.035,382.106,53.05,382.192,53.078Zm1.028-1.707a1.263,1.263,0,0,1,.291.667c-.124-.054-.248-.109-.38-.159l-.012-.016c-.345-.295-.605-.535-.853-.768C382.576,51.2,382.9,51.281,383.22,51.371Zm1.5,2.285a9.621,9.621,0,0,0,.322.993c-.628-.3-1.245-.6-1.866-.881l-.225-.128a1.546,1.546,0,0,0-.081-.182c.481.085.946.19,1.451.256-.209-.027-.423-.12-.636-.167A10.184,10.184,0,0,0,384.721,53.656Zm-.427-2.021c.031.008.07.008.1.016a.193.193,0,0,1-.1-.008Zm-.954,2.859c-.109.081-.225.159-.33.237a1.043,1.043,0,0,0,.058-.345C383.154,54.424,383.251,54.459,383.34,54.493Zm.19-2.068c-.027-.035-.054-.07-.078-.1l.089.031Zm-.124-1.35c.225.1.43.206.59.295l.035.047C383.836,51.281,383.608,51.2,383.406,51.076Zm-.473,1.152c-.229-.093-.465-.2-.722-.306v-.043c.2.066.4.136.59.2C382.847,52.127,382.886,52.181,382.933,52.228Zm-.636-.7-.1-.043a1.069,1.069,0,0,0-.047-.116C382.2,51.425,382.25,51.475,382.3,51.53Zm.136,1.614c.268.093.524.209.8.283-.205-.058-.407-.093-.609-.163a1.06,1.06,0,0,0-.21-.124Zm2.1,3.452c-.082-.027-.155-.047-.237-.074l.155-.109c.027.058.054.124.085.182Zm.345,23.95c.384-.19.76-.392,1.137-.594a1.022,1.022,0,0,0,.256.586C385.811,80.542,385.345,80.542,384.88,80.546Zm.5-26.82c.143.008.283.047.427.047a1.588,1.588,0,0,1-.407,0Zm.8,1.152c.015.05.047.1.062.155-.1-.027-.194-.07-.295-.1-.128-.256-.24-.516-.365-.776a9.576,9.576,0,0,0,1.5.625l.031.027c.051.194.124.38.182.574-.182-.07-.372-.124-.555-.186-.07-.155-.14-.322-.213-.473C386.428,54.528,386.1,54.672,386.172,54.877Zm.582-1.459a1.96,1.96,0,0,1-.268.14c-.027-.062-.043-.136-.132-.14-.058,0-.128-.012-.19-.016-.035-.043-.085-.07-.12-.112a1.245,1.245,0,0,1,.244-.539C386.443,52.981,386.6,53.229,386.754,53.419Zm-.047-1.191.027-.031c.047.031.085.074.128.1C386.812,52.278,386.761,52.251,386.707,52.228Zm-.229,8.441c.33-.213.644-.473.97-.7l.2.167C387.254,60.308,386.874,60.5,386.478,60.669Zm1.09-3.6c-.023-.054-.05-.109-.074-.159.05-.062.1-.116.151-.175.027.081.047.151.078.248C387.669,57.011,387.619,57.034,387.568,57.065Zm.209,2.665.047-.035.066.12ZM389,61.945l.035.062c-.349.159-.714.3-1.059.465C388.317,62.3,388.654,62.112,389,61.945Zm-.539-2.708.031-.023c.074.206.139.407.221.609l-.012,0Zm1.4-1.823c-.07-.019-.12-.047-.19-.07a1.239,1.239,0,0,0-.194-.3c.1.043.2.093.3.136Zm-.031-.206c.027.078.066.151.089.229l0,0C389.9,57.368,389.857,57.275,389.834,57.209Zm-.8-.594-.019-.039C389.775,56.984,389.787,57,389.038,56.615Zm.663,2.533.039.081c.3.741.613,1.49.861,2.087l-.469.209c-.12-.089-.233-.186-.361-.275-.043-.113-.089-.221-.14-.334a1.335,1.335,0,0,0-.314-.749c-.159-.4-.353-.787-.5-1.191.066-.047.128-.085.19-.136C389.24,58.939,389.469,59.044,389.7,59.148ZM391.331,61c-.178-.434-.365-.888-.528-1.3.023.016.035.035.062.05.163.415.33.826.5,1.234Zm.167,2.421.023.054c-.194.085-.388.175-.582.26l-.023-.031C391.11,63.606,391.3,63.516,391.5,63.419Zm-.376-2.327-.074.027c-.1-.213-.19-.434-.3-.652-.151-.361-.31-.71-.465-1.067.1.047.2.089.3.136C390.772,60.052,390.932,60.576,391.122,61.092Zm-.423-3.324c-.054-.031-.093-.074-.151-.1-.027-.058-.047-.116-.074-.178.078.035.155.074.237.1C390.707,57.651,390.707,57.709,390.7,57.767Zm-.5-.943-.159-.392c.046-.016.085-.023.109-.074a7.4,7.4,0,0,0,.527.582l.019.171C390.528,57.015,390.365,56.918,390.2,56.825Zm-.124,7.293c-.07.035-.143.062-.213.1.07-.035.14-.066.209-.1Zm-1.8,16.409a24.569,24.569,0,0,0,2.355-.9,1.05,1.05,0,0,0,1.226.206c.124-.05.233-.124.353-.178a1.072,1.072,0,0,0,1.489.481c.322-.144.636-.306.954-.454a1.228,1.228,0,0,0,1.175.5,1.268,1.268,0,0,0,.093.209C393.371,80.441,390.823,80.5,388.274,80.526Zm4.368-12.84.035.062c-.244.112-.489.229-.729.345C392.177,67.958,392.409,67.83,392.642,67.686Zm-.473-4.589.039-.019.035.078-.043.019Zm.415-2.649v0l-.058.031c-.2.081-.38.171-.578.252-.074-.155-.14-.306-.213-.458l.1.054a.193.193,0,0,0,.291-.163c0-.078-.027-.14-.035-.213.008-.027.039-.047.027-.081-.023-.062-.043-.1-.066-.163a9.58,9.58,0,0,0-.4-1.9c.144.116.264.233.419.345.016.008.023-.008.039,0,.21.745.415,1.493.625,2.242Zm.43,2.642-.147-.334c.144-.066.283-.14.43-.206l.008.039c.039.275.089.551.136.826A1.018,1.018,0,0,0,393.015,63.09Zm.287,4.484-.085.016c-.012-.074-.035-.14-.047-.213l.039-.019C393.24,67.427,393.271,67.5,393.3,67.574Zm1.245.555c.062.221.124.442.2.663-.07.019-.14.047-.206.066a1.139,1.139,0,0,0-.722-1.214c-.054-.178-.12-.361-.182-.539.116-.062.225-.136.334-.194C394.163,67.314,394.349,67.725,394.547,68.129Zm-.4-4.356c.353.857.811,1.924,1.222,2.894.1.663.2,1.331.337,1.986l-.035,0a11.832,11.832,0,0,0-.477-1.245C394.842,66.193,394.5,64.983,394.147,63.772Zm1.423,8.728a1.22,1.22,0,0,0-.659-.954c.225-.167.454-.345.683-.508l.019.05c.112.415.217.834.326,1.253C395.819,72.392,395.7,72.45,395.571,72.5Zm.516-3.759c-.07-.3-.136-.562-.19-.776.078.19.151.38.206.531.043.12.082.24.116.365A.792.792,0,0,0,396.087,68.742Zm.566,3.561c-.047-.182-.1-.361-.14-.543.054.182.132.361.186.543Zm-.178-2.029.027-.047.027.14c.016.116.027.194.047.3C396.541,70.538,396.51,70.41,396.475,70.274Zm2.079,8.41h0c.008.566-.008,1.109-.027,1.656-.12,0-.244,0-.368,0a.989.989,0,0,0-.112-1.16l.24-.12-.365-.365c.209-.012.419-.019.624-.027Zm-.256-4.05,0,.027-.008-.019Zm-.493-3.406c.143.807.268,1.614.365,2.413-.1-.326-.206-.648-.314-.974-.043-.268-.089-.539-.144-.807C397.743,71.659,397.774,71.445,397.805,71.228Zm-.062,4.279c.043.349.082.7.12,1.051-.081-.233-.178-.52-.271-.826A1.138,1.138,0,0,0,397.743,75.507Zm-.147,1.051c-.027-.016-.027-.047-.054-.062.008-.043-.016-.078-.012-.12Zm-.256-2.436c-.023-.016-.039-.043-.066-.054l-.012-.178C397.289,73.967,397.313,74.044,397.34,74.122Zm-.155-1.431-.027-.027c-.023-.229-.066-.45-.093-.679C397.1,72.217,397.146,72.466,397.185,72.691Zm-.477-6.145a.175.175,0,0,0-.12.159c.027.59.132,1.133.19,1.7q-.32-1.408-.741-2.785c-.163-.846-.337-1.7-.512-2.545C395.97,64.207,396.366,65.371,396.707,66.546Zm-1.486-2.161c.116.481.291,1.23.473,2.044-.085-.225-.175-.446-.264-.667-.171-.838-.272-1.362-.322-1.641C395.148,64.211,395.187,64.3,395.222,64.385Zm-.109.566c-.368-.927-.772-1.85-1.183-2.766a.777.777,0,0,0,.2-.268c.291.582.617,1.327.915,2.04C395.071,64.288,395.078,64.626,395.113,64.952Zm-.136-3.189c-.035.031-.089.039-.085.093.008.233.035.454.047.687a23.757,23.757,0,0,0-1.629-3.208c-.093-.155-.373-.1-.357.1.008.1.023.194.031.291-.287-1-.586-2-.865-3.01a.194.194,0,0,0-.372.1c.016.05.031.1.043.155a14.1,14.1,0,0,0-2.2-2.859l-.039-.054a7.312,7.312,0,0,0-.407-.861A25.841,25.841,0,0,1,394.977,61.763Zm-5.524-5.539c.023.07.05.14.078.209-.248-.136-.5-.248-.745-.376l-.1-.221C388.938,55.968,389.19,56.1,389.453,56.224Zm-.853.5a1.071,1.071,0,0,0-.469.039l-.023.016c-.043-.128-.082-.26-.124-.392.19.093.388.171.582.256Zm-.178-.423c-.085-.043-.175-.089-.272-.136l.031-.035.217.116Zm-.221-.524c-.155-.074-.314-.163-.473-.233-.035-.113-.074-.225-.1-.341.163.113.31.237.485.341C388.135,55.618,388.169,55.7,388.2,55.774Zm-2.355-5.016.05.027,2.064,1.385c-.093.128-.182.221-.276.33a9.045,9.045,0,0,0-1.443-.888c-.023-.047-.023-.1-.074-.124-.392-.144-.772-.272-1.156-.4-.446-.306-.888-.617-1.35-.908C384.795,50.467,385.745,50.727,385.846,50.758Zm-3.476-.9c.186.093.38.194.57.31.213.132.411.291.628.427-.7-.221-1.4-.423-2.091-.586-.1-.047-.2-.078-.3-.12-.081-.144-.116-.248-.089-.314C381.474,49.656,381.912,49.753,382.37,49.862Zm-4.112,1.889c-.334.209-.656.411-.943.566l-.008-.016c-.019-.027-.05,0-.078-.016.194-.178.407-.349.6-.531.116-.112.116-.244.171-.372.291.213.59.407.881.613l-.128.085c-.082-.019-.155-.05-.229-.074A.192.192,0,0,0,378.258,51.751Zm.089.609-.093.062.051-.078ZM377.7,55.68l-.062.039.054-.039Zm.423-4.771-.019-.054.047.031c.07.058.136.12.206.175Zm.648.512c.05.039.1.085.143.12-.345-.229-.613-.407-.752-.508h0C378.351,51.169,378.572,51.289,378.77,51.421Zm2.157,1.874c.089.058.186.1.279.159-.9.582-1.808,1.156-2.715,1.722l-.093-.016Zm-1.691-2.878c-.163-.264.023-.411.8-.357.376.209.76.384,1.137.555a1.1,1.1,0,0,0-.543.167l-.112.081C380.089,50.707,379.659,50.564,379.236,50.416Zm1.633-.881c.058.1.109.206.167.3-.353-.151-.718-.283-1.079-.423A6.046,6.046,0,0,1,380.869,49.536Zm-1.024-.683c-.423-.019-.846-.043-1.249-.039-.031,0-.035.035-.062.05l-.194-.07C378.848,48.8,379.36,48.8,379.845,48.853Zm-.648.722.081.05c-.508-.054-1.04-.05-1.571-.054C376.652,48.892,376.637,48.624,379.2,49.575Zm-3.433.826a1.114,1.114,0,0,0,.341-1.513,2.172,2.172,0,0,0,.229-.035c.264.241.524.477.8.694-.081,0-.155-.012-.233-.008-.151.008-.279.217-.136.33.043.035.085.062.128.1a.482.482,0,0,0-.128.016l-.252-.171c-.2-.144-.361.155-.2.31-.291.171-.566.349-.857.512C375.558,50.56,375.667,50.479,375.764,50.4Zm1.11,2.712c-.016.074-.027.147-.039.221a1.287,1.287,0,0,1-.656-.027A1.2,1.2,0,0,1,376.874,53.112Zm-2.685,1.866a.205.205,0,0,0,.144.012c.264-.112.652-.306,1.043-.489-1.1.846-2.192,1.7-3.262,2.584-1.28.954-2.56,1.9-3.829,2.867C370.267,58.276,372.253,56.631,374.189,54.978Zm-7.413-2.894a79.852,79.852,0,0,0-6.4,6.459A22.38,22.38,0,0,1,366.776,52.084Zm-7.886,8.965a1.258,1.258,0,0,0,.594.768c-.733.83-1.439,1.672-2.1,2.545A33.284,33.284,0,0,1,358.89,61.049Zm-2.246,5.384a1.165,1.165,0,0,0,1.684.213,33.521,33.521,0,0,0-2.475,3.39A.966.966,0,0,0,356.1,71.4c-.213.295-.462.547-.663.853l-.012.012v0c-.054.081-.12.14-.175.225-.027.039-.019.081-.039.12A42.936,42.936,0,0,1,356.644,66.433Zm-1.517,6.707a1.187,1.187,0,0,0,.787.9c-.376.45-.776.884-1.137,1.342C354.855,74.634,355.007,73.889,355.127,73.141Zm-.462,3.48a1.221,1.221,0,0,0,.8.613c-.175.217-.368.4-.535.621-.687.9.624,2.091,1.513,1.517.5-.326.974-.687,1.459-1.036a.927.927,0,0,0,1.144.116c2.056-1.365,4.011-2.855,5.958-4.356-1.133,1.125-2.246,2.254-3.309,3.383A1.108,1.108,0,0,0,362,79.192a1.118,1.118,0,0,0,1.652.791c1.552-1.094,3.076-2.161,4.589-3.208-.485.446-1.024.869-1.494,1.319a1.113,1.113,0,0,0,1.346,1.738c.7-.431,1.393-.881,2.087-1.315a1.049,1.049,0,0,0,1.6,1.009c1.439-.815,2.847-1.656,4.252-2.494-.481.4-.981.815-1.455,1.214-.826.687.046,2.277,1.074,1.85a22.441,22.441,0,0,0,3.716-2.04.948.948,0,0,0,1.455.4c.116-.085.237-.159.353-.241a1.148,1.148,0,0,0,1.637,1.16l.008,0a1.034,1.034,0,0,0-.031,1.191c-9.426.047-18.86,0-28.287-.008C354.51,79.25,354.56,77.939,354.665,76.62Z" transform="translate(0.964 24.695)"/><path class="a" d="M361.041,74.115c-5.927,4.682-9.834,13.616-4.143,20.055,4.581,5.2,12.165,5.966,18.453,3.786,6.734-2.327,9.574-8.48,8.069-15.187-2.029-9.019-14.543-14.78-22.107-8.965A1.134,1.134,0,0,0,361.041,74.115Zm-4.43,11.35a1.212,1.212,0,0,0,.624-.062c-.268.306-.5.64-.737.974C356.526,86.071,356.561,85.768,356.611,85.466Zm.337,4.752c-.043-.109-.062-.225-.1-.337.054-.031.124-.027.175-.074.147-.132.306-.248.45-.38C357.286,89.679,357.123,89.958,356.949,90.218Zm3.138,4.007c-.1-.078-.229-.151-.33-.229.182-.1.341-.229.516-.337-.054.147-.144.291-.19.438C360.067,94.147,360.1,94.175,360.087,94.225Zm2.711,1.152c-.058.085-.031.159-.062.241-.3-.132-.609-.256-.9-.4.031-.019.07-.015.1-.039.159-.124.295-.268.446-.4a1.174,1.174,0,0,0,.438.578Zm15.082-1.393c.931-.943,1.816-1.936,2.7-2.929A10.563,10.563,0,0,1,377.88,93.985Zm3.759-5.873-.019.109-.058-.039Zm-2.3-7.017a1.1,1.1,0,0,0,.438-.636,13.591,13.591,0,0,1,1.482,3.189,1.087,1.087,0,0,0-.539.116,1.155,1.155,0,0,0-.679-1.028,1.152,1.152,0,0,0-.815-1.563Zm-2.991-3.243a.97.97,0,0,0,.206-1.067,15.7,15.7,0,0,1,2.2,2.227,1.081,1.081,0,0,0-.527.171c-.213.136-.434.264-.648.4.438-.869-.466-2.083-1.5-1.474C376.17,78.018,376.263,77.94,376.348,77.851Zm-2.909-3.057a14.254,14.254,0,0,1,2.13,1.234.928.928,0,0,0-.559.089,42.061,42.061,0,0,0-4.958,3.487,33.317,33.317,0,0,1,3.309-2.952A1.223,1.223,0,0,0,373.439,74.794Zm-3.386.912c.881-.869-.275-2.448-1.338-1.738-.2.132-.369.295-.559.431a1.153,1.153,0,0,0-.112-.741,11.362,11.362,0,0,1,4.861.892.9.9,0,0,0-.659.194c-1.548,1.168-3.069,2.366-4.6,3.549C368.435,77.421,369.222,76.536,370.052,75.706ZM367.17,96.661a1.256,1.256,0,0,0-.039.175c-.066-.012-.136-.035-.2-.047C367.011,96.75,367.089,96.7,367.17,96.661Zm-3.251-21.886.039-.031a9.6,9.6,0,0,1,1.784-.71c-2.533,2.874-5.369,5.439-8.119,8.1A16.745,16.745,0,0,1,363.919,74.775Z" transform="translate(6.28 96.4)"/><path class="a" d="M352.7,115.851a.984.984,0,0,0,.822.4c15.245,0,30.517.182,45.755-.233a.947.947,0,0,0,.547-.252.77.77,0,0,0,.182-.081,1.065,1.065,0,0,0,.225-.454c.047-.112.151-.175.159-.318.942-15.629-6.172-34.171-23.9-34.858-17.867-.683-24.768,20.548-24.54,34.858A.968.968,0,0,0,352.7,115.851Zm5.865-4.038c-.07,0-.14-.008-.209-.008.143-.074.295-.14.442-.221C358.725,111.661,358.647,111.735,358.566,111.813Zm-.912-8.1c.047-.194-.163-.322-.291-.171v0a.176.176,0,0,0-.109-.221,1.065,1.065,0,0,0,.535-.19c.337-.283.687-.531,1.028-.811C358.407,102.79,358.058,103.244,357.654,103.717Zm.365,8.67a.792.792,0,0,0-.089.155c-.217-.062-.477-.124-.659-.194l.066-.035A3.877,3.877,0,0,0,358.019,112.387Zm24.349,1.633a3.116,3.116,0,0,0,.5-.407c-.143-.008-.287-.019-.434-.031a31.571,31.571,0,0,1-4.911.407c.089.031.163.05.252.078-6.129.016-12.254-.008-18.376-.019l.012,0a.978.978,0,0,0,.1-.07,11.5,11.5,0,0,0,4.508-.59c1.6.116,3.189.147,4.783.209a15.637,15.637,0,0,0,1.951.085q1.28.035,2.564.054a36.5,36.5,0,0,0,4.2.256c-.213-.078-.388-.093-.605-.186a16.761,16.761,0,0,1-1.889-.078c1.7,0,3.394.019,5.1-.023.163,0,.19-.175.116-.283.725.074,1.455.124,2.188.163.178-.027.365-.081.543-.113a1.261,1.261,0,0,1-.109.144c.295.016.594.031.892.039a1.249,1.249,0,0,0,.24.008c.667.019,1.331.035,2.013.043.151.008.306.023.458.035.027.054.039.12.124.128.4.039.741.058,1.109.089C385.926,113.973,384.149,114.012,382.368,114.02Zm-15.52-2.324a.149.149,0,0,0,.035-.163c.679-.454,1.381-.888,2.009-1.381-.233.256-.485.516-.714.772a1.064,1.064,0,0,0-.256.667C367.635,111.623,367.279,111.657,366.848,111.7Zm4.259.981c.054-.008.112-.031.175-.039a.367.367,0,0,0,.019.062Zm2.013.237c.113-.058.217-.124.326-.182a3.639,3.639,0,0,1,.578.287C373.726,112.984,373.419,112.945,373.121,112.914Zm1.7-.555c-.241,0-.473.008-.714,0,.337-.19.687-.365,1.02-.566l-.051.047A.881.881,0,0,0,374.824,112.36Zm.12.784h-.291l.264-.062C374.932,113.1,374.928,113.124,374.944,113.143Zm4-.093c.066.012.124.012.19.019l.019.019c-1.722-.124-1.373-.248-.287-.349l.016.043C378.807,112.887,378.8,113.027,378.943,113.05Zm3.988-.516a.906.906,0,0,0,.078.5c-.64-.062-1.288-.128-1.932-.175.151-.089.3-.186.45-.279C382.05,112.557,382.543,112.542,382.931,112.534Zm-.706-.388c.442-.283.908-.543,1.346-.834-.171.256-.372.485-.539.749-.027.043-.008.081-.027.12C382.749,112.173,382.485,112.154,382.225,112.146Zm3.336.8.054-.031c.082-.023.163-.031.244-.054a1.423,1.423,0,0,0,.116.144C385.84,112.98,385.7,112.965,385.561,112.941Zm.582.729c.1-.027.143-.089.124-.178l.264.047c-.062.043-.116.081-.109.151Zm2.3-.295-1.051-.163c.3-.213.578-.45.881-.667a1.249,1.249,0,0,0,.772.8C388.851,113.349,388.637,113.364,388.443,113.376Zm1.4-.078c.019-.012.043-.008.058-.019.33-.221.644-.458.966-.69l.093.019a4.389,4.389,0,0,1,.749.873A18.282,18.282,0,0,0,389.847,113.3Zm.318-9.954c.772-.76,1.6-1.455,2.413-2.161.008.031.023.066.035.1C391.795,101.967,390.972,102.654,390.165,103.344Zm2.859-2.409-.031-.128.136-.12.031.132Zm2.106-1.106a1.015,1.015,0,0,0-.392-.039c-.051-.167-.093-.291-.144-.473-.543-1.656-.981-3.286-1.505-4.888a6.318,6.318,0,0,1,.784.485c0,.027-.039.031-.031.058C394.266,96.684,394.623,98.282,395.131,99.83Zm.031,12.122c-.027.112.039.2.054.306-.132-.039-.271-.093-.4-.124C394.933,112.072,395.049,112.014,395.162,111.952Zm-1.334-11.7c-.128.1-.256.217-.384.326-.012-.05-.023-.1-.039-.144.12-.1.229-.217.353-.318Zm-.652.551-.035-.136.023-.019.035.136Zm5.028,13.011c-1.082.027-2.169.019-3.259.043l-.012-.035c-.6-.326-.993-.551-1.3-.729l.139.023c-.074-.019-.139-.039-.2-.062-.074-.043-.163-.1-.217-.128.12-.062.237-.132.357-.194.089-.012.225-.023.357-.031.3.035.679.078,1.1.12-.035.112,0,.233.147.233.159.019.318.035.477.054a1.119,1.119,0,0,0,.427.066c-.147.081-.178.31.012.357.966.241.6.241,1.563,0a.194.194,0,0,0,.082-.322c-.074-.062-.132-.163-.206-.229.113-.113.1-.314-.093-.314h-.194l-.085-.1c.462-.749.71-1.144.885-1.505Q398.246,112.488,398.2,113.818Zm-2.812-11.975c.085-.078.171-.159.264-.24a1.1,1.1,0,0,0,.089-.124c.147.334.349.663.524.993,0,.093-.016.151-.023.225a1.211,1.211,0,0,0-.7-.431c-.031-.078-.062-.151-.089-.229Zm1.688,1.012a46.789,46.789,0,0,1,.873,5.008.949.949,0,0,0-.5.07,1.06,1.06,0,0,0-1.4-1.482c.124-.136.252-.264.372-.4a1.072,1.072,0,0,0-.528-1.8c.074-.066.143-.136.213-.2.093-.081.085-.178.136-.268.237.361.411.729.687,1.094.1.136.372.112.361-.1C397.253,104.112,397.168,103.488,397.078,102.856Zm-1.269-3.464c.19.559.322.974.423,1.315.012.229.027.462.035.66-.066-.113-.155-.283-.264-.5a1.028,1.028,0,0,0-.372-.78c-.116-.252-.24-.516-.388-.834q-1.228-4.242.45-.632C395.724,98.879,395.8,99.112,395.81,99.392Zm-4.694-10.078c.2.256.427.481.617.749l-.341-.178c-.085-.19-.206-.349-.307-.531Zm-.256,1.369a8.093,8.093,0,0,0,1.389.2,32.058,32.058,0,0,1,3.107,6.11c-.12-.252-.275-.508-.407-.76.039.066.054.14.093.209-.066-.14-.14-.272-.206-.407l.015.019-.1-.182a21.123,21.123,0,0,0-2.692-4.318c-.031-.039-.066-.008-.1-.016-.066-.144-.116-.287-.186-.431a.2.2,0,0,0-.353.047c-.047.287-.039.535-.066.811-.2-.2-.4-.4-.6-.6A1.072,1.072,0,0,0,390.86,90.683Zm.357,2.161.047.147c0,.112-.031.241-.031.349-.268-.334-.543-.663-.815-1C390.662,92.529,390.953,92.677,391.217,92.844Zm-.85,2.033a1.055,1.055,0,0,0,.431-.5c.194.256.407.493.613.737a10.91,10.91,0,0,0,.469,1.715.568.568,0,0,0-.078.019l-.012-.035a.193.193,0,0,0-.372.1l.008.031-.027.008c-3.7,2.382-7.2,5.4-10.772,8.224,3.266-2.874,6.746-5.57,9.9-7.848,1.024-.741.264-2.339-.787-2.052C389.948,95.152,390.162,95,390.367,94.876Zm-.683-2.044a1.174,1.174,0,0,0-.43.136c-1.587.85-3.119,1.765-4.663,2.673,1.59-1.144,3.2-2.2,4.826-3.2C389.506,92.572,389.6,92.7,389.684,92.832Zm-1.191-3.053c.116.124.241.248.357.372l-.147.1c-.19-.233-.38-.465-.574-.7C388.257,89.628,388.37,89.709,388.494,89.779ZM386.1,87.917c.124.14.272.252.407.38.2.256.411.489.613.737.229.318.5.679.78,1.071.1.155.2.31.291.465q-1.484.943-2.975,1.874c.675-.512,1.369-.993,2.006-1.571.919-.842-.3-2.467-1.342-1.738-.3.213-.609.446-.912.663a5.37,5.37,0,0,0,.194-.644c.039-.244-.334-.349-.372-.1a5.443,5.443,0,0,1-.314,1.1c-1.831,1.307-3.666,2.622-5.5,4q-1.746,1.082-3.507,2.145c3.386-2.727,6.812-5.411,10.307-8.014A1.278,1.278,0,0,0,386.1,87.917Zm-2.785-3.623a1.138,1.138,0,0,0,.485-.861c.314.128.582.334.884.481-.008.035-.043.054-.027.093-.1-.023-.175-.074-.272-.1-.031-.008-.046.016-.074.019l-.089-.019a.2.2,0,0,0-.221.287c.085.144.19.268.275.411a6.853,6.853,0,0,0,.411,1.191c-.035.066-.07.14-.008.213.074.089.14.178.213.268a.946.946,0,0,0-.244.1c-1.191.791-2.394,1.579-3.592,2.362.865-.656,1.691-1.338,2.56-1.99,1.09-.811.171-2.576-1-1.951C382.846,84.631,383.082,84.468,383.315,84.294Zm-4.837-2a16.343,16.343,0,0,1,3.169.423,63.537,63.537,0,0,0-9.194,6.292,49.833,49.833,0,0,1,5.962-4.861A1.141,1.141,0,0,0,378.478,82.292Zm-3.538.19c.516-.074,1.012-.175,1.548-.209.26-.019.489.016.745.008a57.9,57.9,0,0,0-5.082,3.336C373.105,84.6,374.056,83.568,374.94,82.482Zm.295,7.6c-1.92,1.521-3.79,3.127-5.636,4.768-1.016.811-2.033,1.649-3.041,2.471,1.579-1.563,3.2-3.084,4.872-4.539Q373.326,91.435,375.235,90.085ZM367.1,85.33c.143-.14.3-.268.442-.407a19.826,19.826,0,0,1,3.72-1.633c-.64.7-1.315,1.373-1.982,2.056-.031-.116-.116-.213-.237-.128q-.977.692-1.866,1.424c.493-.415.931-.892,1.451-1.28.178-.144-.05-.4-.233-.3-.772.419-1.412.756-2.029,1.094-.015-.047-.012-.062-.054-.085A8.9,8.9,0,0,0,367.1,85.33Zm-.784,1.067c.194-.066-.2.392-.853,1.075C365.738,87.11,365.995,86.738,366.313,86.4ZM364.35,110.61a.991.991,0,0,0-.2,1.071,14.981,14.981,0,0,0-1.975.489c1.121-.838,2.207-1.722,3.27-2.642C365.087,109.889,364.7,110.249,364.35,110.61Zm-2.013-21.048c.233-.194.465-.4.675-.566.031.147.256.019.659-.357-.256.295-.594.671-1.086,1.2-.241.26-.442.524-.659.787.2-.411.361-.76.446-.989C362.383,89.608,362.344,89.593,362.336,89.562Zm-2.4,2.7c.376-.574.791-1.113,1.206-1.653l.213-.194a25.205,25.205,0,0,0-1.649,2.494C359.78,92.681,359.865,92.487,359.935,92.258ZM359.5,94.38c-.252.52-.481,1.063-.7,1.629-.093.1-.19.2-.279.3.248-.617.45-1.292.671-1.936C359.737,93.22,359.726,93.534,359.5,94.38Zm-.648-.241c-.14.388-.275.776-.411,1.164-.113.233-.221.473-.33.71-.054-.112-.14-.136-.233-.054C358.17,95.326,358.523,94.744,358.853,94.139Zm-1.106,4.837c.074-.275.147-.562.221-.857a1.221,1.221,0,0,0,.213.322l-.043.1c-.109.225.221.423.334.2l.035-.062.031.023c-.322.334-.625.69-.931,1.043.085-.19.159-.376.24-.566C357.887,99.089,357.821,99.019,357.747,98.976ZM357.5,96.9c-.221.621-.419,1.245-.625,1.866-.19.442-.38.881-.578,1.327C356.646,99,357.057,97.941,357.5,96.9Zm-.493,6.494a19.477,19.477,0,0,0-1.249,2.242l-.043.015c-.194.295-.334.59-.512.884.089-.349.326-1.129.764-2.553.07-.213.159-.516.248-.811a.159.159,0,0,0,.3.062A1.229,1.229,0,0,0,357.006,103.395Zm-.787-3.014a.21.21,0,0,0,.058.182c-.4,1.284-.753,2.591-1.094,3.9C355.467,103.084,355.8,101.719,356.219,100.381Zm-1.249,5.3c.035.043.043.066.1.062-.089.291-.178.582-.268.869C354.85,106.3,354.916,105.99,354.97,105.68Zm-.57,3.627c.155-.283.3-.551.431-.791a1.017,1.017,0,0,0,.155.159l-.015.093c-.047.109-.1.217-.147.334-.155.151-.307.3-.458.458C354.373,109.473,354.388,109.392,354.4,109.307Zm-.2,3.6.213-.171,1.222-.209c.6.167,1.063.31,1.377.419-.7.016-1.4.035-2.1.054-.07,0-.089.062-.124.116-.19-.019-.392-.039-.59-.062Zm-.015.535c.745.089,1.447.144,2.114.178.209.035.411.058.617.089-.5.1-.442.14.586.078.233.031.473.066.71.089a1.435,1.435,0,0,0,.21.171q-2.124-.006-4.248-.008C354.175,113.841,354.186,113.64,354.186,113.438Z" transform="translate(0 121.095)"/><path class="a" d="M385.081,74.04c-5.923,4.686-9.822,13.6-4.143,20.051,4.585,5.2,12.165,5.958,18.453,3.786,6.738-2.32,9.585-8.472,8.072-15.187-2.036-9.007-14.539-14.768-22.107-8.965A1.226,1.226,0,0,0,385.081,74.04Zm20.707,12.537v.008l-.019.008Zm-25.06,2.584a7.958,7.958,0,0,1-.159-.947,1.049,1.049,0,0,0,.528.221C380.97,88.672,380.842,88.909,380.729,89.161Zm-.19-2.8a12.028,12.028,0,0,1,.3-1.975,1.247,1.247,0,0,0,1.264.031A14.293,14.293,0,0,0,380.539,86.364ZM383.914,94c.054-.023.1-.058.143-.081a1.1,1.1,0,0,0,.174.3C384.127,94.146,384.019,94.072,383.914,94Zm.655.454a1.265,1.265,0,0,0,.392.175c0,.039.019.074.023.113C384.833,94.65,384.713,94.545,384.569,94.452Zm18.2-15.28a1.163,1.163,0,0,0,.1-.14,15.1,15.1,0,0,1,1.218,1.773c-.4.237-.811.469-1.226.7A1.13,1.13,0,0,0,402,79.8C402.254,79.587,402.518,79.389,402.766,79.172Zm-1.5-1.893c.066.058.12.124.182.186a1.051,1.051,0,0,0-.256.144l-.1.081A1.116,1.116,0,0,0,401.269,77.279Zm-5.408-2.937c.074-.062.066-.147.116-.217a13.882,13.882,0,0,1,3.763,1.909l-.039.019c-.361.256-.706.528-1.067.78.438-.9-.4-2.122-1.466-1.466-.326.2-.617.438-.935.648a1.08,1.08,0,0,0-.551-1.493C395.741,74.463,395.8,74.4,395.862,74.343Zm-3.588-.776c-.349.175-.691.365-1.024.559a1.246,1.246,0,0,0-.334-.442A9.339,9.339,0,0,1,392.273,73.567Zm-4.255,1.09a9.184,9.184,0,0,1,1.125-.485c-1.474,2.715-4.721,4.636-7.056,7a16.619,16.619,0,0,1,5.885-6.474Z" transform="translate(75.514 96.192)"/><path class="a" d="M400.527,79.983c-17.864-.694-24.768,20.548-24.532,34.846a.961.961,0,0,0,.745.935.979.979,0,0,0,.819.4c15.245,0,30.521.182,45.758-.225a.971.971,0,0,0,.582-.268c.047-.031.1-.031.144-.07a1.024,1.024,0,0,0,.225-.442c.047-.12.155-.186.163-.334C425.381,99.208,418.255,80.67,400.527,79.983Zm14.78,9.4c.221.287.458.547.663.846,0,.147,0,.3,0,.446-.237-.314-.485-.605-.737-.908l-.225-.361A2.515,2.515,0,0,0,415.307,89.379Zm-.221.76c.279.493.524.974.605,1.1a8.283,8.283,0,0,1,.434.888,12.144,12.144,0,0,0,.566,2.176,1.05,1.05,0,0,0-.1.027,22.982,22.982,0,0,0-1.78-4.546C414.9,89.895,414.985,90,415.086,90.139Zm.6,7.638c.159.462-.066.528-.528.349Zm-.563-5.055.031.07.008.035Zm-.062-1.1.043.012c.082.19.147.388.225.582C415.233,92.013,415.148,91.823,415.059,91.621Zm-1.117,4.271c-.427.155-.873.295-1.292.473.05-.116.089-.221.155-.357.392-.326.78-.652,1.164-.97.155.213.276.388.407.578C414.232,95.706,414.085,95.8,413.941,95.892Zm.19,3.367a1.774,1.774,0,0,1-.171.1c.043-.039.074-.081.116-.12C414.085,99.255,414.116,99.247,414.131,99.259Zm-7.052,9.7a30.559,30.559,0,0,1,4.554-4.543A58.516,58.516,0,0,1,407.079,108.957Zm2.754,2.855-.074,0,.062-.035Zm-2.746-24.365c-.609.384-1.152.819-1.715,1.245.489-.516.974-1.032,1.462-1.552.019-.019-.008-.043,0-.066l.1-.081c.229.229.477.392.706.593-.225.147-.423.314-.652.462.132-.12.248-.229.33-.3C407.49,87.606,407.273,87.327,407.087,87.447Zm-.116,25.684c-.225.039-.454.062-.675.1.186-.031.365-.066.547-.1Zm3.476-18.422c.058,0,.116,0,.174,0-1.2.873-2.421,1.734-3.561,2.677A41.537,41.537,0,0,1,410.446,94.709Zm-.357-4.907c.066.1.124.2.19.295-.128.085-.26.171-.4.252a1.128,1.128,0,0,0-.074-.295C409.9,89.968,410,89.883,410.089,89.8Zm-.14-1.311c.089.1.171.194.241.275l-.051.031C410.078,88.692,410.012,88.591,409.95,88.49Zm.264.423.054-.05.035.054-.054.054Zm-.566.663c-.019-.027-.054-.035-.078-.058l.213-.2.05.074Zm-.295-.237c-.081-.054-.128-.151-.225-.178a.964.964,0,0,0,.132-.365c.1.062.213.109.314.171.027.05.054.1.085.151C409.558,89.189,409.453,89.266,409.352,89.34Zm1.237.171c.113.054.206.124.322.175l-.151.1C410.7,89.7,410.648,89.6,410.59,89.511Zm-.679,9.294c-.632.473-1.28.935-1.9,1.416.318-.295.644-.574.966-.865C409.29,99.181,409.6,98.987,409.911,98.8Zm1.3-4.546-.12.008c.423-.287.842-.605,1.268-.869C411.963,93.669,411.6,93.979,411.21,94.259Zm1.078-4.7c-.035-.027-.085-.027-.124-.047l-.074-.217C412.145,89.367,412.215,89.464,412.289,89.561Zm-.054-1.9c.12.113.252.209.376.322.031.019.047.047.081.066a.422.422,0,0,1-.1.016C412.467,87.932,412.359,87.784,412.235,87.66Zm1.373,11.482.016.027.085-.062c-.318.287-.667.543-.962.853-.027.023.008.047,0,.074-.349.194-.69.38-1.036.578C412.347,100.1,412.979,99.623,413.608,99.142Zm-.931-9.023.035.05-.027-.019Zm1.311,2.262.039.1c-.047,0-.093-.027-.14-.016C413.926,92.443,413.949,92.408,413.988,92.381Zm-1.482-3.386.233.1c.205.256.357.543.543.807C413.034,89.6,412.766,89.3,412.506,88.995Zm.45-1.234q-.687-.7-1.447-1.338C411.781,86.4,412.343,86.974,412.956,87.761Zm-1.412,1.474c-.136-.124-.264-.26-.4-.392.07-.07.147-.132.217-.2C411.424,88.839,411.482,89.037,411.544,89.235Zm-1.424-4.686c-.12-.054-.237-.1-.361-.151q-.134-.116-.279-.221C409.7,84.3,409.907,84.417,410.12,84.549Zm-.1.648-.058.012c-.066-.047-.132-.1-.2-.144l.116.047C409.919,85.146,409.977,85.162,410.019,85.2Zm-.155,1.862a13.691,13.691,0,0,0,1.272,1.078l.039.054c-.136.07-.268.136-.446.237-.446-.485-.869-.989-1.268-1.493C409.589,86.985,409.729,87.012,409.864,87.059Zm-.465-1.7-.043.012c-.054-.031-.1-.054-.155-.085-.1-.1-.19-.19-.287-.291C409.077,85.112,409.236,85.236,409.4,85.356Zm-.687,1.839c.035.081.054.155.093.233a.881.881,0,0,0-.846,0c-.287-.233-.543-.485-.815-.729a1.169,1.169,0,0,0,.264-.628c.233.186.485.337.71.551C408.266,86.756,408.479,86.966,408.712,87.195Zm-2.735-3.821c.244.132.516.272.807.407.268.485.558.985.881,1.5a2.631,2.631,0,0,1-1.187-.954c-.349-.357-.679-.733-1.012-1.1C405.64,83.253,405.8,83.331,405.977,83.374Zm-.865.066c.171.2.341.384.516.578-.178-.113-.357-.206-.539-.3A.727.727,0,0,0,405.112,83.44Zm.151,1.051c.248.163.5.33.741.5l-.012.008c-.287-.066-.508-.058-.768-.1-.054-.058-.116-.116-.175-.171C405.12,84.646,405.2,84.572,405.264,84.491Zm-.5-.334.116.078c-.07.047-.136.1-.205.151a.88.88,0,0,1-.093-.074C404.647,84.262,404.709,84.208,404.767,84.157Zm0,1.362c-.221.089-.442.178-.659.279.07-.078.132-.155.2-.229C404.461,85.581,404.62,85.519,404.771,85.519Zm-.4-1.028.066.062c-.1.07-.19.14-.287.206l-.089-.012C404.17,84.665,404.271,84.572,404.375,84.491Zm.3,4.368c-.446.477-.9.962-.993,1.059-.264.279-.819.8-1.443,1.362.621-.613,1.206-1.257,1.8-1.893C404.247,89.208,404.461,89.033,404.674,88.859Zm-2.432,22.228c.6-.477,1.168-.985,1.726-1.509a11.341,11.341,0,0,0-.718,1.664C402.913,111.191,402.587,111.137,402.242,111.086Zm.846,1.237c-.264,0-.528.008-.8.008l.054-.015c.252,0,.5,0,.737,0Zm-.438-29.474a1.085,1.085,0,0,0,.113,0l-.05.035Zm.535,3.352a8.678,8.678,0,0,0,.733-.729l.031.012c-.178.213-.369.411-.551.617C403.324,86.136,403.254,86.167,403.185,86.2Zm.842-3.871a2.267,2.267,0,0,0-.283.039,13.539,13.539,0,0,0-1.943,0c-.116-.054-.209-.128-.33-.182A18.346,18.346,0,0,1,404.026,82.33Zm-1.9,8.627c-.372.45-.737.912-1.1,1.377-.865.729-1.625,1.292-1.78,1.226C400.2,92.68,401.152,91.8,402.125,90.957Zm-.667-7.3c-.058.031-.12.058-.174.089,0-.1-.047-.213-.159-.206-.128,0-.38.008-.652,0a1.073,1.073,0,0,0,.186-.578c.186-.031.373-.066.566-.085A3.481,3.481,0,0,0,401.458,83.657Zm-.931-1.459c.194-.012.376,0,.566-.008-.015.031-.046.054-.043.089,0,.058.043.1.047.155-.175.023-.334.066-.5.1a1.624,1.624,0,0,0-.144-.326Zm-.974,2.161c.054.217-.3.559-.76.939-.605.384-.884.5-.919.415C398.417,85.243,398.987,84.8,399.553,84.359Zm-1.272,10.307c-.776.663-1.583,1.3-2.343,1.978.733-.722,1.5-1.393,2.25-2.1A.14.14,0,0,0,398.281,94.666Zm-1.591-7.886a.188.188,0,0,0,.167.027c.113-.054.256-.12.4-.186-.7.528-1.408,1.036-2.095,1.583C395.659,87.711,396.175,87.249,396.691,86.78Zm-5.07-1.971c-.787.687-1.559,1.408-2.308,2.176q-.792.506-1.536,1.067c-.221.143-.431.3-.656.438a1.055,1.055,0,0,0-.392.442c-.365.306-.753.582-1.094.919A21.134,21.134,0,0,1,391.621,84.809Zm-1.637,28.213c-.547.039-1.028.066-1.42.093.244-.062.485-.128.729-.194C389.518,112.964,389.751,112.991,389.984,113.022Zm-4.2-.213c.3-.136.6-.272.9-.434l.26-.062c.411.14.826.26,1.257.365A3.7,3.7,0,0,1,385.783,112.809Zm-4.17-3.1c-.054.078-.12.147-.174.225-.023.031,0,.058-.023.085-.241-.047-.508-.124-.721-.147.112-.516.256-1.047.423-1.59a.982.982,0,0,0,1.369-.113c1.214-1.385,2.506-2.89,3.844-4.43-1.645,1.955-3.227,3.941-4.709,5.958l-.012.012Zm-2.308.233h-.016c.043-.151.512-1.214,1.66-3.736-.023.143-.047.287-.066.431-.043.066-.093.128-.132.194-.082.132-.039.256-.058.388C380.018,108.553,379.4,109.8,379.3,109.938Zm.1,2.6-.012.089c-.322-.089-.442-.2-.341-.306.016.023.008.05.031.066C379.188,112.46,379.3,112.471,379.405,112.537Zm2.06-7.2c.027-.186.1-.4.147-.605.054-.113.1-.225.155-.341C381.651,104.705,381.6,105.031,381.465,105.341Zm.671-.764c.12-.372.237-.745.341-1.117.4-.322.791-.64,1.183-.966-.489.675-.908,1.358-1.369,2.037C382.241,104.511,382.19,104.554,382.136,104.577Zm2.979-8.154c0-.089.012-.178.015-.268.2-.175.415-.345.621-.52C385.538,95.9,385.325,96.159,385.115,96.423Zm.023-5.943a1.052,1.052,0,0,0,.194.97c-1.141,1.385-2.219,2.727-3.235,3.988A27.637,27.637,0,0,1,385.139,90.48Zm-4.092,7.386.016.015-.062.124C381.019,97.959,381.027,97.913,381.046,97.866Zm.9.768c-.213.725-.531,1.738-.85,2.766-.035.039-.066.078-.1.116C381.294,100.551,381.624,99.534,381.942,98.634Zm-1.819,5.966c.035-.155.085-.353.147-.574l.016.016c-.078.252-.132.454-.171.617Zm-.349,2.234c.38-.811.667-1.637,1-2.452a.786.786,0,0,0,.462-.016l-.012.07a28.443,28.443,0,0,0-1.854,3.86A7.755,7.755,0,0,0,379.774,106.835Zm-.012,1.435c-.182.473-.38,1.028-.59,1.68a1.323,1.323,0,0,0-.458.287C379.153,109.442,379.5,108.786,379.762,108.27Zm-1.412,2.607.027-.012.016-.031a1.014,1.014,0,0,0,.334.679l-.008.023c-.132.023-.268.066-.4.093C378.331,111.377,378.335,111.129,378.35,110.877Zm-.132,3.08c0-.314.035-.636.039-.954a9.11,9.11,0,0,0,1.16.178c.062.066.147.113.229.054l.019-.016a11.722,11.722,0,0,0,1.28.039,5.288,5.288,0,0,0,.6.113,10.006,10.006,0,0,0,4.845.186,37.68,37.68,0,0,0,7.273-.248c.694,0,1.381-.023,2.075-.066l.116.019a7.516,7.516,0,0,0,1.622.721C391.058,113.98,384.638,113.957,378.218,113.957Zm19.19-2.331.047-.039.074.016C397.486,111.61,397.447,111.622,397.408,111.626Zm1.179-.225c-.275-.023-.547-.043-.826-.066l.027-.023c.341.027.574.05.8.078Zm.295-.725-.279-.027.7-.57C399.166,110.28,399.022,110.477,398.882,110.675Zm3.429,3.131a3.852,3.852,0,0,1-.721.167c-.287,0-.574.012-.857.012a.883.883,0,0,1-.469-.233,31.371,31.371,0,0,0,4.054-.233C403.65,113.612,402.987,113.732,402.312,113.806ZM404.527,89.8c-.178.128-.365.252-.543.384.621-.582,1.234-1.164,1.878-1.707C405.376,88.886,404.965,89.351,404.527,89.8Zm10.4,23.993-.535.043c-.9.012-1.792.019-2.688.031-.687-.1-1.381-.221-2.091-.388-.109.182.008.322.361.4-1.311.012-2.622.039-3.933.047.974-.2,1.916-.423,2.832-.656.244.066.5.144.741.206a1.037,1.037,0,0,1,.229-.217,34.089,34.089,0,0,0,5.563.326C415.439,113.666,415.315,113.74,414.927,113.79Zm-.136-1.439c.4-.171.815-.318,1.191-.516a1.4,1.4,0,0,0,.143.687C415.679,112.456,415.233,112.409,414.791,112.351Zm1.078-17.65a2.739,2.739,0,0,0-.268-.1,6.208,6.208,0,0,0-.05-1c.178.322.392.613.59.923C416.048,94.577,415.962,94.643,415.869,94.7Zm.407,3.363a3.112,3.112,0,0,0,.454-.582c.05.081.089.171.14.252C416.676,97.851,416.474,97.955,416.277,98.064Zm1.819,14.931c-.174,0-.4,0-.659-.016.043-.023.078-.012.124-.043.074-.054.136-.12.213-.175l0,.008.027-.035c.1-.074.178-.147.271-.221a1.459,1.459,0,0,0,.1.12A3,3,0,0,0,418.1,112.995Zm1.04.12a.8.8,0,0,0,.14-.008l.05.155c-.023-.066-.047-.14-.14-.144Zm.213.221.035.109a1.276,1.276,0,0,1-.2.058C419.295,113.5,419.333,113.418,419.349,113.336Zm-.043.442c.039-.062.089-.124.12-.182.016.05.035.12.054.178Zm2.933-.035c-.318.008-.636,0-.95.012.213-.473.369-.815.473-1.044.078.2.159.442.268.772a.2.2,0,0,0,.206.128Zm-.054-2.382-.116.113c.019-.279.047-.667.1-1.253C422.181,110.609,422.177,110.978,422.185,111.362Zm-1.067-.4c.342-.473.609-.892,1.028-1.579.019.268,0,.5.015.764.008-.206-.338-.256-.372-.043-.229,1.319-.345,1.517-.264,1.893-.221.217-.461.434-.718.648A3.5,3.5,0,0,0,421.118,110.966Zm-.4-9.993.008.023H420.7Zm.012,12.79c-.171,0-.341,0-.512,0,.109-.206.2-.392.287-.543A4.607,4.607,0,0,0,420.73,113.763Zm-.338-.8a3,3,0,0,1-.861.434,4.39,4.39,0,0,0,.295-.733c.182-.237.326-.419.469-.609A3.085,3.085,0,0,0,420.392,112.964Zm-.8-15.528c.136.361.287.71.407,1.075-.489.229-.935.5-1.4.749a1.1,1.1,0,0,0,.244-1.319c.035.031.054.078.089.113.019.023.043,0,.07.008.1.186.155.38.26.559a.2.2,0,0,0,.361-.1A10.229,10.229,0,0,0,419.589,97.436ZM419,95.876a12.507,12.507,0,0,1,.306,1.893,7.573,7.573,0,0,1-.369-1.082,12.877,12.877,0,0,0-.33-1.265c-.023-.155-.008-.314-.023-.469C418.728,95.263,418.876,95.562,419,95.876Zm-1.645,1.587-.089.05c-.05-.31-.112-.632-.175-.958.074-.05.159-.116.233-.171a1.284,1.284,0,0,0,.1-.1c.345.411.683.834,1.055,1.2A.971.971,0,0,0,417.359,97.463Zm.865-1.943.008.05-.047-.128Zm-.182-1.707c-.027.05-.062.093-.085.143a18.873,18.873,0,0,0-1.559-2.661c-.023-.155-.031-.3-.047-.454A29.155,29.155,0,0,1,418.042,93.813Z" transform="translate(69.235 120.89)"/><path class="a" d="M404.279,94.023c4.585,5.194,12.169,5.962,18.453,3.786,6.734-2.327,9.585-8.48,8.069-15.187-2.021-9.015-14.535-14.768-22.1-8.973a1.361,1.361,0,0,0-.291.33C402.494,78.669,398.6,87.583,404.279,94.023ZM404,88.84,404,88.805l.027-.008Zm8.779,6.955a1.1,1.1,0,0,0-.082.508c-.372-.085-.764-.124-1.133-.237a19.109,19.109,0,0,0,1.761-1.183C413.15,95.19,412.945,95.473,412.782,95.8Zm2.847.912c-.143,0-.291.012-.434,0,.248-.163.493-.314.733-.485C415.835,96.393,415.718,96.54,415.629,96.707Zm4.5-.481-.132.031c.043-.035.093-.062.136-.1A.392.392,0,0,0,420.129,96.226Zm1.443-4.286a36.453,36.453,0,0,1,5.71-5.47C425.315,88.231,423.465,90.112,421.572,91.94Zm6.637-9.671c.082.2.147.4.221.6-.493.256-.95.551-1.412.842C427.437,83.254,427.821,82.761,428.209,82.269Zm-1.14-2.114.043.074q-.058.047-.128.093A.759.759,0,0,0,427.069,80.155Zm-1.443-1.92c.124.14.237.291.357.434a.868.868,0,0,0-.543.167c-.078.058-.144.12-.221.175l-.015.012c-.4.3-.768.628-1.164.931.454-.462.923-.9,1.366-1.369A1.172,1.172,0,0,0,425.626,78.234Zm-2.386-2.168c.31.229.609.485.9.737a.342.342,0,0,0-.078.035c-.074.054-.151.12-.225.175h0l-.023.019c-2.211,1.645-4.376,3.359-6.544,5.066,1.9-1.781,3.805-3.549,5.683-5.357A.937.937,0,0,0,423.24,76.066Zm-1.66-1.04c-2.343,1.563-4.566,3.262-6.746,5.008a32.53,32.53,0,0,1,4.519-4.042,1.166,1.166,0,0,0-.144-1.978A13.489,13.489,0,0,1,421.58,75.026Zm-2.587-1.09a.99.99,0,0,0-.76.147c-.469.295-.908.625-1.366.931a1.186,1.186,0,0,0-.675-1.517A11.151,11.151,0,0,1,418.992,73.936Zm-5.923.981a1.124,1.124,0,0,0,.458-1.125,9.752,9.752,0,0,1,2.153-.3,1.025,1.025,0,0,0-.353.128c-1.439.923-2.793,1.943-4.166,2.952A19.191,19.191,0,0,1,413.069,74.918Zm-4.2,18.011c-.047.182-.147.334-.186.52a1.134,1.134,0,0,0,.927,1.334c-.012.031-.035.054-.047.081a1.108,1.108,0,0,0-.043.337c-.392-.186-.815-.31-1.183-.528-.256-.151-.465-.322-.694-.481C408.065,93.79,408.457,93.352,408.864,92.929Zm-3.134-.419a7.947,7.947,0,0,1-.659-.943c.543-.516,1.1-1.02,1.649-1.528A9.776,9.776,0,0,0,405.73,92.51Z" transform="translate(142.709 95.981)"/><path class="a" d="M447.187,115.628a1.034,1.034,0,0,0,.2-.093.994.994,0,0,0,.209-.419c.054-.124.163-.2.175-.353.95-15.629-6.168-34.168-23.9-34.854-17.864-.687-24.768,20.548-24.536,34.854a.965.965,0,0,0,.749.939.989.989,0,0,0,.815.392c15.253,0,30.517.182,45.762-.225A.966.966,0,0,0,447.187,115.628Zm-2.056-9.457c.023.159.054.318.074.477a1,1,0,0,0-.4-.081C444.911,106.435,445.023,106.3,445.132,106.171ZM421.426,82.454a22.92,22.92,0,0,1,2.444-.33,16.584,16.584,0,0,1,4.139.252,6.064,6.064,0,0,0-.5.45.917.917,0,0,0-.116.175,64.123,64.123,0,0,0-9.407,9.566c-.551.477-1.094.962-1.641,1.443,1.016-1.35,1.99-2.712,3.03-4.011q3.055-2.8,6.176-5.605c.946-.861-.268-2.366-1.342-1.738a24.262,24.262,0,0,0-6.544,5.912q-2.467,2.269-4.884,4.57c1.272-1.532,2.393-3.15,3.615-4.667,1.7-1.478,3.387-2.975,5.012-4.539A1.026,1.026,0,0,0,421.426,82.454Zm-4,1.478a1.006,1.006,0,0,0,.287-.477c.388-.143.787-.264,1.191-.388a22.335,22.335,0,0,0-4.213,3.953c-.923.807-1.854,1.6-2.789,2.4Q414.585,86.6,417.427,83.932Zm-15.858,28.993v-.039l.019.012Zm.4-5.291c.039-.275.058-.551.1-.826a.986.986,0,0,0,.644-.337l.008-.008C402.449,106.838,402.213,107.238,401.964,107.633Zm1.858,6.249c.384-.334.776-.656,1.172-.985a.919.919,0,0,0,.508.989C404.94,113.887,404.385,113.883,403.823,113.883Zm6.575.016q-1.8-.006-3.6-.008a21.689,21.689,0,0,0,4.2-2.882c-.368.45-.776.853-1.129,1.323A1.1,1.1,0,0,0,410.4,113.9Zm3.34,0q-1.251,0-2.506,0a16.348,16.348,0,0,0,2.8-1.493c-.1.136-.229.248-.334.388A.945.945,0,0,0,413.738,113.9Zm9.151-.5a.861.861,0,0,0-.128.516q-3.4,0-6.8-.012a16.478,16.478,0,0,0,3.5-2.405,1.093,1.093,0,0,0,1.148,1.691,8.618,8.618,0,0,0,3.677-1.59C423.827,112.2,423.308,112.8,422.888,113.4Zm3.177.5c.365-.26.7-.555,1.047-.846a1.148,1.148,0,0,0,1.583.636c.268-.163.516-.38.784-.555a1.1,1.1,0,0,0,.5.745C428.676,113.894,427.369,113.906,426.066,113.906Zm7.273-1.036a1.153,1.153,0,0,0-.248,1c-.594,0-1.191,0-1.792.008a35.061,35.061,0,0,0,3.332-2.452C434.2,111.9,433.746,112.362,433.339,112.87Zm1.749-25.618c-1.536.97-2.995,2.017-4.43,3.107a19.885,19.885,0,0,1,2.552-2.9,1.071,1.071,0,0,0-.4-1.765c.811-.83-.407-2.374-1.4-1.656-.078.054-.147.124-.221.178l0-.008c-.047.039-.089.081-.132.12-.209.155-.4.334-.605.493a1.257,1.257,0,0,0-.687-1.02.959.959,0,0,0,.167-.989,17.122,17.122,0,0,1,8.123,5.66,1.059,1.059,0,0,0-.512.159q-1.3.9-2.6,1.784c.489-.485.97-.981,1.494-1.428C437.4,88.172,436.14,86.581,435.089,87.252Zm.423,26.6c.675-.617,1.338-1.245,1.963-1.9-.593.749-.085,2.207,1.02,1.847C437.5,113.817,436.5,113.844,435.511,113.856Zm3.041-.054c.24-.093.438-.221.659-.326a1.2,1.2,0,0,0,.167.31C439.1,113.79,438.832,113.8,438.553,113.8Zm.434-18.216c.547-.407,1.082-.819,1.583-1.226,1.11-.915-.465-2.471-1.559-1.567-.9.733-1.831,1.416-2.766,2.1.027-.047.047-.093.07-.144.784-.586,1.571-1.172,2.351-1.746a1.139,1.139,0,0,0-.539-2.071c.186-.12.345-.272.539-.388a1.114,1.114,0,0,0,.45-.644,29.207,29.207,0,0,1,2.452,4.2A23.823,23.823,0,0,0,438.987,95.585Zm4.209,2.723.066-.066c.016.054.039.1.058.155A1.242,1.242,0,0,0,443.2,98.308Zm1.241,5.345c-.179.1-.345.221-.524.326a1.114,1.114,0,0,0-.578-1.482c.287-.349.59-.687.873-1.04.182.718.337,1.435.481,2.153C444.6,103.638,444.526,103.6,444.437,103.653Zm1.144,10.02c-.26,0-.516,0-.772.016.229-.438.446-.884.687-1.311a1.033,1.033,0,0,0,.1-.656C445.613,112.389,445.6,113.033,445.582,113.673Zm-.442-2.735c.019-.035.039-.066.054-.1a1.17,1.17,0,0,0-.4-1.459c.21-.229.415-.462.625-.694.089,1,.151,1.986.175,2.944A1.245,1.245,0,0,0,445.139,110.938Z" transform="translate(136.431 120.677)"/><path class="a" d="M421.681,64.475c6.734-2.327,9.585-8.48,8.073-15.191-2.037-9.015-14.539-14.772-22.107-8.965a1.194,1.194,0,0,0-.272.31c-5.92,4.682-9.834,13.612-4.147,20.055C407.809,65.883,415.393,66.647,421.681,64.475Zm-16.6-4.888c-.12-.124-.264-.241-.369-.369a1.16,1.16,0,0,0,.481-.062A.861.861,0,0,0,405.078,59.587Zm22.7-3.972a1.187,1.187,0,0,0-.543.089c-2.421,1.047-4.787,2.227-7.192,3.29a63.327,63.327,0,0,1,7.836-3.91C427.849,55.262,427.833,55.444,427.783,55.615Zm-1.59-8.523a12.839,12.839,0,0,1,1.854,5.039,8.356,8.356,0,0,1,.027,1.028.908.908,0,0,0-.873-.178,43.082,43.082,0,0,0-6.827,3.266,38.419,38.419,0,0,1,6-3.689c1.148-.489.31-2.483-.857-2.025l-.264.116v0l-.043.023c-.085.031-.167.074-.252.1.419-.221.822-.462,1.257-.667,1.23-.578.287-2.2-.857-2.025-.171.027-.326.085-.493.116.3-.182.59-.369.888-.547A1.036,1.036,0,0,0,426.192,47.092Zm-2.265-2.851a16.257,16.257,0,0,1,1.265,1.416c-.1,0-.182-.062-.295-.031-.993.283-1.959.605-2.905.974.539-.26,1.055-.539,1.614-.787A1.036,1.036,0,0,0,423.927,44.241Zm-.407-.411a.841.841,0,0,0-.768-.039c-.8.334-1.633.683-2.475,1.047.167-.124.341-.241.5-.369l.066-.039,0,0c.07-.058.155-.109.225-.167.892-.733-.046-1.967-1.016-1.781a1.092,1.092,0,0,0-.268-1.164A14.805,14.805,0,0,1,423.52,43.83Zm-5.958-3.317a12.285,12.285,0,0,1,1.552.508,1.2,1.2,0,0,0-.613.116c-.357.182-.7.388-1.059.574A.991.991,0,0,0,417.561,40.513Zm-2.843-.07c.128-.081.14-.2.217-.295.26,0,.516.035.776.058q-.931.349-1.819.756C414.167,40.789,414.439,40.618,414.718,40.443Zm-1.994.912a.926.926,0,0,0,.252.023c-1.319.64-2.622,1.331-3.926,2.013A25.755,25.755,0,0,1,412.724,41.355ZM411.005,52.62c-.407.306-.807.613-1.21.923.237-.213.465-.427.718-.625C410.676,52.818,410.843,52.721,411.005,52.62Zm-4.263,7.91c.1-.058.209-.124.314-.182a1.188,1.188,0,0,0,1.42,1.21c.38-.1.749-.237,1.117-.353a1.052,1.052,0,0,0,1.036.857,15.47,15.47,0,0,0,2.106-.318,1.008,1.008,0,0,0,.074,1.466,15.678,15.678,0,0,1-5.532-1.87,11.145,11.145,0,0,1-1.063-.741A1.067,1.067,0,0,0,406.742,60.53Zm-2.234-13a.888.888,0,0,0,.749.085c.186-.074.361-.171.547-.248a13.756,13.756,0,0,0-1.474,1.459,1.133,1.133,0,0,0,.469,1.815,14.178,14.178,0,0,0-1.257,1.788,1.079,1.079,0,0,0,.578,1.536c-.136.209-.3.384-.423.605a1.108,1.108,0,0,0,.877,1.633,15.521,15.521,0,0,0-.877,1.431l0,.019C402.134,54.567,402.739,50.808,404.508,47.527Z" transform="translate(139.683 0)"/><path class="a" d="M399.024,82.361a.988.988,0,0,0,.826.4c15.249,0,30.521.182,45.762-.229a.958.958,0,0,0,.57-.264.852.852,0,0,0,.147-.066,1,1,0,0,0,.244-.5c.039-.1.136-.159.144-.283.946-15.625-6.172-34.168-23.9-34.854-17.863-.69-24.768,20.544-24.532,34.854A.973.973,0,0,0,399.024,82.361Zm23-1.773q-4.259,0-8.522-.016c1.726-1.117,3.418-2.242,5.1-3.367-.419.446-.853.881-1.261,1.346-.8.919.225,2.424,1.342,1.742a63.018,63.018,0,0,0,5.985-4.228,28.019,28.019,0,0,0-2.742,3.324A.9.9,0,0,0,422.028,80.588Zm6.335-27.371c.466-.365.927-.741,1.4-1.078.062-.047-2.021,2.207-2.626,2.766-1.773,1.637-2.227,1.916-2.141,1.664A24.349,24.349,0,0,0,428.362,53.217Zm-2.2-.256c.392-.357.787-.687,1.187-1.082a13.2,13.2,0,0,0-.892,1.129A1.062,1.062,0,0,0,426.159,52.961Zm1.346.5c.815-.9,1.773-1.947.345-.291C427.734,53.271,427.622,53.372,427.505,53.465Zm3.67.186c0,.194-.012.384-.015.578-.427.376-.807.714-.842.749-.182.171-.361.341-.543.512a1.1,1.1,0,0,0-.551.047c-.5.225-.939.52-1.424.76a24.193,24.193,0,0,0,3.127-2.871C431.008,53.5,431.093,53.574,431.175,53.652Zm-.155-1.579.237.182-.016.012C431.167,52.2,431.093,52.139,431.02,52.073Zm-.985,9.675c-.314.182-.617.357-.939.528l.539-.621c.384-.264.764-.535,1.152-.8l-.023.213C430.5,61.282,430.275,61.522,430.034,61.747Zm.388.442-.081.1-.109.054ZM426.435,60.4c.047-.07.1-.151.14-.2.78-.559,1.54-1.117,2.3-1.68-.066.144-.12.287-.182.431-.089.1-.186.2-.272.3C427.753,59.629,427.09,60.006,426.435,60.4Zm1.222,3.018c-.058.062-.109.124-.159.186.023-.047.043-.093.07-.14Zm.237-.562c.2-.14.4-.268.594-.411-.062.074-.124.151-.186.225-.143.07-.275.136-.415.2Zm.512.217.109-.128c.229-.124.454-.241.679-.372-.128.147-.225.334-.341.489-.287.159-.559.337-.846.5C428.126,63.412,428.207,63.3,428.405,63.07Zm1.082-4.981.012-.023.128-.1C429.584,58.016,429.53,58.047,429.487,58.089Zm.112.442-.012.039-.047.031Zm.539-.256c.082-.186.144-.376.221-.559.043-.047.078-.089.12-.132a3.551,3.551,0,0,1,.617-.756c-.012.322-.008.644-.023.966C430.764,57.958,430.446,58.109,430.139,58.276Zm.442-1.125c.019-.054.043-.112.066-.167a1.089,1.089,0,0,0,.163-.411l.051-.128a.215.215,0,0,0,.14,0c.047-.019.062-.043.109-.066,0,.109,0,.221-.008.326C430.919,56.844,430.756,57,430.581,57.151Zm-3.693-.625a22.176,22.176,0,0,1,1.835-1.738c.485-.376.958-.764,1.431-1.152.563-.4.4-.128-1.552,1.606A17.631,17.631,0,0,1,426.888,56.526Zm3.852-3.91c-.147-.167-.295-.334-.435-.5l.051-.054c.178.155.361.3.535.454C430.841,52.546,430.795,52.585,430.74,52.616Zm-.357.252c-.784.5-1.532,1.036-2.261,1.59.671-.632,1.284-1.342,1.9-2.04C430.143,52.565,430.252,52.725,430.383,52.868Zm-1.241-2.126,0,0c.14.062.26.151.4.217.221.159.435.326.656.489A6.674,6.674,0,0,0,429.142,50.742Zm.427,1.113.012.012-.054.039ZM426.1,56.018c-.3.256-.59.539-.884.807a1,1,0,0,1-.372.12C425.294,56.666,425.69,56.328,426.1,56.018Zm.089.59c.151-.1.31-.2.462-.3-.264.295-.527.594-.772.9q-.727.454-1.455.884c-.085.05-.175.093-.264.14A14.7,14.7,0,0,0,426.194,56.608Zm.334,7.262c.1-.043.213-.078.318-.12-.07.213-.151.419-.217.628-1.893,1.14-3.751,2.327-5.567,3.58C422.9,66.593,424.708,65.215,426.528,63.869Zm-2.58-6.684c-.24.314-.5.605-.729.935-.116.167.1.357.264.264l.054-.031c-.194.182-.4.345-.586.531-2.071,1.265-4.061,2.63-6.009,4.061,2.285-2.017,4.6-4,7.025-5.885l.008.05-.031.039Zm11.917,5.435a10.466,10.466,0,0,0,2.49-1.412l.074-.039c.093.256.171.516.275.768-6.42,3.569-12.382,7.491-18.372,11.478A105.357,105.357,0,0,1,435.865,62.62Zm-.772-4.407a1.246,1.246,0,0,0,.287-.237c.109.334.2.667.3,1a8.022,8.022,0,0,1-.683.853,2.712,2.712,0,0,1-.8-1.078C434.5,58.578,434.782,58.384,435.093,58.214Zm-.341-4.193c.062.05.12.1.182.155a.179.179,0,0,0-.078.12l-.008,0C434.817,54.2,434.782,54.109,434.751,54.02Zm1.16,5.73-.415.163c.116-.132.24-.264.345-.4C435.865,59.595,435.892,59.668,435.911,59.75ZM435.9,57.6c.078.031.163.062.244.089.019.213.039.4.058.636C436.1,58.082,436,57.837,435.9,57.6Zm-1.583-1.381a1.508,1.508,0,0,1-.415-.287c.031-.054.062-.1.089-.151.217.124.4.275.625.388l.023.05A1.118,1.118,0,0,0,434.321,56.216Zm-.171,2.611c-.012-.016-.031,0-.05-.016l.031-.019Zm-.2-2.506c-.143.066-.272.14-.411.209.081-.128.159-.26.236-.392Zm-.05-1.152c-.116.043-.209.12-.322.163a.54.54,0,0,1-.147-.035,3.789,3.789,0,0,1-.361-.7c-.074-.116-.124-.248-.2-.369.349.283.725.52,1.086.787A.5.5,0,0,1,433.9,55.168Zm-.221-.881c-.314-.248-.632-.485-.935-.745,0-.182.027-.361.027-.547C433.126,53.477,433.467,53.97,433.681,54.288Zm-.349-1.249c.14.085.283.147.415.229.062.268.124.52.163.733C433.708,53.687,433.553,53.341,433.332,53.039Zm-.582,1.769-.066-.062v-.031C432.7,54.746,432.73,54.773,432.75,54.808Zm.241.337c.078.12.159.244.244.357-.167.07-.322.159-.485.241-.031-.074-.078-.136-.109-.206.023-.194.016-.392.031-.586C432.773,55.021,432.886,55.075,432.99,55.145Zm.271,1.253c-.027.047-.066.081-.093.124l-.078-.151C433.149,56.386,433.2,56.379,433.262,56.4Zm-.33.442c-.182.089-.361.186-.543.279.046-.279.1-.559.132-.838.035,0,.07.012.1.012C432.719,56.483,432.831,56.658,432.932,56.84Zm-.465,2.956-.054.05c-.229.163-.45.337-.683.5l.031-.132C431.993,60.076,432.234,59.94,432.467,59.8Zm-.147-3.84c-.159.089-.345.147-.5.244l.012-.264a2.443,2.443,0,0,0,.427-.423c.027.062.054.12.085.182C432.335,55.781,432.327,55.871,432.319,55.956Zm-.12-3.065a1.525,1.525,0,0,0-.1-.124l-.062-.116c-.093-.2-.128-.291-.178-.419.186.109.384.206.574.318C432.346,52.659,432.284,52.779,432.2,52.891Zm-.334.465-.058.081c-.023-.066-.054-.132-.078-.2Zm-.047,3.037a1.83,1.83,0,0,1,.438-.089c-.047.322-.093.644-.159.962l-.376.194C431.761,57.1,431.8,56.739,431.819,56.394Zm.97,3.736c.45-.337.9-.671,1.362-1.016a.192.192,0,0,0,.047-.229c.24.345.469.7.737,1.028-.1.1-.163.237-.268.334q-1.524.646-2.991,1.369C432.04,61.162,432.42,60.646,432.789,60.13Zm3.584-1.412a4.354,4.354,0,0,0,.368-.877,5.027,5.027,0,0,0,.737.054c.078.376.159.756.26,1.129-.361.124-.695.283-1.044.415C436.582,59.2,436.478,58.958,436.373,58.718Zm3.293,5.334.039.085c.035.066.1.054.159.054.093.182.171.372.272.562q-3.043,1.431-6.086,2.863C435.9,66.406,437.785,65.231,439.666,64.052ZM438.724,61l.027-.012.023.074c.008.043,0,.081.012.124C438.762,61.123,438.747,61.061,438.724,61Zm-11.967,19.57c-.9,0-1.8.012-2.7.012a20,20,0,0,0,2.863-1.823c-.128.163-.264.314-.388.477A.921.921,0,0,0,426.756,80.569Zm6.823-.109c-.016.023,0,.05-.019.074-1.73.016-3.464.016-5.194.023,1.148-.613,2.265-1.272,3.367-1.951-.043.062-.1.109-.147.171-.7.912.624,2.06,1.517,1.517.442-.272.865-.562,1.3-.842C434.131,79.793,433.824,80.092,433.58,80.46Zm10.908-3.631c0,.085,0,.163.008.244a.729.729,0,0,0-.128-.116Zm-.264-2.975c-1,.663-1.974,1.358-2.937,2.056.966-.714,1.943-1.428,2.933-2.122Zm-.865-4.841-.031.012c-.768.369-1.482.8-2.219,1.21.745-.442,1.486-.881,2.227-1.327Zm-.555-2.149c-.132.012-.248-.043-.388.019q-2.182.954-4.337,1.928c1.509-.9,3.018-1.8,4.5-2.723C442.657,66.344,442.731,66.6,442.8,66.864Zm-1.342-3.976c.14.349.264.71.4,1.067l-.058.012c-.419.2-.842.4-1.261.594.016-.349-.039-.687-.05-1.028.3-.186.586-.38.888-.562C441.412,62.946,441.427,62.915,441.462,62.888Zm-.861-1.94a1.18,1.18,0,0,0-.334.1l-.085.05a16.6,16.6,0,0,0-.524-1.924l0-.054C439.984,59.723,440.306,60.324,440.6,60.948Zm-1.342-.741a2.531,2.531,0,0,0,.213-.384c.151.481.244.985.349,1.482-.143.078-.279.159-.419.24-.093-.33-.194-.656-.295-.989A.958.958,0,0,0,439.259,60.207Zm-1.73-4.321c.221.291.458.566.667.869.047.078.07.109.12.2.229.438.349.892.539,1.334a7.391,7.391,0,0,0-.128.737c-.043-.023-.1-.008-.147-.023-.159-.427-.334-.834-.524-1.237.012-.035.074-.039.062-.081-.043-.178-.136-.334-.194-.5.136,0,.264-.147.175-.268-.151-.206-.341-.376-.5-.57-.043-.085-.1-.159-.143-.241C437.455,55.971,437.482,55.9,437.529,55.886Zm-.435-.566c.008.1.023.213.035.318a10.7,10.7,0,0,0-2.925-2.715c-.05-.043-.1-.089-.151-.132a9.81,9.81,0,0,0-3.429-2.525c-.1-.066-.213-.124-.314-.186A17.7,17.7,0,0,1,437.094,55.32Zm-6.238-4.442.116.085c0,.016-.023.016-.015.035l.023.054c-.054-.035-.1-.078-.179-.031l-.05.035c-.345-.163-.687-.326-1.016-.477-.365-.225-.772-.458-1.094-.64-.012-.039-.012-.054-.019-.085A13.657,13.657,0,0,1,430.857,50.878Zm-2.506-.768c-.078.066-.116.163-.012.244s.225.19.334.283c.205.3.415.6.628.888a22.948,22.948,0,0,0-2.25,2.037,1.041,1.041,0,0,0-.373-.427c.578-.784,1.179-1.556,1.722-2.335.128-.186-.151-.388-.3-.233-1.075,1.086-2.456,2.095-3.6,3.134l-.047.027c1.059-1.047,2.172-2.04,3.189-3.13a.194.194,0,0,0-.237-.3l-.082.054a1.03,1.03,0,0,0,.082-.935c.144.089.489.337.912.644Zm-.954-.97c-.074.081-.1.2.012.272a1.22,1.22,0,0,0-.167-.314C427.3,49.109,427.342,49.129,427.4,49.14Zm-8.763.38.05-.016-.136.078Zm2.661,1.032a1.028,1.028,0,0,0,.279-1.594c.419-.05.811-.136,1.241-.167a17.571,17.571,0,0,1,2.971.035,92.573,92.573,0,0,0-10.664,6.152A51.7,51.7,0,0,1,421.295,50.552Zm-3.817,7.072c.07.039.151.074.225,0,.272-.241.57-.547.873-.877.24-.194.493-.369.737-.559,2.06-1.261,4-2.684,5.962-4.1,2.518-1.812-.353.83-1.909,2.281-5.089,3-9.442,6.726-13.887,10.4A94.756,94.756,0,0,1,417.477,57.624Zm1.373,14.562a30.242,30.242,0,0,0-6.885,6.893,1.031,1.031,0,0,0,.5,1.493c-1.808,0-3.619,0-5.431-.012C411.1,77.9,414.96,75.006,418.851,72.186ZM405.51,59.9a1.02,1.02,0,0,0,.586.275,25.129,25.129,0,0,0-2.413,3.441A31.169,31.169,0,0,1,405.51,59.9Zm-2.355,5a1.066,1.066,0,0,0,1.808.8c1.024-.935,2.087-1.8,3.138-2.68a65.443,65.443,0,0,0-6.606,7.7A40.594,40.594,0,0,1,403.156,64.9Zm-1.974,7.533a1.106,1.106,0,0,0,.908.446c-.415.462-.8.95-1.183,1.455C400.987,73.7,401.076,73.067,401.181,72.435Zm-.64,6.071c.074-.031.136,0,.209-.054.423-.31.838-.64,1.257-.954-.214.877.57,1.885,1.509,1.261.877-.586,1.746-1.191,2.615-1.792a19.836,19.836,0,0,0-2.289,3.189.978.978,0,0,0-.074.4q-1.629-.006-3.262-.008C400.51,79.871,400.51,79.192,400.541,78.505Z" transform="translate(133.405 24.695)"/><path class="a" d="M377.236,64.1c1.35.5,1.92-1.645.594-2.134a82.649,82.649,0,0,1-8.232-3.557c.4-.217.8-.423,1.187-.656a1.115,1.115,0,0,0,.908.217c5.772-1.059,11.676.458,17.5.341,3.6-.062,7.8-1.874,11.35-.648,1.354.469,1.924-1.676.59-2.137-3.608-1.241-8.27.124-11.94.57-4.938.605-9.845-.679-14.8-.562a28.343,28.343,0,0,1,4.05-2.161c1.3-.535.733-2.68-.586-2.141-3.93,1.614-7.122,4.527-11.04,6.133a1.12,1.12,0,0,0-.268,2.025A82.977,82.977,0,0,0,377.236,64.1Z" transform="translate(40.483 37.925)"/><path class="a" d="M357.939,71.559c-1.389-.334-1.982,1.8-.59,2.137,3.255.78,3.685,5.718,4.329,8.426s1.393,5.559,3.464,7.537l.031.019a.758.758,0,0,0,.384.213,1.1,1.1,0,0,0,1.427-.718A84.39,84.39,0,0,1,372.4,74.41c.652-1.265-1.265-2.39-1.92-1.117a66.319,66.319,0,0,0-3.984,9.973c-.473-7.731,0-15.552-1.346-23.2-.244-1.408-2.378-.807-2.134.59,1.319,7.491.892,15.167,1.319,22.755C363.048,78.654,362.939,72.758,357.939,71.559Z" transform="translate(13.281 61.278)"/><path class="a" d="M380.677,78.933c2.087,3.227,4.965,6.3,6.315,9.934a.9.9,0,0,0,.989.784c.031,0,.051.027.082.027.062,0,.1-.05.163-.054l.07-.023c1.443-.217,2.242-2.2,2.867-3.328,1.307-2.378,2.339-4.9,3.534-7.339.628-1.276-1.284-2.4-1.909-1.117-.8,1.621-1.528,3.27-2.312,4.9-.206.442-.985,2.087-1.61,3.321-1.148-8.445-.675-17.126-.419-25.6.05-1.428-2.169-1.424-2.207,0-.233,7.518-.6,15.152.062,22.678-1.222-1.788-2.56-3.515-3.72-5.3C381.81,76.625,379.886,77.731,380.677,78.933Z" transform="translate(82.192 61.584)"/><path class="a" d="M390.4,56.982c7.107.008,14.271-.012,21.39.407-1.625.721-3.2,1.575-4.775,2.436-1.261.687-.136,2.6,1.113,1.909,3.193-1.746,6.443-3.689,10.171-3.836a.882.882,0,0,0,1.02-.749.834.834,0,0,0-.066-.912c-2.754-3.623-8.146-3.483-11.734-5.92-1.183-.8-2.3,1.117-1.117,1.912a20.548,20.548,0,0,0,5.062,2.285c.8.268,1.73.528,2.638.842-7.875-.578-15.823-.582-23.7-.59A1.108,1.108,0,0,0,390.4,56.982Z" transform="translate(107.634 34.972)"/><path class="a" d="M403.32,72.576c2.552,4.713,5.462,9.213,7.665,14.1a1.1,1.1,0,0,0,.962.551c1.594,0,2.572-2.285,3.324-3.441a24.279,24.279,0,0,0,3.569-8.41c.275-1.393-1.858-1.994-2.134-.59a22.626,22.626,0,0,1-2.4,6.3c-.431.811-.939,1.575-1.443,2.351a2.684,2.684,0,0,0-.465.667,2.146,2.146,0,0,0-.291-.33,1.036,1.036,0,0,0,.3-1.02c-1.707-7.157-.3-14.69-2.456-21.766-.423-1.362-2.556-.78-2.141.59,1.746,5.691,1.183,11.711,1.788,17.592-1.455-2.576-2.96-5.121-4.36-7.72C404.558,70.2,402.638,71.323,403.32,72.576Z" transform="translate(147.508 64.031)"/><path class="a" d="M385.7,54.756c.113-.023.225-.031.334-.054l-.058-.035C385.885,54.694,385.8,54.721,385.7,54.756Z" transform="translate(97.201 48.048)"/><path class="a" d="M362.727,88.566c.485.14,1.013.206,0,0Z" transform="translate(31.05 145.649)"/></g></svg>