<svg xmlns="http://www.w3.org/2000/svg" width="274.613" height="17.818" viewBox="0 0 274.613 17.818"><defs><style>.a{fill:#063793;}</style></defs><g transform="matrix(-0.999, -0.052, 0.052, -0.999, 407.556, 394.398)"><path class="a" d="M154.4,375.9a27.865,27.865,0,0,0,8.3-3.03c.9-.57.068-2-.837-1.429a26.37,26.37,0,0,1-7.9,2.86A.83.83,0,0,0,154.4,375.9Z" transform="translate(0 10.464)"/><path class="a" d="M194.672,364.417a48.179,48.179,0,0,1-9.373,2.86.83.83,0,0,0,.439,1.6,50.284,50.284,0,0,0,9.771-3.03C196.469,365.387,195.628,363.958,194.672,364.417Z" transform="translate(37.867 2.028)"/><path class="a" d="M217.165,362.983H203.181a.829.829,0,0,0,0,1.656h13.985A.829.829,0,0,0,217.165,362.983Z" transform="translate(59.224 0.404)"/><path class="a" d="M233.486,364.305a.829.829,0,0,0,0-1.656H223.181a.829.829,0,0,0,0,1.656Z" transform="translate(83.395 0)"/><path class="a" d="M260.36,364.639a.829.829,0,0,0,0-1.656H247.847a.829.829,0,0,0,0,1.656Z" transform="translate(113.205 0.404)"/><path class="a" d="M283.763,367.973a66.62,66.62,0,0,1-11.043-2.944c-1-.386-1.425,1.219-.44,1.6a67.226,67.226,0,0,0,11.043,2.946C284.365,369.779,284.809,368.185,283.763,367.973Z" transform="translate(143.029 2.804)"/></g></svg>