<svg xmlns="http://www.w3.org/2000/svg" width="293.557" height="313.654" viewBox="0 0 293.557 313.654"><defs><style>.a{fill:#063793;}</style></defs><g transform="translate(-375.06 -372.137)"><path class="a" d="M604.323,405.631q-.11-2.317-.2-4.629a1.824,1.824,0,0,0-1.8-1.8q-17.394,0-34.8.024c-5.286,0-10.709,7.766-14.8,13.379,0-3.737.019-7.479-.083-11.221a1.848,1.848,0,0,0-1.32-1.735c-35.86-11.8-79.758-11.8-115.627,0a1.844,1.844,0,0,0-1.316,1.735c-.107,3.732-.083,7.469-.078,11.2-3.971-5.452-9.618-13.36-13.886-13.36q-17.861-.015-35.728-.024a1.826,1.826,0,0,0-1.8,1.8c-1.549,37.35,10.207,77.327,41.852,99.666,7.976,5.623,17.223,9.218,26.549,11.781,4.2,1.16,7,.745,9.764,4.458a48.686,48.686,0,0,0,11.576,11.352c2.378,1.574,11.045,4.19,11.123,7.927.19,8.75-1.174,19.81-10.953,22.719-5.554,1.652-2.246,6.514-6.49,6.514a1.821,1.821,0,0,0-1.783,1.715,2,2,0,0,0-.185,1.447q-2.521,21.581-5.033,43.153a1.789,1.789,0,0,0,1.793,1.8H525.93a1.8,1.8,0,0,0,1.793-1.8q-2.609-22.269-5.208-44.517a1.906,1.906,0,0,0-1.34-1.705,1.528,1.528,0,0,0-.906-.161h0c-2.972-.341-1.3-3.839-5.35-6.159-8.307-4.745-9.876-10.09-10.953-19.289-.8-6.86,2.724-7.031,7.776-9.866,7.425-4.161,12.064-14.919,19.952-16.643a95.7,95.7,0,0,0,25.272-9.433C590.784,485.662,605.673,442.173,604.323,405.631ZM437.957,402.7c3.216-.994,6.5-1.773,9.793-2.543a210.342,210.342,0,0,1,45.75-5.1,202.8,202.8,0,0,1,45.76,5.1c3.294.726,6.553,1.6,9.783,2.543.419.132.575,1.447.609,3.2-19.079-5.092-37.706-7.869-57.546-7.367-17.905.448-37.321.93-54.686,5.944C437.5,403.5,437.665,402.79,437.957,402.7Zm81.2,166.362c.01.156,0,.268.024.458.1.887.209,1.778.307,2.66-6.363.156-12.7.824-19.084.872-2.314.024-2.319,3.62,0,3.6,6.519-.058,12.994-.745,19.508-.872q.219,1.842.429,3.678c.049.419.1.838.151,1.262-10.3,1.062-20.746,1.637-31.07,1.71-2.314.01-2.324,3.61,0,3.6,10.461-.068,21.058-.658,31.484-1.744.224,1.934.453,3.873.677,5.8-11.762.122-23.5,1.028-35.28,1.1-2.319.015-2.319,3.61,0,3.586,11.913-.059,23.8-.994,35.7-1.1q.263,2.251.526,4.492c-14.134.107-28.259.775-42.4.828-2.319.01-2.319,3.615,0,3.6,14.28-.054,28.551-.745,42.822-.838.195,1.681.395,3.367.59,5.052.132,1.048.248,2.085.375,3.123H462.952a8.091,8.091,0,0,0,.356-1.705q1.556-13.323,3.113-26.641.636-5.43,1.277-10.845c.039-.346.039-.57.058-.838C484.881,570.049,502.1,571.023,519.157,569.059Zm81.561-163.428c1.087,29.287-8.278,60.781-28.653,82.243-10.855,11.45-25.374,18.281-40.542,21.881-1.627.38-4.594.3-5.852,1.564-8.044,8.044-12.8,15.523-24.2,19.43a1.836,1.836,0,0,0-1.32,1.734c.015,7.9.531,16.677,4.161,23.884,2.7,5.35,8.361,5.077,10.636,9.515-14.285,1.257-28.678.682-43.017.463,2.188-5.223,8.775-4.185,11.649-10.1,3.5-7.177,3.844-15.849,3.688-23.664a1.853,1.853,0,0,0-1.32-1.739c-7.859-2.568-13.808-7.075-19.464-13-5.34-5.6-3.045-6.348-8.473-7.542a93.427,93.427,0,0,1-31.46-12.741c-26.544-17.2-37.531-50.369-39.972-80.377-.283-3.415-.36-6.845-.331-10.28.029-3.138.175-4.1-.784-4.1q11.657,0,23.323.01h9.462c3.493.01,1.335-.9,3.206,1.228q6.665,7.506,13.33,15.031a1.808,1.808,0,0,0,3.065-1.272c-.015-1.54-.395-5.92-.492-9.584,17.374-5.213,36.707-5.306,54.744-6.085,19.654-.862,38.612,2.348,57.5,7.469-.141,3.318-.434,6.86-.448,8.2a1.807,1.807,0,0,0,3.065,1.272q4.823-5.438,9.637-10.875c4.458-5.038,3-5.374,8.385-5.384q10.948,0,21.9-.01h8.478a2.274,2.274,0,0,0,.843-.107C601.244,402.829,600.625,403.434,600.718,405.631Z" transform="translate(29.767 72.258)"/><path class="a" d="M438.815,465.357c-4.629-14.816-6.748-30.364-7.966-45.789a1.815,1.815,0,0,0-.892-1.549c-2.694-1.276-6.621-7.532-8.853-10.061q-5.269-5.949-10.529-11.878c-3.118-3.523-19.386-.726-24.044-.726a1.812,1.812,0,0,0-1.8,1.8c1.5,40.478,19.231,78.613,59.948,91.363a1.822,1.822,0,0,0,.224.024,1.693,1.693,0,0,0,.317.029,2.018,2.018,0,0,0,.3,0,1.328,1.328,0,0,0,.521-.19l.039-.02a1.482,1.482,0,0,0,.414-.4l.058-.073a2.018,2.018,0,0,0,.151-.195,2.567,2.567,0,0,0,.1-.341l.02-.083a1.888,1.888,0,0,0-.083-1.432A151.551,151.551,0,0,1,438.815,465.357Zm-45.19-34.578a123.285,123.285,0,0,1-4.536-22.821c-.375-3.079-.692-9-1.452-9q10.21,0,20.41.01c.614,0,.2-.1,2.1,2.032q3.42,3.873,6.85,7.747c2.9,3.269,7.026,10.426,11.045,12.351.477.209,3.888,31.937,4.551,34.856a170.4,170.4,0,0,0,4.838,16.819c.2.6,3.474,7.6,5.169,11.123C417.7,475,401.645,456.007,393.626,430.779Z" transform="translate(37.455 85.82)"/><path class="a" d="M480.123,395.363c-4.395,0-20.965-2.728-23.864.546q-4.568,5.145-9.121,10.3c-2.607,2.938-7.206,10.368-10.422,11.825a1.507,1.507,0,0,0-.765,1.086c-4.263,2.465-8.531,4.7-13.389,5.749-1.515.341-.872,2.65.638,2.314a45.1,45.1,0,0,0,12.375-5.1c-.054.594-.122,1.189-.175,1.778-1.925,1.934-4.716,3.182-7.089,4.346a73.983,73.983,0,0,1-8.409,3.542c-1.452.507-.828,2.821.633,2.329a85.731,85.731,0,0,0,8.994-3.8,40.937,40.937,0,0,0,5.535-3.026c-.1.94-.166,1.885-.273,2.821-4.346,4.76-10.87,6.451-16.541,9.2-1.393.672-.171,2.753,1.208,2.066,4.965-2.4,10.5-4.054,14.812-7.493-.044.317-.088.638-.132.955-3.367,5.969-11.937,8.244-17.716,11.07-1.393.672-.175,2.733,1.2,2.066,5.009-2.441,11.576-4.492,15.874-8.536-.146.94-.3,1.886-.453,2.826a41.1,41.1,0,0,1-18.407,11c-2.222.658-1.281,4.132.945,3.464a47.158,47.158,0,0,0,16.341-8.429c-.292,1.5-.57,2.987-.9,4.478-5.574,3.961-10.646,8.8-17.043,11.464-2.11.877-1.189,4.366.955,3.459,5.54-2.29,10.1-5.964,14.807-9.515-.322,1.291-.585,2.587-.926,3.874-.083.307-.19.594-.278.9-.049.034-.107.039-.161.078-5.169,4.059-9.954,8.327-15.669,11.635a1.8,1.8,0,0,0,1.813,3.109,95.358,95.358,0,0,0,12.185-8.819c-.521,1.574-1.082,3.133-1.647,4.692a1.438,1.438,0,0,0-.268.195,57.148,57.148,0,0,1-12.083,10.178c-1.92,1.277-.122,4.4,1.813,3.108a82.628,82.628,0,0,0,6.806-4.955,13.387,13.387,0,0,0-1.637,4.653,1.809,1.809,0,0,0,2.28,1.734c38.51-11.113,56.868-49.823,59.763-87.149.058-1.408.122-2.816.18-4.215A1.809,1.809,0,0,0,480.123,395.363Zm-1.983,6.012c-1.388,17.959-6.271,35.562-15.421,51.139a74.058,74.058,0,0,1-27.236,26.563,72.562,72.562,0,0,1-11.162,4.931c-.195.073-.341.127-.511.195a5.245,5.245,0,0,0,1.768-2.037,142.2,142.2,0,0,0,5.744-15.839,167.847,167.847,0,0,0,5.174-22.622,1.676,1.676,0,0,0,.17-1.057q1.169-7.228,2-14.485c.448-4-.8-6.08,1.642-8.848q3.91-4.4,7.805-8.8l8.429-9.51c2.441-2.763.56-2.032,3.328-2.032q6.154,0,12.293-.01h5.608C481.385,398.964,478.272,398.437,478.14,401.376Z" transform="translate(142.43 85.81)"/><path class="a" d="M401.285,373.873c.1,4.058,1.389,7.946,1.5,12,.054,2.324,3.649,2.324,3.6,0-.093-4.049-1.4-7.937-1.5-12C404.822,371.563,401.226,371.553,401.285,373.873Z" transform="translate(101.544 0)"/><path class="a" d="M415.333,374.228c-1.427,3.8-1.686,7.888-3.1,11.688-.828,2.178,2.656,3.108,3.464.96,1.423-3.8,1.676-7.893,3.108-11.688C419.621,373.01,416.147,372.079,415.333,374.228Z" transform="translate(143.438 3.382)"/><path class="a" d="M429.338,378.648c-2.762,2.982-4.521,6.68-7.264,9.671-1.574,1.7.97,4.253,2.543,2.543,2.748-2.991,4.522-6.694,7.255-9.676C433.45,379.486,430.912,376.938,429.338,378.648Z" transform="translate(180.129 23.02)"/><path class="a" d="M439.87,386.879c-3.678,1.735-6.7,4.507-10.363,6.251-2.1.994-.268,4.093,1.812,3.1,3.674-1.73,6.694-4.512,10.368-6.246C443.787,389,441.955,385.9,439.87,386.879Z" transform="translate(207.23 56.349)"/><path class="a" d="M445.825,397.51c-4.044.234-7.893,1.681-11.947,1.91-2.3.136-2.314,3.732,0,3.6,4.058-.234,7.913-1.676,11.947-1.915C448.139,400.989,448.154,397.374,445.825,397.51Z" transform="translate(221.05 98.236)"/><path class="a" d="M445.708,411.247c-3.849-1.3-7.942-1.408-11.8-2.709-2.2-.736-3.143,2.743-.945,3.479,3.844,1.286,7.942,1.394,11.791,2.7C446.955,415.471,447.9,411.992,445.708,411.247Z" transform="translate(219.385 140.559)"/><path class="a" d="M430.468,418.533c-1.744-1.5-4.3,1.028-2.543,2.538,3.084,2.646,6.855,4.278,9.92,6.928,1.749,1.51,4.312-1.018,2.548-2.548C437.313,422.791,433.547,421.173,430.468,418.533Z" transform="translate(202.419 177.883)"/><path class="a" d="M423.051,426.244c-1.067-2.056-4.18-.234-3.118,1.822,1.871,3.605,4.75,6.529,6.607,10.139,1.062,2.056,4.171.234,3.113-1.822C427.8,432.773,424.912,429.85,423.051,426.244Z" transform="translate(172.914 206.021)"/><path class="a" d="M395.256,425.761c-2.514,3.172-4.039,6.992-6.573,10.144-1.432,1.8,1.091,4.356,2.543,2.548,2.543-3.172,4.054-6.982,6.587-10.159C399.236,426.506,396.7,423.948,395.256,425.761Z" transform="translate(51.104 205.238)"/><path class="a" d="M390.8,418.027c-3.532,2-6.358,4.975-9.9,6.953-2.027,1.135-.214,4.244,1.817,3.109,3.537-1.993,6.373-4.965,9.9-6.953C394.635,419.99,392.822,416.887,390.8,418.027Z" transform="translate(19.164 176.737)"/><path class="a" d="M388.907,408.125c-4.034.536-7.776,2.222-11.786,2.738-2.27.287-2.3,3.9,0,3.6,4.029-.5,7.761-2.2,11.786-2.738C391.168,411.424,391.192,407.823,388.907,408.125Z" transform="translate(1.344 139.285)"/><path class="a" d="M389.257,399.124c-3.932-1.018-8.039-.853-11.961-1.881-2.246-.589-3.2,2.884-.955,3.464,3.927,1.043,8.025.872,11.947,1.881C390.539,403.168,391.5,399.689,389.257,399.124Z" transform="translate(0 96.958)"/><path class="a" d="M392.024,392.936c-3.26-2.4-7.118-3.786-10.368-6.217-1.861-1.393-3.649,1.739-1.817,3.108,3.245,2.426,7.113,3.8,10.368,6.212C392.083,397.433,393.871,394.3,392.024,392.936Z" transform="translate(15.533 55.111)"/><path class="a" d="M391.649,377.773a1.8,1.8,0,0,0-3.1,1.808,44.787,44.787,0,0,0,4.307,6.1,34.368,34.368,0,0,1,2.982,3.552c1.218,1.968,4.346.171,3.109-1.812a26.329,26.329,0,0,0-2.777-3.4A40.1,40.1,0,0,1,391.649,377.773Z" transform="translate(51.202 18.453)"/></g></svg>