<svg xmlns="http://www.w3.org/2000/svg" width="262.398" height="145.283" viewBox="0 0 262.398 145.283"><defs><style>.a{fill:#063793;}</style></defs><g transform="matrix(0.996, -0.087, 0.087, 0.996, 17.993, -10.003)"><path class="a" d="M188.117,61.714a.354.354,0,0,0,.1-.211c.211-2.558-2.088-3.476-4.058-4.428l-2.591-1.262c-5.71-3.311-11.558-6.556-17.48-9.444-7.256-3.542-14.935-5.928-23.07-5.908a76.165,76.165,0,0,0-22.7,3.978c-3.172,1-6.278,2.154-9.344,3.417a136.741,136.741,0,0,0-13.31-7.706,133.609,133.609,0,0,0-15.457-7.395c-7.824-2.961-17.929-4.031-24.537,2.22a.261.261,0,0,0-.073.271l-.086.066a.39.39,0,0,0-.337.681c.747.489,1.5.978,2.26,1.454,4.494,3.6,9.318,6.873,13.957,10.27,5.036,3.681,10.045,7.395,15.12,11.03-5,2.63-9.972,5.287-15.028,7.772-14.889,7.322-33.241,14.955-49.9,9.107C13.249,72.684,8.048,65.593.514,61.423a20.007,20.007,0,0,0-11.849-2.386c-.317.026-.628.073-.938.119a19.937,19.937,0,0,0-8.34,3.331.381.381,0,0,0,.238.667,1.631,1.631,0,0,0,.3.621.441.441,0,0,0,.377.185l.02.046c.958,1.355,1.943,2.69,2.934,4.025a.427.427,0,0,0,.159.225c.469.628.938,1.249,1.408,1.877a.414.414,0,0,0,.39.509c1.077,1.421,2.161,2.842,3.258,4.249a.418.418,0,0,0,.35.449c2.128,2.736,4.276,5.465,6.377,8.214,4.672,6.08,9.14,12.431,14.07,18.306a9.281,9.281,0,0,0,1.751,2.557C7.506,108.509,4.063,112.659.62,116.8a.82.82,0,0,0-.073.932.407.407,0,0,0-.02.621c2.339,2.108,5.34,1.421,8.043.476,3.787-1.322,7.547-2.69,11.32-4.044,3.635,2.868,10.831,1,14.611.33,5.763-1.024,12.563-2.141,17.883-5.042-8.789,10.27-17.44,20.678-26.573,30.624a.784.784,0,0,0,.522,1.249.308.308,0,0,0,.1.443c7.613,4.851,18.418,1.586,26.044-1.692a55.025,55.025,0,0,0,11.558-6.721c3.139-2.379,6.827-5.366,9.107-8.743a4.859,4.859,0,0,0,1.3,2.273c3.027,3.073,7.891.5,9.734-2.577a7.528,7.528,0,0,0,1.057-3.787,6.1,6.1,0,0,0-.416-4.3,3.448,3.448,0,0,0,.469.317c.026.311.39.535.621.3a3.681,3.681,0,0,0,.952.218.412.412,0,0,0,.714.218l.178-.2a6.854,6.854,0,0,0,4.8-3.04c1.718-2.577,2.815-7.058-.106-9.252-.119-.086-.245-.152-.363-.231a1.527,1.527,0,0,0-.159-1.546,23.281,23.281,0,0,0,1.85-2.287c10.283-3.641,20.625-7.1,30.981-10.514a.294.294,0,0,0,.159-.059q10.418-3.43,20.837-6.86a.413.413,0,0,0,.41-.132c1.685-.562,3.37-1.117,5.056-1.679q7.643-2.548,15.246-5.181c4.269-1.487,8.862-2.723,12.887-4.8a22,22,0,0,0,7.256-5.71h.007a.657.657,0,0,0,.509-.35,5.806,5.806,0,0,0,.9-2.591v-.013A5.458,5.458,0,0,0,188.117,61.714ZM170.373,51.556a24.037,24.037,0,0,1-21.914-2.921q3.489-2.032,6.979-4.071A94.436,94.436,0,0,1,170.373,51.556Zm-114.3-16.25c8.34-6.159,18.3-3.555,27,.456,8.294,3.826,16.012,8.551,24,12.893-4.8,2.049-9.49,4.342-14.136,6.734a.393.393,0,0,0-.621-.251l-.291.231a.278.278,0,0,0-.112.139l-.139-.079q3.965-2.121,7.93-4.236c.449-.238.139-.965-.3-.727q-4.213,2.25-8.419,4.494c-.311-.178-.615-.357-.925-.535q3.073-1.606,6.146-3.218c.449-.231.145-.958-.311-.72q-3.321,1.735-6.635,3.469c-.278-.159-.549-.317-.819-.476q2.448-1.308,4.9-2.61c.443-.238.139-.965-.311-.727q-2.676,1.418-5.353,2.842l-.04.04c-.357-.2-.714-.4-1.071-.608q2.1-1.229,4.19-2.452c.43-.258.126-.985-.311-.727-1.553.912-3.113,1.824-4.666,2.736-.469-.264-.932-.535-1.4-.793l3.886-2.28c.436-.251.132-.985-.3-.727-1.46.852-2.914,1.7-4.375,2.557-.225-.126-.456-.251-.681-.377L86.161,48.6c.443-.238.139-.965-.311-.72q-1.626.872-3.251,1.751a.312.312,0,0,0-.178-.073h-.046a.4.4,0,0,0-.667.093l-.013.026q-3.43-1.9-6.86-3.813c-5.611-3.119-11.168-6.443-16.9-9.358C57.315,36.092,56.7,35.7,56.072,35.306ZM90.635,56.579c-.469.245-.938.489-1.4.734l-.846-1.969c.383.218.76.416,1.137.628-.007.271.225.542.522.377l.086-.046C90.3,56.4,90.463,56.486,90.635,56.579Zm-18.5-9.84c-1.434-1.038-2.861-2.1-4.289-3.159,2.088,1.183,4.177,2.359,6.252,3.555l7.316,4.243a3.593,3.593,0,0,0,1.13,2.32c.363.35.846-.284.476-.628a2.622,2.622,0,0,1-.714-1.183l1.071.621c.3,1.024.608,2.042.912,3.066C80.253,52.614,76.189,49.68,72.138,46.739Zm12.88,9.371a.42.42,0,0,0,.119-.43c-.258-.872-.515-1.745-.773-2.61l.892.5a.309.309,0,0,0,.02.112c.482,1.123.958,2.247,1.441,3.364a.4.4,0,0,0,.727-.311c-.363-.846-.72-1.692-1.09-2.538.311.172.608.35.919.522v.013c.423.978.839,1.956,1.262,2.941-.271.139-.535.284-.8.423C86.835,57.425,85.923,56.771,85.018,56.11ZM1.975,64.436c5.525,3.813,10.052,8.888,16.25,11.7,13.058,5.928,28.357,2.749,41.145-2.3,11.439-4.52,22.125-10.627,33.016-16.29h0a.74.74,0,0,0,1.024-.529c3.066-1.579,6.153-3.126,9.285-4.586,13.792-6.443,29.89-12.272,45.341-9.754a44.966,44.966,0,0,1,6.417,1.56c-2.3,1.335-4.586,2.676-6.879,4.011a.4.4,0,0,0-.086.681,24.869,24.869,0,0,0,23.8,3.132l.126.073c.489.278.971.542,1.467.806q-3.856,1.219-7.7,2.465a.372.372,0,0,0-.5.093l-.073.093C151.6,59.8,138.639,64.172,125.468,67.952A790.92,790.92,0,0,1,33.59,88.406c-5.485.886-10.289,1.639-15.583-.562a43.51,43.51,0,0,1-11.519-7.6,78.565,78.565,0,0,1-10.481-11.1c-2.207-2.822-4.15-5.875-6.3-8.75A21.563,21.563,0,0,1,1.975,64.436Zm9.206,52.617c-2.914,1.044-6.694,3.007-9.563,1.137,5.895-1.018,11.737-2.174,17.1-4.712a4.5,4.5,0,0,0,.515.694Q15.212,115.619,11.181,117.053Zm8.492-4.044a31.376,31.376,0,0,0,3.212-1.864c.714-.469,1.4-.958,2.068-1.467q-1.655,2.092-3.311,4.2A15.7,15.7,0,0,1,19.673,113.009ZM27.6,142.04l.245.02v.066ZM73.01,123.854c-.456.4-.9.826-1.335,1.249.231-.449.449-.9.674-1.309.145-.258-.284-.5-.449-.258a16.2,16.2,0,0,0-2.055,3.245.317.317,0,0,0-.02.172c-.152.152-.3.311-.456.469.2-.3.383-.608.575-.905s-.245-.661-.456-.357a21.489,21.489,0,0,0-1.328,2.035.238.238,0,0,0,.126.33,40.745,40.745,0,0,1-3.608,3.3,57.06,57.06,0,0,1-11.082,6.84c-7.692,3.6-16.693,6.106-25.013,3.694l.2-.245c18.3.892,32.521-8.32,44.819-20.671A6.7,6.7,0,0,0,73.01,123.854Zm9.417,1.256a6.987,6.987,0,0,1-2.26,1.751c.482-.773.965-1.546,1.454-2.32.264-.43-.363-.912-.628-.482-.681,1.09-1.361,2.174-2.042,3.265a4.855,4.855,0,0,1-.74.139c1.044-1.507,2.088-3.02,3.132-4.527.291-.416-.337-.9-.628-.476q-1.735,2.508-3.469,5.009a3.192,3.192,0,0,1-1.137-.337l4.084-5.948c.284-.423-.337-.9-.628-.482q-2.042,2.984-4.1,5.961a3.439,3.439,0,0,1-.575-.707c1.223-2.088,2.439-4.19,3.661-6.285.251-.436-.37-.919-.628-.482q-1.715,2.954-3.443,5.915a4.876,4.876,0,0,1-.258-1.262c1.1-1.527,2.2-3.047,3.3-4.573.3-.41-.324-.892-.628-.476-.846,1.176-1.7,2.346-2.551,3.522a7.638,7.638,0,0,1,.74-1.89.465.465,0,0,0,.456-.4,5.157,5.157,0,0,1,.112-.555c.106-.159.218-.324.33-.482q1.2-1.269,2.379-2.571a3.945,3.945,0,0,1,4.362,1.289C84.634,119.882,84.158,122.988,82.427,125.109ZM79.81,114.8l.046-.053.02.059Zm1.533-1.758c.2-.238.416-.476.621-.72-.033.132-.059.264-.1.4a1.957,1.957,0,0,0-.258.476C81.515,113.141,81.429,113.088,81.343,113.042Zm1.52,2.928a4.744,4.744,0,0,0-.416-.3.444.444,0,0,0,.185-.02l.033.046.013.013C82.744,115.791,82.8,115.884,82.863,115.97Zm.549-5.353.3-.357c-.046.126-.1.258-.139.383A.322.322,0,0,0,83.412,110.617Zm8.082,3.225a5.977,5.977,0,0,1-1.91,1.791c.251-.278.5-.562.753-.846.337-.377-.291-.853-.628-.476-.582.654-1.163,1.308-1.745,1.969a3.32,3.32,0,0,1-1.3,0c.985-1.6,1.976-3.2,2.961-4.8.264-.423-.363-.905-.628-.476q-1.546,2.508-3.093,5.009a2.792,2.792,0,0,1-.886-.76.32.32,0,0,0,.119-.112q1.8-2.686,3.621-5.366c.284-.423-.344-.905-.628-.482q-1.774,2.637-3.555,5.267c-.033-.066-.066-.119-.1-.192a4.655,4.655,0,0,1-.377-1.632.35.35,0,0,0,.568-.026l2.293-3.4a.188.188,0,0,0,.178-.258l.026-.046c.291-.423-.337-.905-.621-.482-.813,1.2-1.632,2.412-2.445,3.615a8.239,8.239,0,0,1,.859-2.974c1.6-1.388,3.192-3.5,5.564-3.08C94.256,106.751,92.888,111.727,91.494,113.842Zm-.72-10.732c-.066,0-.132.013-.2.02a.3.3,0,0,0-.238.066,1.508,1.508,0,0,0-.489.278l-.053-.033a.193.193,0,0,0-.185.3l-.033.033a.276.276,0,0,0-.02.291.913.913,0,0,0-.291.568,5.634,5.634,0,0,0-1.236.37l1.811-2.267.033-.007c.476-.172.952-.33,1.421-.5C91.111,102.515,90.939,102.805,90.774,103.109Zm.562,1.11a.673.673,0,0,1,.046.39.57.57,0,0,1-.073.185,3.361,3.361,0,0,0-.489-.132C90.992,104.517,91.163,104.372,91.335,104.22Zm94.5-39.155a.7.7,0,0,0-.119.39v.007a13.262,13.262,0,0,1-3.331,3.126.36.36,0,0,0-.363.238c-.535.357-1.084.681-1.652,1q2.191-3.727,4.368-7.448c.258-.436-.37-.919-.628-.476q-2.518,4.292-5.042,8.6c-1.242.608-2.5,1.137-3.688,1.593q3.479-5.432,6.965-10.871c.278-.423-.35-.905-.621-.482q-3.787,5.9-7.567,11.79l-.007.02c-.6.225-1.163.423-1.685.608-.542.192-1.077.377-1.612.568q2.072-3.955,4.15-7.91c.238-.449-.5-.747-.727-.3q-2.26,4.3-4.514,8.591c-1.322.463-2.643.932-3.965,1.388q2.171-3.351,4.335-6.7c.278-.43-.35-.912-.628-.482q-2.458,3.8-4.917,7.6-1.824.634-3.661,1.256l3.912-5.815c.284-.423-.344-.905-.628-.482l-4.52,6.721c-.661.231-1.322.456-1.983.681q1.7-3.132,3.4-6.265c.245-.449-.489-.747-.727-.3q-1.883,3.469-3.773,6.939l-2.65.892q1.14-2.211,2.267-4.415c.231-.456-.5-.753-.734-.3q-1.3,2.538-2.6,5.082c-.846.284-1.7.568-2.551.852q1.824-3.9,3.648-7.8c.218-.463-.509-.76-.727-.3q-1.973,4.213-3.952,8.446c-.694.231-1.388.463-2.088.694q2.111-4.015,4.21-8.036c.238-.449-.5-.747-.734-.3q-2.27,4.352-4.547,8.7l-1.494.5-.357.119c.773-1.705,1.54-3.417,2.313-5.128.2-.463-.522-.767-.734-.3-.859,1.916-1.731,3.84-2.591,5.763-.892.291-1.784.588-2.676.879Q143.5,79,146.391,74.039c.251-.436-.377-.919-.628-.482q-3.142,5.393-6.271,10.778c-.846.284-1.685.562-2.531.839q2.121-3.113,4.256-6.225c.284-.423-.344-.905-.628-.482q-2.26,3.3-4.52,6.609a.376.376,0,0,0-.02.4c-.793.264-1.586.522-2.372.78q2.052-3.935,4.111-7.864c.238-.456-.5-.753-.727-.3q-2.092,3.985-4.17,7.97a.321.321,0,0,0,.093.43q-1.794.585-3.575,1.176,2.389-3.876,4.778-7.739c.264-.43-.363-.912-.634-.482q-2.647,4.3-5.307,8.6c-.661.211-1.328.436-2,.654q2.914-4.659,5.829-9.325c.271-.43-.357-.912-.621-.482q-3.192,5.1-6.371,10.19l-3.423,1.13q2.954-4.233,5.9-8.472c.291-.416-.337-.9-.628-.482q-3.261,4.689-6.523,9.371-3.469,1.15-6.939,2.313,2.974-4.778,5.948-9.549c.271-.43-.357-.912-.628-.482q-3.142,5.056-6.285,10.1a.386.386,0,0,0-.053.278l-2.32.773,4.877-9.2c.231-.449-.5-.747-.734-.3q-2.617,4.937-5.227,9.873c-.806.271-1.606.548-2.412.819q2.944-4.619,5.882-9.239c.271-.43-.357-.912-.628-.482q-3.123,4.917-6.258,9.833a.434.434,0,0,0-.053.251c-.674.225-1.342.449-2.009.681q2.726-4.471,5.445-8.935c.264-.43-.363-.912-.628-.476-1.989,3.271-3.992,6.542-5.981,9.814l-2.868.991q3.4-5.561,6.78-11.135c.264-.43-.357-.912-.621-.482q-3.668,6.017-7.322,12.027c-1,.344-2.009.7-3.02,1.051l.377-.515c1.646-2.174,3.575-4.3,4.738-6.78a.486.486,0,0,0-.74-.568c-2.035,1.831-3.522,4.282-5.135,6.483-.549.753-1.15,1.5-1.738,2.273-.41.145-.819.284-1.223.43,5.036-6.357,9.906-12.609,14.816-18.061.681-.76-.582-1.712-1.262-.958-9.767,10.8-17.962,23.051-27.776,33.816a4.755,4.755,0,0,0-2.624,2.8c-.965,1-1.956,1.976-2.954,2.941q.962-1.338,1.93-2.67c.3-.416-.33-.892-.628-.482q-2.131,2.954-4.269,5.908-1.6,1.418-3.271,2.762,2.359-2.974,4.718-5.954a.4.4,0,0,0-.628-.482c-2.227,2.8-4.441,5.6-6.668,8.413-.535.39-1.077.78-1.619,1.163q2.6-3.6,5.194-7.19c.3-.416-.33-.9-.628-.482q-3.241,4.481-6.483,8.968-1.239.813-2.511,1.573,2.5-3.6,5-7.2c.291-.416-.337-.9-.628-.482q-2.984,4.312-5.967,8.611-1.289.714-2.6,1.381,2.121-2.944,4.243-5.882c.3-.41-.33-.892-.628-.476q-2.558,3.539-5.115,7.091c-.925.43-1.857.839-2.809,1.229l3.714-4.983c.3-.41-.324-.892-.628-.482q-2.082,2.8-4.15,5.578a.36.36,0,0,0-.059.337c-.965.37-1.936.714-2.914,1.024q1.992-3.2,4-6.41c.271-.43-.357-.912-.628-.482-1.427,2.3-2.868,4.6-4.3,6.893a.4.4,0,0,0-.059.3c-1,.3-2.009.568-3.027.8q1.893-2.548,3.78-5.1c.3-.41-.324-.892-.628-.482q-2.161,2.914-4.329,5.835c-.78.159-1.566.3-2.353.423,1.229-1.546,2.465-3.1,3.7-4.639.317-.4-.311-.879-.628-.482q-2.111,2.637-4.216,5.287c-.681.079-1.368.152-2.055.2l4.243-5.082c.324-.39-.3-.866-.628-.476q-2.349,2.815-4.705,5.644c-.833.04-1.665.059-2.5.053q1.249-1.487,2.5-2.967c.33-.39-.3-.872-.628-.482q-1.447,1.715-2.888,3.43c-.337-.007-.674-.013-1.011-.033,15.953-17.651,31.232-35.95,46.7-54.018.377-.436-.311-.925-.7-.529C67.234,93,60.725,100.367,54.314,107.821a.922.922,0,0,0-.317-.2q2.657-3.906,5.32-7.824c.284-.416-.344-.9-.628-.476q-2.875,4.233-5.749,8.459c-1.031.344-2.042.74-3.047,1.157q3.638-5.343,7.289-10.693c.284-.423-.344-.905-.628-.482q-3.995,5.858-7.99,11.724c-.938.39-1.89.76-2.848,1.084q3.331-5.155,6.661-10.3c.278-.423-.35-.905-.628-.482q-3.579,5.541-7.164,11.069l-.02.066c-1.17.35-2.346.674-3.529.958q3.479-5.561,6.959-11.129c.271-.43-.357-.912-.628-.482q-3.707,5.938-7.415,11.869c-.932.218-1.87.423-2.8.615q2.567-4.223,5.135-8.446c.264-.436-.363-.919-.628-.482q-2.776,4.57-5.564,9.146c-.872.172-1.751.35-2.637.529q3.132-4.609,6.258-9.212c.284-.423-.344-.9-.628-.482q-3.36,4.956-6.727,9.913c-.853.165-1.7.33-2.557.469q2.934-3.747,5.875-7.494c.317-.4-.311-.879-.628-.476l-6.377,8.122c-.357.053-.714.112-1.071.152a15.721,15.721,0,0,1-1.976.093q3.668-4.917,7.329-9.847a.4.4,0,0,0-.628-.482Q28.5,109.4,24.682,114.542a11.965,11.965,0,0,1-2.24-.41l4.236-5.366a.352.352,0,0,0-.02-.476,38.684,38.684,0,0,0,9.675-12.635c.5-1.038-1.137-1.7-1.646-.681a37.112,37.112,0,0,1-12.913,14.744c-.311.211-.634.41-.958.608.621-1.17,1.236-2.333,1.857-3.5.238-.449-.5-.747-.727-.3q-1.209,2.26-2.406,4.533c-.958.522-1.93.978-2.921,1.4q1-1.556,2.016-3.113c.271-.423-.35-.905-.628-.482-.892,1.375-1.771,2.743-2.663,4.111-.925.35-1.864.674-2.815.965l3.073-3.925a.394.394,0,0,0-.628-.476q-1.874,2.389-3.74,4.785c-.813.225-1.632.436-2.458.628q1.824-2.25,3.641-4.5c.324-.4-.3-.872-.621-.482q-2.141,2.637-4.269,5.267-.6.139-1.209.258,1.517-1.764,3.047-3.529c.33-.39-.3-.866-.628-.482q-1.844,2.131-3.674,4.269c-.5.093-.991.185-1.487.271,5.227-6.285,10.481-12.576,15.365-19.138.37-.5-.344-1.011-.747-.568-2.042,2.207-4.031,4.467-6.007,6.747-.218-.41-.489-.8-.72-1.176a23.984,23.984,0,0,0-1.447-2.181.291.291,0,0,0-.2-.119q-1.874-2.607-3.84-5.155a.368.368,0,0,0,.39-.033q2.448-1.715,4.89-3.423c.416-.291-.073-.919-.489-.621L5.881,93.778a.341.341,0,0,0-.145.35c-.39-.509-.78-1.011-1.176-1.513q1.546-1.17,3.093-2.326c.4-.3-.079-.925-.489-.621q-1.546,1.16-3.086,2.32c-.4-.509-.8-1.018-1.2-1.527.971-.753,1.936-1.513,2.908-2.267a.4.4,0,0,0-.489-.621q-1.447,1.14-2.908,2.267c-.337-.43-.681-.859-1.018-1.289L4.48,85.914c.383-.324-.1-.945-.489-.615Q2.434,86.608.871,87.93C.382,87.309-.107,86.694-.6,86.073v-.007Q1.555,84.579,3.7,83.1c.423-.291-.066-.912-.482-.628q-2.151,1.487-4.3,2.974l-.007.007c-.33-.423-.661-.853-.991-1.275,1.024-.8,2.055-1.606,3.086-2.405.4-.311-.086-.938-.482-.621l-3.093,2.4c-.278-.357-.562-.72-.839-1.084-.106-.126-.2-.264-.3-.39,1.024-.806,2.055-1.606,3.073-2.412a.393.393,0,0,0-.482-.621q-1.536,1.2-3.066,2.406c-.37-.489-.74-.971-1.11-1.46.846-.72,1.685-1.434,2.524-2.154.383-.33-.1-.952-.482-.628q-1.259,1.081-2.518,2.154c-.324-.43-.654-.853-.978-1.289l2.895-2.24a.4.4,0,0,0-.489-.621l-2.881,2.234c-.416-.549-.833-1.09-1.249-1.639.853-.674,1.7-1.342,2.558-2.016a.394.394,0,0,0-.482-.621q-1.279,1-2.551,2c-.245-.324-.5-.648-.74-.978.482-.423.965-.839,1.447-1.262.39-.33-.093-.952-.482-.621-.482.423-.958.839-1.441,1.256-.529-.694-1.064-1.388-1.593-2.082q1.586-1.15,3.192-2.3c.41-.3-.073-.925-.489-.628-1.064.773-2.121,1.54-3.192,2.306L-13.3,69.492c.859-.727,1.725-1.447,2.577-2.174.39-.324-.093-.952-.482-.621q-1.289,1.09-2.577,2.168c-.4-.522-.813-1.044-1.223-1.566,1.1-.919,2.2-1.831,3.3-2.756.39-.317-.093-.945-.489-.621-1.1.925-2.207,1.844-3.317,2.769-.357-.449-.72-.892-1.077-1.328q1.09-.942,2.168-1.883c.383-.33-.1-.958-.482-.621-.727.628-1.454,1.262-2.174,1.89-.218-.264-.43-.529-.648-.793a12.09,12.09,0,0,0,1.057-.634c.278-.178.007-.608-.291-.482a12.479,12.479,0,0,0-1.19.595c-.106-.132-.2-.258-.3-.383a.791.791,0,0,0-.509-.278.387.387,0,0,0-.482-.013l-.046-.04a19.992,19.992,0,0,1,7.93-2.28A85,85,0,0,0,2,77.739c5.247,5.214,11.532,10.554,18.854,12.437,4.2,1.084,8.162.33,12.365-.324q6.949-1.09,13.865-2.293,13.283-2.32,26.48-5.128,36.727-7.831,72.548-19.3c-.793.912-1.579,1.824-2.372,2.743-.33.383.3.859.628.476,1.057-1.229,2.121-2.452,3.185-3.681l.264-.086c-.681,1.3-1.368,2.6-2.049,3.9-.238.449.5.747.727.3.8-1.513,1.593-3.027,2.392-4.54.786-.258,1.586-.5,2.379-.76.3-.1.6-.2.905-.3-1.183,1.553-2.379,3.106-3.562,4.666a.4.4,0,0,0,.628.482q2.131-2.805,4.269-5.6c.463-.152.925-.3,1.381-.456q-1.368,1.844-2.736,3.7c-.3.41.324.886.628.482.958-1.3,1.916-2.6,2.868-3.892a.375.375,0,0,0-.073-.529c1.09-.363,2.181-.74,3.265-1.117q-2.359,3.321-4.725,6.648c-.291.416.337.892.634.482q2.587-3.658,5.181-7.3a.408.408,0,0,0,.066-.238q1.606-.555,3.212-1.123-2.647,3.37-5.293,6.734c-.311.4.317.879.634.482l6.053-7.719c.932-.33,1.857-.661,2.789-1q-2.062,3.142-4.117,6.291c-.278.423.344.905.621.476,1.447-2.194,2.881-4.395,4.329-6.6a.394.394,0,0,0-.02-.463q1.874-.674,3.747-1.361h0c-.978,1.474-1.956,2.941-2.934,4.414-.284.423.344.905.621.482q1.467-2.211,2.934-4.414a.417.417,0,0,0-.231-.628c.476-.165.952-.337,1.421-.515a.206.206,0,0,0,.132-.079c2.326,1.269,4.672,2.518,6.972,3.826C183.564,58.839,188.044,61.43,185.837,65.064Zm-.086-6.324a5.1,5.1,0,0,1,1.229,1.17v.026l.033.231A9.4,9.4,0,0,0,185.751,58.74Z" transform="translate(44.436 0)"/><path class="a" d="M-2.571,42.225l.013-.04.033-.046A3.338,3.338,0,0,0-4.56,37.427a3.591,3.591,0,0,0-4.262,2.055C-10.085,43.11-4.508,45.317-2.571,42.225Zm-2.584-4.1a2.506,2.506,0,0,1,1.989,3.463,3.049,3.049,0,0,0-1.156-2.743,3,3,0,0,0-2.353-.5A3.1,3.1,0,0,1-5.155,38.121Zm1.13,3.8c-.245-1.355-1.857-2.372-3.245-2.531A2.233,2.233,0,0,1-4.025,41.921Zm-4.1-1.936.119.033a3.941,3.941,0,0,1,2.148.734,7.248,7.248,0,0,1,1.275,1.725.33.33,0,0,0,.317.106l-.007.093c-1.679.747-4.117-.324-3.9-2.478C-8.169,40.123-8.142,40.057-8.129,39.984Z" transform="translate(110.296 38.773)"/><path class="a" d="M-.839,41.747l.013-.04.04-.046a3.336,3.336,0,0,0-2.042-4.712A3.6,3.6,0,0,0-7.09,39C-8.346,42.625-2.768,44.839-.839,41.747Zm-2.577-4.1a2.525,2.525,0,0,1,1.91,3.674,2.364,2.364,0,0,1-.515.568c.337-1.064-.681-2.287-1.573-2.729a2.887,2.887,0,0,0-2.736.093A2.764,2.764,0,0,1-3.416,37.643Zm-.634,2.287c.925.449.938,1.289,1.361,2.075a.357.357,0,0,0,.2.165c-1.56.747-3.833-.132-3.959-2.022A2.608,2.608,0,0,1-4.05,39.929Z" transform="translate(120.023 36.092)"/><path class="a" d="M2.089,36.861a3.318,3.318,0,0,0-4.956.211,3.659,3.659,0,0,0,.1,4.593,2.783,2.783,0,0,0,3.3.674.328.328,0,0,0,.39-.013,1.549,1.549,0,0,0,.37-.436,3.522,3.522,0,0,0,.932-4.923A.389.389,0,0,0,2.089,36.861ZM.437,41.533A2.116,2.116,0,0,1-2.1,41.216a2.744,2.744,0,0,1-.582-2.842h.073a2.641,2.641,0,0,1,2.749.859,2.352,2.352,0,0,1,.456,1.4A3.659,3.659,0,0,1,.437,41.533Zm1.11-1a3.7,3.7,0,0,0-.694-1.857,3.079,3.079,0,0,0-3.119-1.064,2.538,2.538,0,0,1,3.859-.159A2.576,2.576,0,0,1,1.547,40.536Z" transform="translate(140.463 30.602)"/><path class="a" d="M3.669,36.414a3.328,3.328,0,0,0-4.956.2,3.668,3.668,0,0,0,.1,4.6,2.759,2.759,0,0,0,2.743.859.317.317,0,0,0,.476.139,2.334,2.334,0,0,0,.469-.522c1.659-.991,2.7-3.344,1.3-5.168A.344.344,0,0,0,3.669,36.414Zm-1.85,4.765a2.085,2.085,0,0,1-2.339-.416,2.789,2.789,0,0,1-.436-3.185H-.95a2.734,2.734,0,0,1,2.63,1.176A2.73,2.73,0,0,1,1.819,41.179Zm1.163-.9a3.309,3.309,0,0,0-.549-2.055A3.213,3.213,0,0,0-.4,36.857a2.544,2.544,0,0,1,3.575.152A2.625,2.625,0,0,1,2.982,40.28Z" transform="translate(149.324 28.102)"/><path class="a" d="M5.287,35.975a3.33,3.33,0,0,0-4.963.2,4.285,4.285,0,0,0-.258.41c-.1.026-.2.046-.3.079a.271.271,0,0,0,.033.5,3.544,3.544,0,0,0,.628,3.6,2.813,2.813,0,0,0,1.93.945.393.393,0,0,0,.152.007c2.432-.013,4.725-3.271,2.9-5.644A.318.318,0,0,0,5.287,35.975Zm-3,4.93a2.186,2.186,0,0,1-1.19-.582A2.757,2.757,0,0,1,.6,37.27,2.58,2.58,0,0,1,2.333,38.3,2.508,2.508,0,0,1,2.287,40.9Zm1.044-.119a3.359,3.359,0,0,0-.218-2.8A3.1,3.1,0,0,0,1.051,36.57a2.542,2.542,0,0,1,3.74,0C5.961,38.09,4.857,40.218,3.331,40.786Z" transform="translate(158.412 25.627)"/><path class="a" d="M7,35.419a3.328,3.328,0,0,0-4.956.211,3.65,3.65,0,0,0,.106,4.593,2.78,2.78,0,0,0,3.423.621.353.353,0,0,0,.489.066,1.2,1.2,0,0,0,.456-.72,3.456,3.456,0,0,0,.615-4.659A.428.428,0,0,0,7,35.419Zm-.74.39-2.749-.337A2.564,2.564,0,0,1,6.261,35.809Zm-.714,4.177a2.146,2.146,0,0,1-2.729-.211,2.781,2.781,0,0,1-.443-3.185,2.452,2.452,0,0,1,.6-.76.389.389,0,0,0,.066.258l-.053.007c-.231.046-.344.436-.059.515a3.5,3.5,0,0,1,2.24,1.507,2.772,2.772,0,0,1,.43,1.328A2.953,2.953,0,0,1,5.548,39.986Zm.945-.938a4.726,4.726,0,0,0-.535-1.394,3.7,3.7,0,0,0-1.242-1.236l1.467.178a.38.38,0,0,0,.423-.423A2.586,2.586,0,0,1,6.493,39.047Z" transform="translate(168.018 22.541)"/><path class="a" d="M3.835,35.09a3.659,3.659,0,0,0,.106,4.593,2.776,2.776,0,0,0,3.3.681.235.235,0,0,0,.192-.093,3.721,3.721,0,0,0,.839-.595.383.383,0,0,0,.284-.2,1.346,1.346,0,0,0,.059-.145,3.358,3.358,0,0,0,.311-4.335.5.5,0,0,0-.126-.112A3.336,3.336,0,0,0,3.835,35.09Zm.773,4.144a2.626,2.626,0,0,1-.681-2.458,2.852,2.852,0,0,1,2.26,1,3.113,3.113,0,0,1,.687,1.9A2.1,2.1,0,0,1,4.608,39.234ZM7.9,38.983a1.981,1.981,0,0,1-.211.2,3.333,3.333,0,0,0-.919-1.976,3.137,3.137,0,0,0-1.923-1.018A2.172,2.172,0,0,1,7.9,38.983Zm.4-3.5a2.29,2.29,0,0,1,.469,1.659,2.828,2.828,0,0,0-.9-1.4,3.035,3.035,0,0,0-3.238-.33A2.546,2.546,0,0,1,8.3,35.48Z" transform="translate(178.071 19.512)"/><path class="a" d="M6.1,38.313.174,47.373c-.278.423.344.905.628.482L6.73,38.8C7.007,38.372,6.386,37.89,6.1,38.313Z" transform="translate(161.397 43.478)"/><path class="a" d="M11.211,35.668c-.337.575-.667,1.15-1.011,1.731-.251.43.377.912.628.476.337-.575.674-1.15,1.011-1.731C12.09,35.714,11.469,35.232,11.211,35.668Z" transform="translate(217.694 28.597)"/><path class="a" d="M-11.511,39.789q-2.369,1.963-4.732,3.919c-.39.324.093.952.482.621q2.369-1.953,4.738-3.912C-10.632,40.093-11.114,39.465-11.511,39.789Z" transform="translate(68.906 52.166)"/><path class="a" d="M-10.924,39.994q-2.518,2.072-5.022,4.15c-.4.324.093.945.482.621q2.518-2.072,5.029-4.15C-10.045,40.291-10.534,39.67-10.924,39.994Z" transform="translate(70.552 53.315)"/><path class="a" d="M-10.52,40.263q-2.676,2.32-5.346,4.639c-.383.337.1.958.482.628q2.676-2.32,5.346-4.646C-9.654,40.554-10.136,39.926-10.52,40.263Z" transform="translate(71.04 54.791)"/><path class="a" d="M6.352,34.68a.391.391,0,0,0,.39-.568.376.376,0,0,0,.225.106c-.344.469-.681.932-1.031,1.4a.4.4,0,0,0,.377.628,11.512,11.512,0,0,1,4.408.145c.489.112.582-.674.093-.786a11.87,11.87,0,0,0-3.707-.238l1.229-1.679a.4.4,0,0,0-.469-.6c-.344.126-.687.258-1.031.383a.351.351,0,0,0-.192.509.339.339,0,0,0-.192-.079A.393.393,0,0,0,6.352,34.68Z" transform="translate(193.687 14.933)"/><path class="a" d="M-4.519,42.166a2.764,2.764,0,0,0,2.485.919.325.325,0,0,0,.449.053,1.628,1.628,0,0,0,.271-.251C.609,42.107,2,39.47.47,37.474a.52.52,0,0,0-.132-.112,3.328,3.328,0,0,0-4.956.211,3.654,3.654,0,0,0-.641,1.388.253.253,0,0,0-.053.211A3.451,3.451,0,0,0-4.519,42.166Zm3.668-.43V41.73h.007Zm.694-3.773A2.557,2.557,0,0,1-.184,41a2.723,2.723,0,0,0-.707-3.146,2.563,2.563,0,0,0-2.174-.489A2.552,2.552,0,0,1-.158,37.963Zm-1.216.522a1.923,1.923,0,0,1,.463,2.234,3.09,3.09,0,0,0-.621-1.335,2.852,2.852,0,0,0-2.135-.952A1.954,1.954,0,0,1-1.374,38.485Zm-.74,1.487a2.143,2.143,0,0,1,.43,1.375,2.315,2.315,0,0,1-.258.919,2.094,2.094,0,0,1-1.91-.549,2.616,2.616,0,0,1-.674-2.452A2.269,2.269,0,0,1-2.114,39.972Z" transform="translate(130.662 33.438)"/><path class="a" d="M-3.926,52.9C13.8,46.422,31.846,40.382,49.219,33.013c.383-.159.132-.707-.251-.582C31.039,38.326,13.487,45.655-4.111,52.449-4.409,52.561-4.217,53-3.926,52.9Z" transform="translate(136.916 11.307)"/><path class="a" d="M19.275,40.23A120.868,120.868,0,0,1-8.395,66.961c-.284.192.046.608.33.423A104.425,104.425,0,0,0,19.7,40.554C19.89,40.27,19.48,39.952,19.275,40.23Z" transform="translate(113.12 54.546)"/><path class="a" d="M-6.916,48.022c1.738-2,3.489-3.992,5.148-6.053.251-.311-.211-.641-.469-.363-1.8,1.943-3.516,3.972-5.247,5.981C-7.781,47.943-7.213,48.373-6.916,48.022Z" transform="translate(118.368 62.277)"/><path class="a" d="M-9.176,31.716a.2.2,0,0,0,.053-.39A.2.2,0,0,0-9.176,31.716Z" transform="translate(108.429 5.196)"/><path class="a" d="M13.579,55.755c.5.007.6-.78.093-.78a35.057,35.057,0,0,1-30.71-19.152c-.225-.456-.958-.145-.727.311A35.821,35.821,0,0,0,13.579,55.755Z" transform="translate(60.925 29.181)"/><path class="a" d="M22.9,44.79q-21.015,6.761-42.03,13.5c-.482.159-.172.886.311.727Q2.2,52.267,23.221,45.517C23.7,45.365,23.386,44.638,22.9,44.79Z" transform="translate(52.182 80.604)"/><path class="a" d="M8.365,45.179Q-5.781,50.711-19.92,56.249c-.476.178-.165.905.311.72Q-5.473,51.438,8.675,45.906C9.145,45.721,8.834,44.994,8.365,45.179Z" transform="translate(47.761 82.738)"/><path class="a" d="M-22.342,54.2q15.137-4.342,30.26-8.69c.489-.139.172-.859-.311-.72l-30.26,8.684C-23.135,53.608-22.825,54.335-22.342,54.2Z" transform="translate(32.407 80.601)"/><path class="a" d="M-21.3,49.666q8.1-2.161,16.191-4.322c.489-.126.383-.912-.112-.78q-8.1,2.161-16.2,4.322C-21.9,49.019-21.788,49.8-21.3,49.666Z" transform="translate(38.95 79.375)"/><path class="a" d="M-.251,59.38A6.5,6.5,0,0,0-.218,52.8,5.772,5.772,0,0,0-3.338,50.34a5.741,5.741,0,0,0-4.335-5.9c-3.251-1-6.932.714-8.941,3.337-2.908-1.883-6.813-2.016-9.245,1a5.441,5.441,0,0,0,.456,7.177c-5.445,3.469-3.793,13.025,2.769,13.521,0,.026-.007.046-.007.079.264,4.216,4.989,7.276,9.007,6.589A8.128,8.128,0,0,0-7.322,70.3C-1.745,71.52,3.5,64.066-.251,59.38Zm-6.913,10.2a6.98,6.98,0,0,0-.046-2.591c-.073-.33-.628-.383-.641.007-.132,3.588-2.1,7.289-5.954,7.943-3.906.661-6.708-2.207-8.195-5.445.218,0,.443-.013.674-.033.542-.059.456-.793-.013-.9-2.961-.694-5.855-2.465-6.232-5.782a6.8,6.8,0,0,1,3.027-6.232A4.252,4.252,0,0,0-21.954,57a.359.359,0,0,0-.007-.707,4.645,4.645,0,0,1-1.831-.608.459.459,0,0,0-.469-.311,4.269,4.269,0,0,1,.344-6.919c2.227-1.612,4.758-1.17,6.893.086a.2.2,0,0,0,.238.139,11.693,11.693,0,0,1,1.969,1.573c.264.264.707-.046.469-.363a8.674,8.674,0,0,0-1.712-1.731c2.029-1.573,4.15-3.159,6.906-2.928a5.637,5.637,0,0,1,5.115,4.93A3.759,3.759,0,0,0-8.274,52.21c-.159.311.3.535.515.291,2.531-2.881,6.721-.482,7.283,2.8.443,2.564-1.143,4.448-3.126,5.809-.357.245.007.7.357.6A5.1,5.1,0,0,0-.992,60.345c.773,2.181,1.163,4.388-.271,6.49C-2.657,68.9-4.851,69.518-7.164,69.577Z" transform="translate(0 77.135)"/><path class="a" d="M-17.762,52.508a.362.362,0,0,0,.2-.106,3.553,3.553,0,0,0-.178-4.778,3.513,3.513,0,0,0-4.718-.2c-.2.185-.026.575.258.436a3.2,3.2,0,0,1,3.826.4,3.183,3.183,0,0,1,.211,3.793.319.319,0,0,0-.04.165,3.792,3.792,0,0,0-5.115,1.071.155.155,0,0,0-.112-.073.2.2,0,0,0-.046.39h.02a.318.318,0,0,0,.562.211c1.54-1.579,4.229-1.811,5.274.482.952,2.088-.648,3.906-2.624,4.355-.443.1-.5.806.007.846A3.886,3.886,0,0,0-16.7,53.717,3.823,3.823,0,0,0-17.762,52.508Z" transform="translate(28.236 90.914)"/><path class="a" d="M-23.48,47.158c1.883-2.049,4.56-.634,5.016,1.784a.369.369,0,0,0,.727-.013c.264-3.529-4.229-4.712-6.3-2.2C-24.326,47.085-23.777,47.482-23.48,47.158Z" transform="translate(25.528 84.084)"/><path class="a" d="M-23.363,53.307c10.283-2.637,20.612-6.5,30.525-10.289.423-.159.145-.753-.271-.634C-3.26,45.4-13.787,48.589-23.528,52.726-23.839,52.858-23.707,53.4-23.363,53.307Z" transform="translate(27.87 67.136)"/><path class="a" d="M19.277,39.263C11.36,34.036,1.686,28.194-7.956,32.489a.394.394,0,0,0,.3.727c9.371-4.17,18.788,1.612,26.447,6.675C19.218,40.169,19.7,39.541,19.277,39.263Z" transform="translate(114.882 3.378)"/><path class="a" d="M10.056,34.247l-1.6,2.187c-.3.41.33.892.634.482.529-.734,1.064-1.467,1.593-2.194C10.988,34.313,10.36,33.83,10.056,34.247Z" transform="translate(207.806 20.693)"/><path class="a" d="M9.215,34.334l-.3.509c-.258.43.363.912.621.476l.3-.509C10.1,34.38,9.473,33.9,9.215,34.334Z" transform="translate(210.484 21.115)"/><path class="a" d="M5.339,35.794c-.555.905-1.11,1.8-1.665,2.709-.264.43.363.912.628.476.555-.9,1.11-1.8,1.672-2.7C6.238,35.846,5.61,35.357,5.339,35.794Z" transform="translate(181.06 29.31)"/><path class="a" d="M6.782,33.389c.013.238.033.476.053.714a.317.317,0,0,0,.264.317,2.258,2.258,0,0,0,2.934.925c.449-.231.139-.965-.311-.727a1.513,1.513,0,0,1-2.148-1.15l-.013-.192c-.033-.436-.78-.436-.786.007l.007.106Z" transform="translate(198.809 14.321)"/><path class="a" d="M-22.548,45.491c-4.837.251-6.351,7.018-1.632,8.836.337.126.674-.383.33-.582-3.516-2.035-2.967-7.3,1.375-7.758C-22.152,45.953-22.231,45.471-22.548,45.491Z" transform="translate(9.139 84.648)"/><path class="a" d="M-24.461,48.876c-.284.165.007.661.3.5a2.283,2.283,0,0,1,3.192,1.15,2.377,2.377,0,0,1-2.068,2.888.335.335,0,0,0,.007.661,2.922,2.922,0,0,0,2.947-3.7A3.034,3.034,0,0,0-24.461,48.876Z" transform="translate(22.968 101.313)"/><path class="a" d="M-13.789,44.291a3.619,3.619,0,0,0-5.558.7c-.132.218.185.456.317.245a2.929,2.929,0,0,1,4.652-.337c1.09,1.46.165,3.192-.905,4.3a.358.358,0,0,0,.33.568C-12.646,49.175-12.342,45.844-13.789,44.291Z" transform="translate(52.125 72.273)"/><path class="a" d="M-13.212,50c1.923-.945,1.593-3.939.073-5.1a3.338,3.338,0,0,0-5,1.573.347.347,0,0,0,.641.264c.641-1.328,2.65-1.963,3.734-.78.952,1.038.522,2.372-.033,3.463C-13.978,49.763-13.549,50.167-13.212,50Z" transform="translate(58.936 78.022)"/><path class="a" d="M-16.141,45.458a2.721,2.721,0,0,1,2.577.04,4.557,4.557,0,0,1,1.586,1.718.4.4,0,0,0,.7-.192c.033-2.6-3.522-3.251-5.3-2.121C-16.967,45.147-16.525,45.689-16.141,45.458Z" transform="translate(66.987 78.363)"/><path class="a" d="M-20.147,46.089a.2.2,0,0,0-.046.4A.2.2,0,0,0-20.147,46.089Z" transform="translate(46.621 88.001)"/><path class="a" d="M-16.348,48.652c.053.41.734.43.753-.013A2.65,2.65,0,0,0-19.95,46.5a.5.5,0,0,0,.615.793A1.864,1.864,0,0,1-16.348,48.652Z" transform="translate(47.837 86.899)"/><path class="a" d="M-17.617,47.045a.2.2,0,0,0-.046.4A.2.2,0,0,0-17.617,47.045Z" transform="translate(60.81 93.363)"/><path class="a" d="M-11.578,47.229a4.169,4.169,0,0,0-5.65.608c-.291.33.245.714.535.41a3.379,3.379,0,0,1,4.553-.284,3.56,3.56,0,0,1,.416,4.52.354.354,0,0,0,.562.43A4.007,4.007,0,0,0-11.578,47.229Z" transform="translate(63.718 89.689)"/></g></svg>