<svg xmlns="http://www.w3.org/2000/svg" width="463.17" height="101.958" viewBox="0 0 463.17 101.958"><defs><style>.a{fill:#fff;}</style></defs><g transform="translate(0 -0.002)"><g transform="translate(0 0.002)"><path class="a" d="M38.371,29.265c-8.856,0-16.28,3.238-21.574,9.471V13.374A13,13,0,0,0,12.564,3.125C9.552.51,5.254-.51.453.243L0,.316v100H15.988v-8.84c5.31,6.832,13.017,10.435,22.383,10.435,18.765,0,31.871-15.17,31.871-36.882C70.242,43.982,57.136,29.265,38.371,29.265ZM35.255,87.72C24.229,87.72,16.53,78.629,16.53,65.6c0-13.155,7.472-21.987,18.619-21.987,10.88,0,18.19,8.832,18.19,21.987S46.054,87.72,35.255,87.72Zm179.123-73.8-23.792,61.2L166.7,13.9c-1.619-4.177-7.35-13.47-25.9-9.593l-.421.089v95.912h16.126V31.094l27.346,69.287.138.332h12.523L224.1,30.43v69.878h16.66V4.4l-.421-.089C224.61,1.045,216.612,7.132,214.378,13.916ZM290.092,29.3c-14.272,0-26.131,8.16-32.478,15.794l-.186.243.146.308a9.941,9.941,0,0,0,6.687,5.715c3.3.81,7.2-.21,10.419-2.663a25.172,25.172,0,0,1,14.733-5.44c8.144,0,12.491,3.594,13.284,10.977L279.99,59.816c-15.122,3.659-22.472,10.84-22.472,21.946a19.3,19.3,0,0,0,5.82,14.134c4.137,3.967,10.127,6.063,17.324,6.063,9.771,0,17.648-3.878,22.893-11.244v9.617h15.737V55.979c-.024-8.039-2.866-26.714-29.2-26.714ZM302.85,67.134c0,13.762-9.609,21.161-18.619,21.161-6.549,0-9.868-2.647-9.868-7.869,0-4.485,3.359-7.472,10.273-9.115l18.247-4.323Zm140.1-7.8-11.26-2.582c-5.8-1.3-7.852-3.117-7.852-6.938,0-4.258,3.8-6.792,10.176-6.792a25.532,25.532,0,0,1,11.5,2.874c3,1.506,7.553,2.5,11.333.81,2.736-1.247,4.574-3.659,5.472-7.164l.089-.34-.283-.219a44.475,44.475,0,0,0-27.977-9.674c-8.1,0-14.879,2.323-19.623,6.719a19.663,19.663,0,0,0-6.411,14.3c0,10.767,6.857,17.939,19.817,20.732l9.763,2.17c7.091,1.619,9.488,3.44,9.488,7.213,0,2.939-1.619,7.869-12.491,7.869-8.427,0-16.563-4.347-21.355-8.411l-.445-.38-8.346,11.965.372.316c2.8,2.38,13.317,10.16,30.859,10.16,8.605,0,15.729-2.38,20.6-6.889a21.307,21.307,0,0,0,6.792-15.883c0-10.483-6.241-16.619-20.222-19.882ZM120.757,30.422c-8.257,0-15.268,4.655-19.55,12.863-.1-2.72-.81-6.986-3.748-9.82-2.631-2.5-6.476-3.343-11.52-2.493l-.437.073v69.336h16.8V71.068c0-16.126,6.727-25.37,18.457-25.37a31.636,31.636,0,0,1,4.792.38l.7.1L127.7,31.029l-.478-.089a38.047,38.047,0,0,0-6.5-.55ZM350.4,3.117c-3.011-2.6-7.286-3.61-12.143-2.866l-.453.073.049,86.684a12.888,12.888,0,0,0,4.242,10.2,13.681,13.681,0,0,0,9.1,3.109,19.348,19.348,0,0,0,3.011-.243l.453-.073L354.6,13.317a12.879,12.879,0,0,0-4.2-10.2Zm36.866,0c-3.011-2.6-7.286-3.61-12.143-2.866l-.453.073.057,86.684a12.88,12.88,0,0,0,4.234,10.2,13.681,13.681,0,0,0,9.1,3.109,19.347,19.347,0,0,0,3.011-.243l.453-.073-.049-86.684a12.952,12.952,0,0,0-4.21-10.2Z" transform="translate(0 -0.002)"/></g></g></svg>