<svg xmlns="http://www.w3.org/2000/svg" width="36.001" height="36.005" viewBox="0 0 36.001 36.005">
  <path id="Icon_awesome-check-double" data-name="Icon awesome-check-double" d="M35.508,12.291,32.723,9.506a1.681,1.681,0,0,0-2.384,0L13.5,26.346l-7.833-7.84a1.681,1.681,0,0,0-2.384,0L.492,21.3a1.689,1.689,0,0,0,0,2.391L12.3,35.508a1.681,1.681,0,0,0,2.384,0L35.5,14.681A1.7,1.7,0,0,0,35.508,12.291Zm-22.8,7.453a1.116,1.116,0,0,0,1.589,0L28.92,5.1a1.129,1.129,0,0,0,0-1.589L25.741.33a1.116,1.116,0,0,0-1.589,0L13.5,10.983,9.6,7.08a1.116,1.116,0,0,0-1.589,0L4.83,10.266a1.129,1.129,0,0,0,0,1.589Z" transform="translate(0.004 0.002)" fill="#fff"/>
</svg>
