<svg xmlns="http://www.w3.org/2000/svg" width="263.269" height="130.921" viewBox="0 0 263.269 130.921"><defs><style>.a{fill:#063793;}</style></defs><g transform="translate(-22.961 -242.916)"><path class="a" d="M65.219,280.254c.051-5.542.122-11.07.178-16.612a23.653,23.653,0,0,1,8.135,2.336c.481-3.668.528-5.1.36-5.15-2.229-.6-8.458-.692-8.425-3.724.014-.748.6-5.056.061-5.547-.435-.4-6.187-.467-6.593-.075-1.547,1.509,1.776,7.4-.911,8.079-13.346,3.332-14.519,17.075-2.388,22.9,5.551,2.659,2.8,13.654,2.748,19.579A25.9,25.9,0,0,1,47.5,298.978c-1.743,4.192-2.439,4.692,2.533,6.252.972.313,8.29,1.042,8.28,2.1-.019,1.953-.762,6.224.491,7.145.215.154,5.64.449,6.023.065.86-.878.065-6.481.084-7.813.009-.925,6.963-3.243,8.238-4.411C82.523,293.768,73.995,283.81,65.219,280.254Zm-6.565-2.832c-3.743-1.907-6.019-3.916-5.977-6.981.028-2.7,2.224-5.364,6.117-6.444Zm6.327,23.85.122-15.224C74.224,290.366,73.686,299.235,64.981,301.272Z" transform="translate(85.369 30.498)"/><path class="a" d="M268.237,369.714a.828.828,0,0,0,1.047-.453c1.64-3.449,4.813-5.3,7.336-8.023,2.8-3.009,4.416-6.836,8.019-9.089.061-.037.051-.1.1-.145a1.018,1.018,0,0,0,1.313-.949c.963-35.715-2.425-71.435-.715-107.121a1.026,1.026,0,0,0-1.706-.785c-.089-.023-.131-.1-.238-.1-82.084-.009-164.182.477-246.242,2.65-.1,0-.14.079-.224.1-.15-.009-.29.122-.439.2-.023.028-.084.023-.107.051-.065.051-.14.028-.2.094-1.841,2.075-4.178,3.434-6.416,5-1.977,1.388-4.355,1.981-6.36,3.313a1,1,0,0,0-.369,1.238l-.009.065c1.29,25.07-.164,50.243.9,75.35.57,13.607,1.687,27.187,2.276,40.79a1.633,1.633,0,0,0,1.593,1.593c18.22,1.215,37.023-1.093,55.191-2.378,25.822-1.827,51.448-2.869,77.36-2.678q53.86.414,107.682,1.341C268.1,369.78,268.167,369.723,268.237,369.714Zm-.925-67.313c-1.9.238-3.8.5-5.7.743-.608-.36,1.266-1.29,3.121-2.051.15-.014.3-.023.458-.037a.222.222,0,0,0,.2-.224c.916-.365,1.729-.654,2.135-.78-.009.841-.019,1.687-.023,2.533A.166.166,0,0,0,267.312,302.4Zm.192.2c0,.449-.009.9-.009,1.35a.2.2,0,0,0-.122-.131,18.254,18.254,0,0,0-3.939-.486c1.294-.168,2.584-.346,3.879-.509A.228.228,0,0,0,267.5,302.6Zm-2.682-3.467a23.5,23.5,0,0,0,2.72-.523c0,.327,0,.664-.009,1-1.238.3-8.472,1.5-2.444-.477C264.984,299.135,264.914,299.135,264.821,299.135Zm-.972,0c-.608-.037-.865-.154-.715-.36a36.558,36.558,0,0,0,4.411-.86v.28C266.279,298.453,265.059,298.775,263.849,299.13Zm.112-.9.262-.121c1.093-.164,2.2-.4,3.327-.664v.028A32.651,32.651,0,0,1,263.961,298.233Zm-1.551-.065q-2.271.224,2.019-2.187a29.162,29.162,0,0,0,3.14-.893c-.019.584,0,1.168-.014,1.757A15.194,15.194,0,0,0,262.41,298.168Zm2.126-2.561c.084-.089.224-.215.369-.346.463-.056.921-.14,1.383-.206C265.69,295.224,265.1,295.406,264.536,295.607Zm.944-.85c.322-.271.635-.547.939-.822.393-.061.8-.159,1.2-.234-.009.248-.019.5-.033.743C266.891,294.56,266.185,294.668,265.48,294.756Zm1.168-1.033a1.865,1.865,0,0,0,.579-.766c.145-.028.285-.056.43-.089l-.023.579C267.307,293.541,266.97,293.626,266.648,293.724Zm-.5-1.2a3.828,3.828,0,0,0-.528-.537c.692-.122,1.383-.252,2.093-.416-.009.229-.019.463-.028.692A12.673,12.673,0,0,0,266.143,292.527Zm-.832-.841a3.7,3.7,0,0,0-.668-.477c.416-.108.921-.234,1.664-.411.271-.065.15-.448-.112-.4-1.93.322-2.439.327-2.9.481a5.1,5.1,0,0,0-.626-.154c.318-.112.654-.154.972-.257l.135-.014.023-.028a34.333,34.333,0,0,1,3.921-1.042c.079-.019.07-.084.089-.145-.028.64-.051,1.28-.079,1.916A22.387,22.387,0,0,0,265.312,291.686Zm2.294-2.706c-8.9,1.364-2.986-.163.252-1.014l-.047,1.145C267.77,289.041,267.713,288.967,267.606,288.981Zm-2.308-.411c.243-.056.458-.107.762-.182C266.573,288.27,266.1,288.383,265.3,288.569Zm-2.528.084a25.94,25.94,0,0,0,5-2.117c.224-.108.061-.439-.168-.383-7.2,1.5-2.491.107.355-.64-.028.659-.051,1.313-.084,1.963C266.185,287.911,264.489,288.326,262.77,288.654Zm5.238-4.294c-.009.173-.014.35-.023.528Q264.641,285.217,268.008,284.359Zm-2.379.285c-.1.019-.192.033-.322.061.369-.154.813-.383,2.108-1,.224-.1.065-.449-.164-.383-.542.15-1.374.337-2.238.5-.014-.089-.056-.173-.173-.159-.911.1-1.822.215-2.729.318.71-.257,2.1-.668,4.547-1.322a.208.208,0,0,0-.107-.4,40.265,40.265,0,0,1-5.808,1c.776-.266,1.523-.593,2.285-.888.486-.014.967-.056,1.453-.061a.21.21,0,0,0,0-.421c-.075,0-.15.009-.229.009.565-.229,1.14-.416,1.7-.659.252-.1.159-.472-.1-.4a7.39,7.39,0,0,1-4.308.5c.224-.084.584-.224.972-.383l.556-.065a.219.219,0,0,0,.2-.243,10.853,10.853,0,0,0,1.332-.65c.925-.178,1.846-.355,2.776-.523.234-.047.173-.421-.061-.421a10.171,10.171,0,0,0-3.014.645,17.04,17.04,0,0,0-1.991.332,21.139,21.139,0,0,0,2.921-1.079c.36-.079.724-.1,1.079-.187.192-.047.15-.22.033-.322.71-.332,1.369-.664,1.921-.991-.084,2.159-.14,4.323-.234,6.481C267.363,284.14,266.5,284.387,265.629,284.644Zm-.481.14-.061.019-.051,0,.051-.019Zm-.565.065-.234.042c-.734.093-1.963.243-3.776.458C261.844,285.177,263.6,284.962,264.583,284.85Zm-1.654-2.883c.234-.033.481-.07.8-.122-.15.023-.313.08-.467.112C263.148,281.957,263.036,281.962,262.928,281.967Zm-2.654-1.135c.678-.117,1.35-.248,2.023-.383-.15.065-.294.126-.444.187C261.33,280.7,260.8,280.77,260.274,280.831Zm4.519-3.514c.724-.093,1.439-.234,2.168-.3a.212.212,0,0,0,.2-.224c.379-.079.752-.15,1.131-.238,0,.15-.009.29-.014.43C266.994,277.995,265.83,278.088,264.793,277.317Zm1.332-.757c2.22-1.042-4.551.7,1.248-.967a.21.21,0,0,0-.122-.4,8.956,8.956,0,0,1-4.22.626,44.594,44.594,0,0,0,5.313-.907c-.019.4-.023.8-.042,1.21C267.559,276.228,266.84,276.392,266.125,276.56Zm2.192-2.07a37.838,37.838,0,0,1-3.944.734c.878-.234,1.762-.467,2.645-.687a.209.209,0,0,0-.112-.4c-7.949,1.921-4.29.537-.757-.645l.1,0c.028,0,.019-.033.042-.042.762-.252,1.5-.491,2.122-.687-.019.584-.033,1.173-.056,1.757C268.335,274.513,268.335,274.485,268.316,274.49Zm-3.276-1.35c.346-.061.757-.131,1.266-.21.21-.033.028.033-.346.145C265.648,273.079,265.349,273.125,265.041,273.14Zm3.388-.986c-2.692.406-9.439,1.355-3.271-.29.463-.037.958-.089,1.416-.145l.033,0v0c.6-.07,1.234-.22,1.85-.327C268.447,271.64,268.438,271.892,268.428,272.154Zm-4.145-.234.215-.019c.206-.014.425-.014.626-.033C264.33,272.069,264.115,272.06,264.284,271.92Zm4.182-.981c-.715.121-1.435.238-2.135.378-.379.033-.757.07-1.131.1,1.065-.509,2.631-1.145,3.294-1.379C268.489,270.341,268.475,270.644,268.466,270.939Zm.079-2.467a29.266,29.266,0,0,0-5.4.285c1.832-.355,3.631-.706,5.425-1.1C268.564,267.929,268.55,268.2,268.545,268.471Zm.047-1.533c-.935.1-1.659.164-2.262.21-.047-.038-.065-.1-.135-.089-.276.056-.556.075-.832.122-.963-.028-.117-.449,3.332-1.575C268.643,266.144,268.6,266.612,268.592,266.939Zm1.187-13.3c.14-.1.29-.2.435-.3l.019.009c-.107.1-.229.192-.336.294Zm5.341,106.107a65.572,65.572,0,0,1-5.061,4.963c2.023-16.533,1.35-33.051.752-49.7-.715-19.757,1.271-39.458.93-59.21,1.383-1.294,2.808-2.542,4.248-3.776l.187,106.327C275.826,358.812,275.489,359.284,275.12,359.742Zm-4.5-105.9c.15-.1.285-.206.435-.3a.2.2,0,0,0,.023.248c-.056.061-.107.122-.159.173A2.112,2.112,0,0,0,270.615,253.84Zm.729.453c-.042-.056-.033-.135-.079-.177.224-.238.435-.491.668-.724.491-.355,1-.687,1.491-1.042C272.741,253,272,253.593,271.344,254.294Zm1.014.065c-.224.243-.453.486-.673.734-.014-.1-.084-.163-.107-.252C271.84,254.682,272.1,254.523,272.358,254.359Zm10.794-8.154c-1.463,34.663,1.664,69.364.785,104.056-.126.023-.238-.028-.369.051a20.2,20.2,0,0,0-5.276,5.229l-.182-105.14a60.578,60.578,0,0,0,4.832-4.065C283.012,246.294,283.083,246.252,283.153,246.205ZM37.49,247.8c81.173-2.135,162.387-2.635,243.588-2.635-2.234,1.262-4.421,2.607-6.523,4.07-80.21-.234-160.537-1.037-240.733,1.654A21.465,21.465,0,0,0,37.49,247.8Zm-7,5.318c80.341-2.8,160.822-2.028,241.182-1.776-.678.533-1.322,1.1-1.967,1.673-.126.07-.243.14-.271.229-.14.122-.29.238-.43.365-42.822-1.659-85.757-1.112-128.56.388-20.523.71-41.2-.565-61.743-.421-16.72.121-33.916,1.827-50.64.808Q29.3,253.8,30.485,253.121Zm232.135,6.112c-.126.014-.257.014-.383.033l-1.276-.014c-.743-.023-1.486-.042-2.224-.075-.1,0-.192-.019-.29-.023,1.664-.084,3.327-.21,4.981-.374-.252.051-.514.1-.766.15C262.466,258.962,262.508,259.13,262.62,259.233Zm-1.449-1.556c-.182-.009-.365-.009-.547-.023.991-.056,1.981-.145,2.972-.238C262.788,257.509,261.98,257.593,261.171,257.677Zm-10.318-1.318c.864.014,1.729.037,2.593.051q6.266.091,12.528.243a2.343,2.343,0,0,1,.621.182c-.21.009-.425.009-.64.014-.023,0-.019-.051-.056-.047C260.868,256.943,255.858,256.71,250.854,256.359Zm6.64,1.477.126.014c-.187,0-.374.023-.561.009-.047,0-.037.051-.07.065-.631-.014-1.262-.042-1.893-.051C255.9,257.864,256.695,257.859,257.494,257.836Zm-2.607-.738c-.369-.051-.743-.079-1.112-.136.762.047,1.523.075,2.285.108Zm-2.5-.2c-.089.065-.1.117-.061.2a26.416,26.416,0,0,1-2.762-.406C250.508,256.756,251.447,256.836,252.391,256.9Zm15.43.687a1.514,1.514,0,0,1,.164.182c-.416.061-.832.117-1.248.178-.472.019-.939.033-1.411.056-.033-.061-.047-.14-.136-.14-.439,0-.869-.051-1.3-.056A27.685,27.685,0,0,1,267.821,257.583Zm.458.715h.037l.028.084c-.173.028-.346.051-.519.084.009-.042.014-.047,0-.079C267.98,258.355,268.129,258.331,268.279,258.3Zm-1.65.308.266,0q-1.079.189-2.159.35C265.368,258.845,266,258.728,266.629,258.607Zm1.86.182c.028.079.065.15.089.234-.981.1-1.958.182-2.939.224C266.592,259.1,267.541,258.957,268.489,258.789Zm-7.556,107.687c-44.252-.776-88.589-1.869-132.845-1.121-21.135.355-42.191,2.472-63.285,3.8-9.407.584-18.818,1.1-28.238,1.294-2.593.056-7.276-.977-7.192,1.093-.065-1.458-.192-2.916-.294-4.374A47.2,47.2,0,0,0,40.742,366.1a.208.208,0,0,0-.107-.4,47.249,47.249,0,0,1-11.584,1.047c-.042-.565-.075-1.131-.112-1.7a57.1,57.1,0,0,0,7.15-.35c.266-.037.271-.458,0-.421a58.5,58.5,0,0,1-7.182.351c-.079-1.1-.14-2.206-.22-3.308,3.341.813,6.818.575,10.234.547a.21.21,0,0,0,0-.421c-3.416.019-6.921.276-10.262-.57l-.014-.206c-.117-1.692-.178-3.383-.276-5.08a51.085,51.085,0,0,1,5.6-.439.21.21,0,0,0,0-.421,50.431,50.431,0,0,0-5.626.439c-.056-1-.112-2-.159-3,3.234.154,6.458-.9,9.673-1.271.271-.023.271-.453,0-.421-3.21.369-6.453,1.444-9.7,1.266-.047-.991-.117-1.981-.159-2.967a17.432,17.432,0,0,0,5.318-.706.213.213,0,0,0-.112-.411,17.371,17.371,0,0,1-5.229.687c-.089-2.1-.15-4.206-.215-6.308,2.481.388,5.192.042,7.621.028a.21.21,0,0,0,0-.421c-2.421.014-5.159.364-7.635-.042-.07-2.15-.154-4.3-.206-6.458a12.3,12.3,0,0,0,3.654-.509c.262-.084.154-.5-.107-.411a12.438,12.438,0,0,1-3.561.5c-.023-1.173-.037-2.346-.061-3.523a31.252,31.252,0,0,0,9.388-.808c.271-.056.159-.467-.107-.411a30.691,30.691,0,0,1-9.285.79q-.028-1.444-.047-2.893a21.432,21.432,0,0,0,7.318-1.028.208.208,0,0,0-.107-.4,20.8,20.8,0,0,1-7.22,1c-.009-.771-.023-1.542-.037-2.318a24.842,24.842,0,0,0,4.537-.4c.271-.037.154-.449-.112-.4a24.671,24.671,0,0,1-4.43.378c-.023-2.019-.056-4.037-.075-6.056,3.145,1.2,6.963.477,10.215.43a.21.21,0,0,0,0-.421c-3.206.037-7.117.818-10.22-.439q-.035-4-.056-8.014c3.065.089,6.121-.6,9.22-.673.271-.009.271-.43,0-.421-3.093.07-6.154.762-9.224.673,0-1.145-.014-2.294-.019-3.439h3.935a.21.21,0,0,0,0-.421H27.2c0-.944-.014-1.888-.019-2.832,2.481.528,8.126-.818,9.308-.991.276-.047.164-.449-.1-.411-.991.145-7.061,1.425-9.206.967,0-1.065-.014-2.136-.019-3.2a53.475,53.475,0,0,0,6.093-.182.208.208,0,0,0,0-.416,52.25,52.25,0,0,1-6.093.187c-.009-1.336-.014-2.682-.023-4.019a21.33,21.33,0,0,0,6.528-.715c.266-.056.159-.467-.107-.4a20.775,20.775,0,0,1-6.425.687c-.009-1.659-.033-3.318-.047-4.981a58.322,58.322,0,0,0,7.234.117.21.21,0,0,0,0-.421,57.48,57.48,0,0,1-7.238-.122c-.019-1.813-.033-3.621-.056-5.435a13.619,13.619,0,0,0,2.383.061c2-.075,3.972-.411,5.967-.449a.215.215,0,0,0,0-.43c-1.453.028-2.9.21-4.346.341a14.649,14.649,0,0,1-4,.079c-.019-1.163-.042-2.327-.061-3.491.481.028.972.033,1.421.042,1.855.047,3.72-.075,5.579-.084a.21.21,0,0,0,0-.421c-1.35.009-2.692.065-4.037.084a27.44,27.44,0,0,1-2.972,0c-.019-1.042-.047-2.079-.065-3.121,3.425.407,10.234-.407,11.318-.425a.21.21,0,0,0,0-.421c-.944.014-8.126.556-11.332.346-.023-1.089-.042-2.178-.07-3.266a63.913,63.913,0,0,0,8.925.168.215.215,0,0,0,0-.43,59.406,59.406,0,0,1-8.935-.164c-.023-.9-.033-1.8-.061-2.706a58.911,58.911,0,0,0,6.874-.6c.271-.028.271-.458,0-.421a57.067,57.067,0,0,1-6.878.6c-.033-1.028-.084-2.056-.121-3.084,3.285-.093,6.556-.332,9.832-.631.266-.028.271-.449,0-.421-3.28.29-6.561.533-9.85.631-.028-.855-.065-1.706-.1-2.556,3.589.654,7.93-.444,11.364-.486a.21.21,0,0,0,0-.421c-3.421.042-7.813,1.159-11.378.477-.07-1.72-.122-3.435-.21-5.154,11.388.785,22.878-.3,34.271-.579,16.145-.383,32.388-.374,48.537-.108,32.509.519,65-.374,97.518-.921,12.378-.21,24.729.145,37.089.411,1.14.093,2.276.182,3.416.271a25.116,25.116,0,0,0,5,1c-.238,0-.467.009-.706.009a.215.215,0,0,0,0,.43c1.056,0,2.107-.042,3.159-.051a.2.2,0,0,0,.023.4c1.818.014,3.635.084,5.453.15a.189.189,0,0,0,.173.173c-4.22.266-8.458.318-12.7.318a.21.21,0,0,0,0,.421q3.5,0,7-.075c.028.023.023.07.065.075,1.206.084,2.407.164,3.612.229-.262.009-.519.056-.78.061a.21.21,0,0,0,0,.421c1.523-.019,3.028-.182,4.537-.341a55.472,55.472,0,0,0,6.762-.28,9.4,9.4,0,0,1,.164,1.3c-3.724.14-7.383.963-11.112,1.019a.21.21,0,0,0,0,.421c3.743-.061,7.416-.883,11.149-1.028.028.617.019,1.238-.014,1.855-.014-.093-.056-.187-.178-.187-3.9.056-7.766.659-11.664.71a.21.21,0,0,0,0,.421c3.9-.056,7.766-.649,11.664-.7.117,0,.159-.1.173-.187-.037.706-.089,1.365-.145,1.972-.551.075-1.313.178-2.056.262a.188.188,0,0,0-.145-.341c-.794.173-1.589.294-2.378.449-.033-.1.523-.322,2.135-.752a.211.211,0,0,0-.112-.407,32.192,32.192,0,0,0-4.593,1.411.21.21,0,0,0-.131.257,38.094,38.094,0,0,1-5.117.439.215.215,0,0,0,0,.43,43.166,43.166,0,0,0,6.939-.785c4.743-.22,3.159-.238-2.047,1.43a.19.19,0,0,0,0,.364c-1.86.2-3.724.318-5.608.332a.213.213,0,0,0,0,.425,57.7,57.7,0,0,0,8.425-.738,17.2,17.2,0,0,0,4.224-.411c-2.509.678-5.2.939-7.748,1.435a.215.215,0,0,0,.051.421,46.659,46.659,0,0,0,7.047-.294c-1.439.285-2.888.519-4.336.752a76.763,76.763,0,0,0-8.78.893c-.266.047-.154.453.112.411a49.116,49.116,0,0,1,5.472-.654.191.191,0,0,0,.126.308,23.359,23.359,0,0,0,2.6.112,23.541,23.541,0,0,1,2.734-.794c.108-.009.22-.014.332-.023.047,0,.042-.056.07-.079.846-.215,1.743-.439,2.551-.626l-.009.323c-3.43.794-5.023,1.126-5.509,1.2.579-.014,1.061-.037,1.449-.084-.715.182-1.724.463-3.206.977-.056.019-.051.075-.075.117-2.692.257-5.379.542-8.056.935-.276.047-.154.458.107.411,3.435-.5,6.874-.836,10.327-1.131-1.238.322-2.477.635-3.72,1.075a.216.216,0,0,0,.056.421h.126c-1.925.206-3.846.453-5.78.64-.271.019-.271.444,0,.421,3.271-.322,6.523-.729,9.794-.916-1.6.453-3.523.986-4.2,1.206a.216.216,0,0,0,.056.421,25.342,25.342,0,0,0,3.051.009c-.276.065-.636.164-1,.271-2,.22-4,.406-5.991.715-.271.047-.159.449.112.4,1.346-.206,2.706-.355,4.061-.5-.1.042-.178.061-.285.1a.21.21,0,0,0,.056.411,16.561,16.561,0,0,0,3.248-.238c-.551.187-1.266.453-2.294.9-.051.023-.033.079-.051.126-2.178.35-4.355.7-6.556.907-.271.028-.271.458,0,.43,2.827-.276,5.626-.743,8.435-1.173-.958.36-1.916.682-2.888,1.136a.212.212,0,0,0,.107.392,22.111,22.111,0,0,0,5.715-1,14.242,14.242,0,0,0-1.935.668c-3.472.636-6.972,1.028-10.5,1.322-.271.028-.276.449,0,.43,2.953-.243,5.888-.579,8.813-1.028-.752.341-1.491.682-2.154.963a.2.2,0,0,0,.084.383q-2.663.336-5.332.668c-.262.033-.271.453,0,.416,1.944-.234,3.888-.481,5.832-.724-.579.248-1.15.491-1.645.673a.192.192,0,0,0-.1.276c-1.481.121-2.953.252-4.435.416-.271.038-.271.458,0,.43q3.617-.4,7.243-.579c-1.173.4-2.36.888-3.411,1.22-.22.07-.2.425.051.421,4.458-.21,7.593-2.047,3.444-.037-2.35.276-4.7.584-7.033,1.037-.266.047-.154.458.112.4,1.925-.369,3.86-.64,5.8-.883-.346.168-.607.29-1.014.5-.224.122-.061.43.159.383.079-.014.187-.028.28-.042-.234.065-.243.435.019.407.486-.047,1.981-.346,3.4-.645-.028.047-.061.07-.037.126a.21.21,0,0,0,.107.1c-2.724.374-5.392,1.037-8.112,1.411-.276.037-.159.449.1.411,2.729-.374,5.407-1.037,8.131-1.416.224-.028.15-.262-.014-.346,6.621.192.467.636-2.215,1.71-.2.079-.2.444.056.416,4.841-.612,3.491-.033,1.542.57.07-.135.014-.327-.182-.285-3.294.64-6.626,1.065-9.9,1.771-.266.051-.154.463.107.411,3.019-.65,6.075-1.075,9.1-1.635-.7.21-1.374.4-1.785.519-.224.065-.192.439.051.411,1.977-.21,2.444-.224,2.967-.322-1.458.341-2.855.668-2.659.617a.215.215,0,0,0,.051.421c4.734-.206,5.178-.4,3.262,0-.037-.023-.028-.084-.084-.075-3.061.336-6.126.678-9.192,1.061-.266.033-.271.453,0,.416,2.168-.262,4.341-.5,6.509-.748-.407.108-.8.206-1.262.341a.207.207,0,0,0,.056.407c.986.014,1.608.037,2.075.051-.294.168-.645.36-1.122.617a.218.218,0,0,0,.107.4c.776-.042,1.5-.145,2.243-.234-.72.266-1.43.509-2.192.841a63.05,63.05,0,0,0-6.822,1.453c-.262.075-.15.486.107.4a64.679,64.679,0,0,1,6.65-1.416l.014.014c.827.009,1.551-.084,2.313-.136-.332.145-.65.276-1.009.444a.213.213,0,0,0,.108.393c1.075-.051,2.093-.159,3.107-.29-.869.294-1.743.664-2.607,1.014a46.005,46.005,0,0,0-9.743,1.7c-.257.079-.145.491.107.407a40.01,40.01,0,0,1,8.173-1.533c-.07.033-.136.051-.206.084-.192.079-.094.4.112.393.888-.037,1.458-.051,1.916-.061a39.448,39.448,0,0,0-3.79,1.794c-.206.1-.089.364.107.393a16.961,16.961,0,0,0,2.561.079c-.173.075-.35.159-.528.243a55.389,55.389,0,0,0-8.1,1.383.209.209,0,0,0,.117.4,47.862,47.862,0,0,1,7.178-1.248.2.2,0,0,0,.187.2,19.814,19.814,0,0,0,2.551-.051c-1.1.332-2.2.682-3.313,1.047a.215.215,0,0,0,.051.421,10.082,10.082,0,0,0,5.206-.528,13.816,13.816,0,0,0-1.35.547,77.917,77.917,0,0,0-8.85.977c-.276.056-.159.467.1.411a60.45,60.45,0,0,1,7.439-.864,19.461,19.461,0,0,0-3,1.9.206.206,0,0,0-.079.243c-2.879.383-5.766.752-8.645,1.136-.276.033-.276.453,0,.425q4.942-.659,9.9-1.294c1.841.266,2.421.78,2.243,1.407-4.089.4-8.145.967-12.2,1.589-.276.042-.159.453.1.411,3.944-.608,7.893-1.159,11.855-1.556a6.143,6.143,0,0,1-1.612,1.322,44.009,44.009,0,0,0-8.584,1.234.213.213,0,0,0,.107.411,39.727,39.727,0,0,1,7.621-1.149,26.687,26.687,0,0,1-2.687,1.257c-2.393.238-4.78.519-7.159.907-.276.037-.164.449.1.4,1.836-.3,3.682-.509,5.528-.71-.178.112-.1.43.136.355.551-.173,1.075-.364,1.612-.547q2.874-.281,5.752-.5c.276-.028.276-.444,0-.43-1.383.112-2.762.243-4.14.369,1.019-.383,2-.8,2.972-1.262.388-.033.78-.061,1.168-.089.276-.028.276-.449,0-.43-.07,0-.14.009-.21.019a24.355,24.355,0,0,0,3.9-2.486c.037-.023.028-.075.033-.117q.014,5.937.192,11.874c-2.593,1.192-5.406,1.453-8.206,2.037-.266.051-.159.463.107.407,2.762-.57,5.547-.85,8.107-1.986.028.785.033,1.57.061,2.355-3.229.131-6.421.635-9.635.981-.271.028-.271.449,0,.421,3.215-.341,6.416-.841,9.645-.986.266,8.159.607,16.318.6,24.481,0,2.4-1.121,22.944-.72,22.944Z" transform="translate(0 0)"/><path class="a" d="M74.911,252l-.673.2C74.509,252.116,74.7,252.06,74.911,252Z" transform="translate(188.335 33.345)"/><path class="a" d="M236.117,339.267c-.379-9.276-.907-18.547-1.393-27.822.042.075.1.15.2.108,3.93-1.654,8.117-1.79,12.318-2.117.266-.019.271-.449,0-.43-4.248.337-8.458.463-12.435,2.135-.084.038-.079.117-.089.192-1.075-20.575-2.308-41.149-3.9-61.687a1.651,1.651,0,0,0-1.762-1.523,1.494,1.494,0,0,0-.36-.075c-66.6.163-133.383-.556-199.934,2.126a1.531,1.531,0,0,0-1.107.5l-.07.084a1.677,1.677,0,0,0-.308.748c-.019.1-.1.145-.1.252.037,8.8.294,17.589.607,26.378a1.22,1.22,0,0,0,.033.921c.72,19.892,1.743,39.771,1.481,59.677a1.615,1.615,0,0,0,1.589,1.589c33.019,2.453,66.205-.977,99.247-1.2,34.7-.229,69.761-.43,104.4,1.724A1.593,1.593,0,0,0,236.117,339.267Zm-6.766-64.687v.033l-.023-.023Zm-3.327-3.411.056.257c-.065-.065-.126-.131-.192-.187C225.935,271.225,225.977,271.188,226.024,271.169Zm-3.477-3.108.117.154c-.061-.051-.126-.1-.187-.159Zm7.257,44.079-.042.023.042-.033Zm1.341-5.29c-10.285,8.467-20.388,18.243-27.374,29.692-3.8,0-7.612.014-11.411-.023-16.579-.145-33.163-.472-49.748-.565-27.5-.163-54.981,1.785-82.467,2.019C50.127,329.095,41.66,318.492,32.127,309.1c-.089-2.551-.168-5.1-.266-7.65-.28-7.5-.6-15-.874-22.5A124.53,124.53,0,0,1,45.216,262c3.547-3.453,7.617-6.285,11.318-9.57,47.037-1.28,94.154-1.178,141.219-1.173,10.514,9.1,21.818,17.528,31.4,27.621a1.618,1.618,0,0,0,.514.355q.9,13.759,1.635,27.533A1.3,1.3,0,0,0,231.145,306.852Z" transform="translate(15.475 18.849)"/><path class="a" d="M80.6,249.819c-19.033,0-39.523,11.986-39.523,38.308s20.491,38.3,39.523,38.3,39.528-12,39.528-38.3S99.637,249.819,80.6,249.819Zm0,73.425c-17.5,0-36.341-10.986-36.341-35.117S63.091,253,80.6,253s36.35,11,36.35,35.131S98.1,323.244,80.6,323.244Z" transform="translate(66.52 25.353)"/><path class="a" d="M83.053,257.732c.266-.023.271-.444,0-.421-3.682.35-7.378.4-11.019,1.07-.276.047-.154.458.112.4C75.749,258.125,79.408,258.073,83.053,257.732Z" transform="translate(179.666 52.87)"/><path class="a" d="M73.277,258.735a57.016,57.016,0,0,1,7.019-.7.21.21,0,0,0,0-.421,56.128,56.128,0,0,0-7.126.715C72.893,258.362,73.015,258.773,73.277,258.735Z" transform="translate(183.834 53.983)"/><path class="a" d="M73.084,260.651c-.257.079-.145.491.117.407,3.421-1.047,7-1.047,10.547-1.056a.21.21,0,0,0,0-.421C80.159,259.581,76.542,259.581,73.084,260.651Z" transform="translate(183.564 61.208)"/><path class="a" d="M72.562,261.393c-.266.051-.159.463.107.4,4.173-.967,8.425-1.079,12.678-1.407.266-.019.271-.448,0-.43C81.057,260.295,76.768,260.416,72.562,261.393Z" transform="translate(181.614 62.592)"/><path class="a" d="M81.367,260.9c.266-.056.15-.463-.117-.4-2.939.631-5.916,1.061-8.841,1.762-.271.065-.15.477.117.411C75.451,261.968,78.423,261.538,81.367,260.9Z" transform="translate(181.057 64.546)"/><path class="a" d="M72.029,264.1c-.262.047-.154.458.117.411,4.145-.72,8.224-1.762,12.369-2.481.266-.047.154-.449-.112-.4C80.258,262.339,76.178,263.381,72.029,264.1Z" transform="translate(179.671 68.716)"/><path class="a" d="M72.255,264.079a.212.212,0,0,0,.117.407,59.5,59.5,0,0,1,10.551-1.757c.262-.028.276-.458,0-.421A59.271,59.271,0,0,0,72.255,264.079Z" transform="translate(180.505 71.215)"/><path class="a" d="M72.748,264.943c3.037-.678,6.051-1.379,9.135-1.762.276-.028.276-.458,0-.421-3.126.383-6.178,1.084-9.248,1.771C72.369,264.593,72.482,265,72.748,264.943Z" transform="translate(181.891 72.879)"/><path class="a" d="M72.178,265.145c-.262.047-.15.458.121.4,3.85-.692,7.7-1.378,11.607-1.762.271-.028.276-.449,0-.421C79.963,263.748,76.075,264.435,72.178,265.145Z" transform="translate(180.223 75.102)"/><path class="a" d="M72.257,265.943c-.266.056-.154.467.117.411,3.762-.729,7.393-2.014,11.252-2.107a.215.215,0,0,0,0-.43C79.729,263.92,76.057,265.2,72.257,265.943Z" transform="translate(180.503 76.766)"/><path class="a" d="M82.566,264.76c.266-.051.154-.463-.112-.407a92.02,92.02,0,0,1-9.841,1.411c-.271.028-.271.449,0,.421A90.5,90.5,0,0,0,82.566,264.76Z" transform="translate(181.619 78.716)"/><path class="a" d="M72.671,266.981c3.411-.668,6.855-1.108,10.257-1.771.266-.047.154-.458-.112-.4-3.407.654-6.846,1.1-10.252,1.762C72.293,266.621,72.4,267.032,72.671,266.981Z" transform="translate(181.612 80.387)"/><path class="a" d="M72.441,268.182c-.248.122-.033.486.21.369,3.766-1.752,7.93-2.1,11.967-2.8.276-.047.159-.458-.1-.411C80.427,266.046,76.245,266.415,72.441,268.182Z" transform="translate(181.333 82.331)"/><path class="a" d="M72.48,268.415a.214.214,0,0,0,.117.411c3.846-1.023,7.748-1.771,11.668-2.486.262-.042.15-.453-.117-.4C80.233,266.653,76.331,267.392,72.48,268.415Z" transform="translate(181.341 84.556)"/><path class="a" d="M72.107,268.747c-.266.056-.154.458.112.4,3.65-.72,7.3-1.439,10.958-2.117.266-.047.159-.458-.117-.411C79.406,267.3,75.756,268.018,72.107,268.747Z" transform="translate(179.948 87.051)"/><path class="a" d="M72.027,269.277a.212.212,0,0,0,.117.407c3.841-.967,7.822-1.15,11.668-2.126.262-.061.149-.472-.121-.4C79.854,268.123,75.868,268.309,72.027,269.277Z" transform="translate(179.673 88.998)"/><path class="a" d="M72.168,269.8c-.243.1-.136.509.121.411,3.458-1.435,7.21-1.752,10.907-2.117.262-.028.276-.449,0-.421C79.463,268.042,75.668,268.351,72.168,269.8Z" transform="translate(180.232 90.943)"/><path class="a" d="M71.88,270.333c-.266.084-.15.5.1.411a57.724,57.724,0,0,1,13.028-2.117c.276-.019.276-.439,0-.421A58.013,58.013,0,0,0,71.88,270.333Z" transform="translate(179.118 92.886)"/><path class="a" d="M72.811,269.662c-.215.042-.145.266.019.346h-.668a.21.21,0,0,0,0,.421h8.131a.21.21,0,0,0,0-.421H73.32a46.8,46.8,0,0,1,9.093-1,.215.215,0,0,0,0-.43A48.415,48.415,0,0,0,72.811,269.662Z" transform="translate(179.949 94.271)"/><path class="a" d="M82.035,247c.262-.037.271-.458,0-.43-2.715.313-5.439.36-8.14.715-.266.037-.266.453,0,.421C76.6,247.353,79.32,247.3,82.035,247Z" transform="translate(186.342 13.408)"/></g></svg>