<svg xmlns="http://www.w3.org/2000/svg" xmlns:xlink="http://www.w3.org/1999/xlink" width="1105.961" height="841.875" viewBox="0 0 1105.961 841.875"><defs><style>.a{fill:url(#a);}.b{fill:url(#b);}.c{fill:url(#c);}.d{fill:url(#d);}.e{fill:url(#e);}.f{fill:#495e84;}.g{fill:#1e3052;}.h{fill:#063793;}.i{fill:#ececec;}.j{fill:#8cabef;}.k{fill:#dddae8;}.l{fill:#d67086;}.m{opacity:0.36;}.n{opacity:0.304;mix-blend-mode:screen;isolation:isolate;fill:url(#f);}</style><linearGradient id="a" x1="0.5" y1="0.071" x2="0.5" y2="1.336" gradientUnits="objectBoundingBox"><stop offset="0" stop-color="#e4e6e8"/><stop offset="0.057" stop-color="#e0e2e4"/><stop offset="0.11" stop-color="#d5d7d9"/><stop offset="0.161" stop-color="#c4c5c6"/><stop offset="0.211" stop-color="#ababac"/><stop offset="0.231" stop-color="#9f9f9f"/><stop offset="0.656" stop-color="#ebebeb"/><stop offset="0.762" stop-color="#f2f2f2"/><stop offset="1" stop-color="#fff"/></linearGradient><linearGradient id="b" x1="0.05" y1="0.388" x2="0.793" y2="0.573" gradientUnits="objectBoundingBox"><stop offset="0" stop-color="#e4e6e8"/><stop offset="0.057" stop-color="#e0e2e4"/><stop offset="0.11" stop-color="#d5d7d9"/><stop offset="0.161" stop-color="#c4c5c6"/><stop offset="0.211" stop-color="#ababac"/><stop offset="0.231" stop-color="#9f9f9f"/><stop offset="0.34" stop-color="#b3b3b3"/><stop offset="0.717" stop-color="#f6f6f6"/><stop offset="0.898" stop-color="#ebebeb"/><stop offset="0.929" stop-color="#f2f2f2"/><stop offset="1" stop-color="#fff"/></linearGradient><linearGradient id="c" x1="-0.072" y1="1.144" x2="0.787" y2="0.188" gradientUnits="objectBoundingBox"><stop offset="0" stop-color="#484848"/><stop offset="0.062" stop-color="#444"/><stop offset="0.119" stop-color="#393939"/><stop offset="0.175" stop-color="#262626"/><stop offset="0.229" stop-color="#0c0c0c"/><stop offset="0.231" stop-color="#0b0b0b"/><stop offset="0.32" stop-color="#141414"/><stop offset="1" stop-color="#575757"/></linearGradient><linearGradient id="d" x1="-0.117" y1="3.683" x2="1.105" y2="-2.696" gradientUnits="objectBoundingBox"><stop offset="0.027" stop-color="#b8b8b8"/><stop offset="0.887" stop-color="#fff"/></linearGradient><linearGradient id="e" x1="0.045" y1="1.054" x2="1.33" y2="-0.51" gradientUnits="objectBoundingBox"><stop offset="0.027" stop-color="#e8e8e9"/><stop offset="0.887" stop-color="#fff"/></linearGradient><linearGradient id="f" x1="1.297" y1="0.477" x2="-0.265" y2="0.522" gradientUnits="objectBoundingBox"><stop offset="0"/><stop offset="0.291" stop-color="#020202"/><stop offset="0.428" stop-color="#090909"/><stop offset="0.534" stop-color="#161616"/><stop offset="0.623" stop-color="#282828"/><stop offset="0.702" stop-color="#404040"/><stop offset="0.773" stop-color="#5e5e5e"/><stop offset="0.839" stop-color="#818181"/><stop offset="0.901" stop-color="#aaa"/><stop offset="0.957" stop-color="#d6d6d6"/><stop offset="1" stop-color="#fff"/></linearGradient></defs><g transform="translate(-47.219 -71.324)"><path class="a" d="M443.457,310.018c-18.391-18.146-29.351-47.861-29.351-79.573V198.7h-246.7v31.744c0,31.712-10.966,61.427-29.351,79.573l-28.889,28.524H472.34Z" transform="translate(309.443 565.477)"/><rect class="b" width="363.175" height="9.179" transform="translate(418.611 904.02)"/><path class="c" d="M1153.18,726.314V91.711c0-11.26-9.733-20.387-21.74-20.387H68.959c-12.013,0-21.74,9.127-21.74,20.387v634.6Z" transform="translate(0 0)"/><path class="d" d="M47.219,180.4v91.306c0,11.259,9.727,20.387,21.74,20.387H1131.44c12.007,0,21.74-9.127,21.74-20.387V180.4Z" transform="translate(0 484.231)"/><rect class="e" width="1041.995" height="526.813" transform="translate(78.781 103.484)"/><g transform="translate(-77.903 -144.934)"><g transform="translate(156.684 248.418)"><rect class="f" width="1041.995" height="495.177" transform="translate(0 31.636)"/><rect class="g" width="1041.995" height="24.352"/><rect class="h" width="1041.995" height="31.968" transform="translate(0 24.352)"/><rect class="i" width="945.766" height="13.648" transform="translate(66.619 36.084)"/><g transform="translate(18.787 7.16)"><path class="j" d="M183.615,259.584a4.073,4.073,0,1,1-4.072-4.006A4.04,4.04,0,0,1,183.615,259.584Z" transform="translate(-175.471 -255.578)"/><path class="k" d="M195.541,259.584a4.073,4.073,0,1,1-4.073-4.006A4.041,4.041,0,0,1,195.541,259.584Z" transform="translate(-175.471 -255.578)"/><path class="l" d="M207.466,259.584a4.073,4.073,0,1,1-4.072-4.006A4.04,4.04,0,0,1,207.466,259.584Z" transform="translate(-175.471 -255.578)"/></g><g class="m" transform="translate(20.44 36.36)"><path class="i" d="M201.075,284.778v13.1l4.738-6.548Z" transform="translate(-177.124 -284.778)"/><path class="i" d="M181.862,297.873v-13.1l-4.738,6.548Z" transform="translate(-177.124 -284.778)"/></g></g></g><path class="n" d="M828.532,71.324H100.246l389.2,654.99H848.918V91.711A20.387,20.387,0,0,0,828.532,71.324Z" transform="translate(304.262 0)"/></g></svg>